<svg xmlns="http://www.w3.org/2000/svg" xmlns:xlink="http://www.w3.org/1999/xlink" viewBox="0 0 725 375"><defs><style>.cls-1{fill:url(#linear-gradient);}.cls-2{fill:#c8daea;}.cls-3{fill:#a9c9dd;}.cls-4{fill:url(#linear-gradient-2);}.cls-5{fill:#662c7c;fill-opacity:0.2;}.cls-6{fill:#f16850;}.cls-7{fill:#fd694f;}.cls-8{fill:#ff3413;}.cls-9{fill:#dc1d23;}.cls-10{fill:#ff9281;}.cls-11{fill:#ff8b79;}.cls-12{fill:#ef5240;}.cls-13{fill:#ff482c;}.cls-14{fill:#ec2101;}.cls-15{fill:#d21c22;}.cls-16{fill:#c90901;}.cls-17{fill:#b6171e;}.cls-18{fill:#b4151b;}.cls-19{fill:#e63320;}.cls-20{fill:#ff4527;}.cls-21{fill:#fd684d;}.cls-22{fill:#fd745c;}.cls-23{fill:#fff;}.cls-24,.cls-25{fill:none;stroke-miterlimit:10;}.cls-24{stroke:#662c7c;opacity:0;}.cls-25{stroke:#000;}.cls-26{fill:gray;}</style><linearGradient id="linear-gradient" x1="-4467.02" y1="778.35" x2="-4467.09" y2="778.19" gradientTransform="matrix(240, 0, 0, -240, 1072273.5, 187087.86)" gradientUnits="userSpaceOnUse"><stop offset="0" stop-color="#37aee2"/><stop offset="1" stop-color="#1e96c8"/></linearGradient><linearGradient id="linear-gradient-2" x1="-4451.11" y1="775.89" x2="-4451.06" y2="775.79" gradientTransform="matrix(130.49, 0, 0, -109.45, 581018.08, 85228.97)" gradientUnits="userSpaceOnUse"><stop offset="0" stop-color="#eff7fc"/><stop offset="1" stop-color="#fff"/></linearGradient></defs><title>OrchestrationShemes</title><g id="Layer_1" data-name="Layer 1"><circle class="cls-1" cx="178.06" cy="307.33" r="33.04"/><path class="cls-2" d="M172,322.48c-1.07,0-.89-.4-1.26-1.42l-3.15-10.36,24.23-14.37"/><path class="cls-3" d="M172,322.48a2.12,2.12,0,0,0,1.65-.83l4.41-4.28-5.5-3.31"/><path class="cls-4" d="M172.56,314.05l13.32,9.84c1.52.84,2.62.4,3-1.41l5.42-25.54c.55-2.22-.85-3.23-2.3-2.57l-31.83,12.27c-2.17.87-2.16,2.08-.4,2.62l8.17,2.55,18.91-11.93c.89-.54,1.71-.25,1,.35"/><rect class="cls-5" x="178.14" y="9.69" width="336.5" height="100" rx="13" ry="13"/><rect class="cls-5" x="103.14" y="139.69" width="150" height="100" rx="13" ry="13"/><path d="M240.81,58.54h2.43v8.74h4.29v2h-6.72Z"/><path d="M255.47,67.44a10.18,10.18,0,0,0,.13,1.89h-2.19l-.14-.78h0a2.82,2.82,0,0,1-2.24,1,2.4,2.4,0,0,1-2.53-2.4c0-2,1.83-3,4.59-3V64c0-.43-.22-1-1.42-1a4.4,4.4,0,0,0-2.16.59L249,62a6.43,6.43,0,0,1,3-.7c2.61,0,3.43,1.54,3.43,3.39Zm-2.35-1.81c-1.28,0-2.27.3-2.27,1.23a.87.87,0,0,0,1,.93,1.34,1.34,0,0,0,1.26-.9,1.74,1.74,0,0,0,0-.42Z"/><path d="M264.82,68.2a4.45,4.45,0,0,1-1.2,3.52,4.76,4.76,0,0,1-3.17,1,6.26,6.26,0,0,1-2.82-.59l.48-1.86a4.76,4.76,0,0,0,2.27.59,1.86,1.86,0,0,0,2-2.06v-.5h0a2.53,2.53,0,0,1-2.11,1c-1.94,0-3.31-1.57-3.31-3.81,0-2.53,1.62-4.13,3.55-4.13a2.34,2.34,0,0,1,2.14,1.12h0l.08-.94h2.11c0,.51-.06,1.17-.06,2.34Zm-2.43-3.5a2.11,2.11,0,0,0,0-.45A1.33,1.33,0,0,0,261,63.17c-.9,0-1.6.8-1.6,2.22,0,1.17.58,2.08,1.58,2.08a1.33,1.33,0,0,0,1.3-1,2.22,2.22,0,0,0,.08-.66Z"/><path d="M274.5,65.33a3.93,3.93,0,0,1-4.13,4.18,3.83,3.83,0,0,1-4-4,3.92,3.92,0,0,1,4.19-4.16A3.81,3.81,0,0,1,274.5,65.33Zm-5.67.08c0,1.34.56,2.35,1.6,2.35s1.55-.94,1.55-2.37c0-1.15-.45-2.34-1.55-2.34S268.83,64.26,268.83,65.41Z"/><path d="M276,64c0-1,0-1.79-.06-2.5H278l.1,1.06h0a2.71,2.71,0,0,1,2.37-1.25,2.21,2.21,0,0,1,2.14,1.34h0a3.41,3.41,0,0,1,1-1,3,3,0,0,1,1.49-.38c1.5,0,2.64,1.06,2.64,3.41v4.61h-2.37V65.07c0-1.14-.37-1.79-1.15-1.79a1.21,1.21,0,0,0-1.14.85,2.57,2.57,0,0,0-.08.62v4.58h-2.37v-4.4c0-1-.35-1.65-1.14-1.65a1.25,1.25,0,0,0-1.14.86,1.65,1.65,0,0,0-.1.63v4.56H276Z"/><path d="M293.07,58.54h2.42v4.77h0c.24-.42.5-.8.75-1.18l2.43-3.58h3l-3.57,4.59,3.75,6.19h-2.83l-2.66-4.66-.91,1.14v3.52h-2.42Z"/><path d="M309.89,66.82c0,1,0,1.86.06,2.51h-2.11l-.11-1.1h0a2.79,2.79,0,0,1-2.45,1.28c-1.6,0-2.75-1-2.75-3.41V61.5h2.43v4.21c0,1.14.37,1.82,1.23,1.82a1.35,1.35,0,0,0,1.31-1.38V61.5h2.43Z"/><path d="M311.84,58h2.43v4.47h0a2.75,2.75,0,0,1,2.37-1.1c1.87,0,3.23,1.55,3.22,4,0,2.82-1.78,4.23-3.57,4.23A2.58,2.58,0,0,1,314,68.24h0l-.1,1.09h-2.07c0-.51.06-1.46.06-2.34Zm2.43,8a1.82,1.82,0,0,0,0,.43,1.49,1.49,0,0,0,1.42,1.15c1,0,1.68-.8,1.68-2.21,0-1.22-.54-2.18-1.68-2.18a1.51,1.51,0,0,0-1.42,1.2,2.07,2.07,0,0,0,0,.45Z"/><path d="M323.33,66.19c.06,1,1.07,1.49,2.21,1.49a6.46,6.46,0,0,0,2.16-.34L328,69a7.4,7.4,0,0,1-2.83.5c-2.66,0-4.18-1.54-4.18-4a3.92,3.92,0,0,1,4-4.18c2.53,0,3.49,2,3.49,3.91a5.86,5.86,0,0,1-.08,1Zm2.86-1.66a1.41,1.41,0,0,0-1.38-1.58,1.61,1.61,0,0,0-1.5,1.58Z"/><path d="M333.29,66.82a6.16,6.16,0,0,0,2.71.67c1.12,0,1.71-.46,1.71-1.17s-.51-1.06-1.81-1.5c-1.79-.64-3-1.63-3-3.2,0-1.84,1.55-3.23,4.08-3.23a6.32,6.32,0,0,1,2.75.54l-.54,2a5,5,0,0,0-2.24-.51c-1.06,0-1.57.5-1.57,1s.59,1,2,1.52c1.91.7,2.79,1.7,2.79,3.22,0,1.81-1.38,3.35-4.34,3.35a7,7,0,0,1-3.06-.67Z"/><path d="M343.76,66.19c.06,1,1.07,1.49,2.21,1.49a6.46,6.46,0,0,0,2.16-.34l.32,1.65a7.4,7.4,0,0,1-2.83.5c-2.66,0-4.18-1.54-4.18-4a3.92,3.92,0,0,1,4-4.18c2.53,0,3.49,2,3.49,3.91a5.86,5.86,0,0,1-.08,1Zm2.86-1.66a1.41,1.41,0,0,0-1.38-1.58,1.61,1.61,0,0,0-1.5,1.58Z"/><path d="M350.33,64.08c0-1.15,0-1.91-.06-2.58h2.08l.1,1.44h.06a2.28,2.28,0,0,1,2.11-1.63,2.47,2.47,0,0,1,.51,0v2.29a3.71,3.71,0,0,0-.66-.06,1.56,1.56,0,0,0-1.67,1.23,2.93,2.93,0,0,0,0,.54v4h-2.43Z"/><path d="M358.51,61.5l1.06,3.63c.19.67.32,1.28.45,1.9h0c.13-.64.26-1.23.43-1.9l1-3.63h2.56l-2.91,7.83h-2.43l-2.85-7.83Z"/><path d="M367.7,59.33a1.21,1.21,0,0,1-1.31,1.22,1.22,1.22,0,1,1,1.31-1.22Zm-2.51,10V61.5h2.43v7.83Z"/><path d="M375.44,69.12a5.56,5.56,0,0,1-2.18.37,3.8,3.8,0,0,1-4.15-4c0-2.29,1.57-4.16,4.48-4.16a5.64,5.64,0,0,1,1.86.3l-.38,1.81a3.33,3.33,0,0,0-1.36-.24,2.19,2.19,0,0,0,0,4.39,3.43,3.43,0,0,0,1.39-.26Z"/><path d="M378.48,66.19c.06,1,1.07,1.49,2.21,1.49a6.46,6.46,0,0,0,2.16-.34l.32,1.65a7.4,7.4,0,0,1-2.83.5c-2.66,0-4.18-1.54-4.18-4a3.92,3.92,0,0,1,4-4.18c2.53,0,3.49,2,3.49,3.91a5.86,5.86,0,0,1-.08,1Zm2.86-1.66A1.41,1.41,0,0,0,380,62.95a1.61,1.61,0,0,0-1.5,1.58Z"/><path d="M388.37,58.69a21.29,21.29,0,0,1,3.25-.22,5.51,5.51,0,0,1,3.49.85,2.74,2.74,0,0,1,1,2.27,2.86,2.86,0,0,1-1.91,2.64v0a2.69,2.69,0,0,1,1.44,2c.34,1.23.66,2.64.86,3.06H394a14.42,14.42,0,0,1-.74-2.51c-.3-1.36-.77-1.71-1.78-1.73h-.72v4.24h-2.42Zm2.42,4.64h1c1.22,0,1.94-.61,1.94-1.55s-.67-1.49-1.79-1.49a4.86,4.86,0,0,0-1.1.08Z"/><path d="M399.65,66.19c.06,1,1.07,1.49,2.21,1.49a6.46,6.46,0,0,0,2.16-.34l.32,1.65a7.4,7.4,0,0,1-2.83.5c-2.66,0-4.18-1.54-4.18-4a3.92,3.92,0,0,1,4-4.18c2.53,0,3.49,2,3.49,3.91a5.86,5.86,0,0,1-.08,1Zm2.86-1.66a1.41,1.41,0,0,0-1.38-1.58,1.61,1.61,0,0,0-1.5,1.58Z"/><path d="M413.63,68.2a4.45,4.45,0,0,1-1.2,3.52,4.76,4.76,0,0,1-3.17,1,6.26,6.26,0,0,1-2.82-.59l.48-1.86a4.76,4.76,0,0,0,2.27.59,1.86,1.86,0,0,0,2-2.06v-.5h0a2.53,2.53,0,0,1-2.11,1c-1.94,0-3.31-1.57-3.31-3.81,0-2.53,1.62-4.13,3.55-4.13a2.34,2.34,0,0,1,2.14,1.12h0l.08-.94h2.11c0,.51-.06,1.17-.06,2.34Zm-2.43-3.5a2.11,2.11,0,0,0,0-.45,1.33,1.33,0,0,0-1.31-1.07c-.9,0-1.6.8-1.6,2.22,0,1.17.58,2.08,1.58,2.08a1.33,1.33,0,0,0,1.3-1,2.22,2.22,0,0,0,.08-.66Z"/><path d="M418.1,59.33a1.21,1.21,0,0,1-1.31,1.22,1.22,1.22,0,1,1,1.31-1.22Zm-2.51,10V61.5H418v7.83Z"/><path d="M420,67.22a4.75,4.75,0,0,0,2.1.58c.74,0,1-.24,1-.64s-.24-.61-1.14-.91c-1.63-.54-2.26-1.42-2.24-2.35,0-1.47,1.25-2.58,3.18-2.58a5.14,5.14,0,0,1,2.19.46l-.42,1.68A3.91,3.91,0,0,0,423,63c-.59,0-.93.24-.93.62s.3.58,1.26.91c1.49.51,2.1,1.28,2.11,2.42,0,1.47-1.14,2.54-3.38,2.54a5.54,5.54,0,0,1-2.53-.56Z"/><path d="M429.63,59.39V61.5h1.75V63.3h-1.75v2.83c0,.94.24,1.38,1,1.38a3,3,0,0,0,.72-.06l0,1.84a5.12,5.12,0,0,1-1.57.21,2.6,2.6,0,0,1-1.84-.67,3.25,3.25,0,0,1-.67-2.32V63.3h-1V61.5h1V60Z"/><path d="M432.78,64.08c0-1.15,0-1.91-.06-2.58h2.08l.1,1.44H435a2.28,2.28,0,0,1,2.11-1.63,2.47,2.47,0,0,1,.51,0v2.29a3.71,3.71,0,0,0-.66-.06,1.56,1.56,0,0,0-1.67,1.23,2.93,2.93,0,0,0,0,.54v4h-2.43Z"/><path d="M441,61.5l1.17,3.86c.13.45.29,1,.38,1.46h.06c.1-.43.22-1,.34-1.47l1-3.84h2.59l-1.82,5.15c-1.12,3.12-1.87,4.35-2.75,5.14a4.27,4.27,0,0,1-2.34,1.07l-.53-2a3.86,3.86,0,0,0,1.06-.42,2.8,2.8,0,0,0,1-1,.73.73,0,0,0,.13-.35,1,1,0,0,0-.1-.4l-2.88-7.17Z"/><path d="M121.86,156.89h.58v7.6H126V165h-4.17Z"/><path d="M130.82,163.61a8.59,8.59,0,0,0,.08,1.37h-.53l-.08-.83h0a2.2,2.2,0,0,1-1.85,1,1.56,1.56,0,0,1-1.69-1.58c0-1.33,1.16-2.13,3.51-2.11v-.16c0-.56-.11-1.7-1.47-1.69a2.51,2.51,0,0,0-1.45.43l-.18-.42a3.18,3.18,0,0,1,1.69-.49c1.67,0,2,1.25,2,2.27Zm-.58-1.71c-1.26,0-2.91.16-2.91,1.54a1.1,1.1,0,0,0,1.15,1.2,1.72,1.72,0,0,0,1.7-1.15,1,1,0,0,0,.06-.35Z"/><path d="M137.27,164.14a3.41,3.41,0,0,1-.79,2.66,2.87,2.87,0,0,1-2,.68,3.23,3.23,0,0,1-1.83-.5l.2-.46a3.1,3.1,0,0,0,1.71.48c1.21,0,2.09-.62,2.09-2.33v-.82h0a2.15,2.15,0,0,1-2,1.12,2.61,2.61,0,0,1-2.47-2.83,2.76,2.76,0,0,1,2.59-3.06,2,2,0,0,1,1.94,1.1h0l0-1h.53c0,.43,0,.89,0,1.49Zm-.58-2.7a1.63,1.63,0,0,0-.07-.56,1.86,1.86,0,0,0-1.79-1.31c-1.22,0-2.06,1-2.06,2.52,0,1.3.68,2.41,2,2.41a1.91,1.91,0,0,0,1.79-1.3,2.11,2.11,0,0,0,.1-.61Z"/><path d="M141.37,165.11a2.7,2.7,0,0,1-2.64-3,2.78,2.78,0,0,1,2.72-3.06,2.68,2.68,0,0,1,2.67,3,2.79,2.79,0,0,1-2.75,3.06Zm0-.48a2.33,2.33,0,0,0,2.15-2.55,2.16,2.16,0,1,0-2.16,2.55Z"/><path d="M145.59,160.6c0-.53,0-.92,0-1.38h.54l0,1h0a2,2,0,0,1,1.87-1.14,1.76,1.76,0,0,1,1.65,1.25h0a2.26,2.26,0,0,1,.59-.78,2,2,0,0,1,1.37-.47c.56,0,1.88.31,1.88,2.49V165H153v-3.35c0-1.3-.5-2.06-1.5-2.06a1.69,1.69,0,0,0-1.51,1.14,2.06,2.06,0,0,0-.1.58V165h-.58v-3.61c0-1-.49-1.8-1.43-1.8a1.78,1.78,0,0,0-1.6,1.3,2.06,2.06,0,0,0-.08.56V165h-.58Z"/><path d="M158,156.89h.58V161h0c.24-.31.48-.59.7-.84l2.87-3.25h.7l-3.07,3.43,3.36,4.65h-.68l-3.07-4.26-.83.91V165H158Z"/><path d="M168.46,163.57c0,.5,0,1,0,1.4H168l0-1h0a2.21,2.21,0,0,1-2,1.16c-.73,0-2-.37-2-2.54v-3.35h.58v3.24c0,1.25.38,2.15,1.52,2.15a1.9,1.9,0,0,0,1.7-1.16,2.09,2.09,0,0,0,.11-.64v-3.59h.58Z"/><path d="M170.39,156.45H171v3.85h0a2.23,2.23,0,0,1,2.11-1.21c1.45,0,2.46,1.22,2.46,3,0,2.05-1.31,3.07-2.57,3.07a2.22,2.22,0,0,1-2.06-1.16h0l0,1h-.52c0-.41,0-.91,0-1.34Zm.58,6.31a1.73,1.73,0,0,0,0,.42,2,2,0,0,0,1.9,1.45c1.32,0,2.07-1.08,2.07-2.58,0-1.32-.72-2.48-2-2.48A2,2,0,0,0,171,161.1a2,2,0,0,0-.07.5Z"/><path d="M177.11,162c0,1.83,1,2.57,2.19,2.57a3.36,3.36,0,0,0,1.6-.32l.14.44a3.79,3.79,0,0,1-1.81.37,2.64,2.64,0,0,1-2.69-2.89c0-1.92,1.1-3.12,2.59-3.12a2.35,2.35,0,0,1,2.24,2.6,1.45,1.45,0,0,1,0,.35Zm3.67-.46a1.76,1.76,0,0,0-1.71-2,2,2,0,0,0-1.92,2Z"/><path d="M191,164.69a5.21,5.21,0,0,1-2.18.41c-2,0-3.83-1.25-3.83-4.11a3.94,3.94,0,0,1,4.1-4.21,4.24,4.24,0,0,1,1.87.35l-.18.48a3.84,3.84,0,0,0-1.68-.35c-2.18,0-3.51,1.42-3.51,3.74s1.25,3.61,3.42,3.61a4.36,4.36,0,0,0,1.82-.37Z"/><path d="M192.31,156.45h.58V165h-.58Z"/><path d="M195.12,158.07a.46.46,0,0,1-.44-.49.49.49,0,0,1,.47-.5.47.47,0,0,1,.46.5.47.47,0,0,1-.47.49Zm-.26,6.91v-5.76h.58V165Z"/><path d="M197.45,162c0,1.83,1,2.57,2.19,2.57a3.36,3.36,0,0,0,1.6-.32l.14.44a3.79,3.79,0,0,1-1.81.37,2.64,2.64,0,0,1-2.69-2.89c0-1.92,1.1-3.12,2.59-3.12a2.35,2.35,0,0,1,2.24,2.6,1.45,1.45,0,0,1,0,.35Zm3.67-.46a1.76,1.76,0,0,0-1.71-2,2,2,0,0,0-1.92,2Z"/><path d="M203.18,160.6c0-.53,0-.92,0-1.38h.54l0,1h0a2.16,2.16,0,0,1,2-1.16c.55,0,2,.28,2,2.43V165h-.58v-3.41c0-1.06-.41-2-1.6-2a1.85,1.85,0,0,0-1.73,1.33,2,2,0,0,0-.07.5V165h-.58Z"/><path d="M210.4,157.95v1.27H212v.47H210.4v3.74c0,.73.23,1.19.84,1.19a2.14,2.14,0,0,0,.66-.08l.07.43a2.29,2.29,0,0,1-.8.13,1.22,1.22,0,0,1-1-.4,2.11,2.11,0,0,1-.36-1.38v-3.63h-1v-.47h1v-1.06Z"/><path d="M215.7,164.09a3.19,3.19,0,0,0,1.76.53c1.21,0,2-.68,2-1.68s-.47-1.44-1.64-1.88-2.08-1.14-2.08-2.23a2.13,2.13,0,0,1,2.35-2.05,3.14,3.14,0,0,1,1.61.37l-.22.49a2.58,2.58,0,0,0-1.43-.38,1.53,1.53,0,0,0-1.75,1.47c0,.89.52,1.34,1.68,1.8,1.33.54,2,1.15,2,2.35a2.26,2.26,0,0,1-2.57,2.22,3.63,3.63,0,0,1-1.93-.54Z"/><path d="M221.78,158.07a.46.46,0,0,1-.44-.49.49.49,0,0,1,.47-.5.47.47,0,0,1,.46.5.47.47,0,0,1-.47.49Zm-.26,6.91v-5.76h.58V165Z"/><path d="M228.62,156.45v7.2c0,.42,0,.92,0,1.33h-.52l0-1.09h0a2.18,2.18,0,0,1-2.05,1.22,2.61,2.61,0,0,1-2.48-2.9c0-1.92,1.17-3.12,2.59-3.12a2,2,0,0,1,1.88,1h0v-3.66Zm-.58,5A2,2,0,0,0,228,161a1.85,1.85,0,0,0-1.81-1.4c-1.26,0-2.05,1.09-2.05,2.58,0,1.29.65,2.48,2,2.48a1.91,1.91,0,0,0,1.85-1.5,1.51,1.51,0,0,0,.06-.48Z"/><path d="M230.64,162c0,1.83,1,2.57,2.19,2.57a3.36,3.36,0,0,0,1.6-.32l.14.44a3.79,3.79,0,0,1-1.81.37,2.64,2.64,0,0,1-2.69-2.89c0-1.92,1.1-3.12,2.59-3.12a2.35,2.35,0,0,1,2.24,2.6,1.45,1.45,0,0,1,0,.35Zm3.67-.46a1.76,1.76,0,0,0-1.71-2,2,2,0,0,0-1.92,2Z"/><path d="M286.86,156.89h.58v7.6H291V165h-4.17Z"/><path d="M295.82,163.61a8.59,8.59,0,0,0,.08,1.37h-.53l-.08-.83h0a2.2,2.2,0,0,1-1.85,1,1.56,1.56,0,0,1-1.69-1.58c0-1.33,1.16-2.13,3.51-2.11v-.16c0-.56-.11-1.7-1.47-1.69a2.51,2.51,0,0,0-1.45.43l-.18-.42a3.18,3.18,0,0,1,1.69-.49c1.67,0,2,1.25,2,2.27Zm-.58-1.71c-1.26,0-2.91.16-2.91,1.54a1.1,1.1,0,0,0,1.15,1.2,1.72,1.72,0,0,0,1.7-1.15,1,1,0,0,0,.06-.35Z"/><path d="M302.27,164.14a3.41,3.41,0,0,1-.79,2.66,2.87,2.87,0,0,1-2,.68,3.23,3.23,0,0,1-1.83-.5l.2-.46a3.1,3.1,0,0,0,1.71.48c1.21,0,2.09-.62,2.09-2.33v-.82h0a2.15,2.15,0,0,1-2,1.12,2.61,2.61,0,0,1-2.47-2.83,2.76,2.76,0,0,1,2.59-3.06,2,2,0,0,1,1.94,1.1h0l0-1h.53c0,.43,0,.89,0,1.49Zm-.58-2.7a1.63,1.63,0,0,0-.07-.56,1.86,1.86,0,0,0-1.79-1.31c-1.22,0-2.06,1-2.06,2.52,0,1.3.68,2.41,2,2.41a1.91,1.91,0,0,0,1.79-1.3,2.11,2.11,0,0,0,.1-.61Z"/><path d="M306.37,165.11a2.7,2.7,0,0,1-2.64-3,2.78,2.78,0,0,1,2.72-3.06,2.68,2.68,0,0,1,2.67,3,2.79,2.79,0,0,1-2.75,3.06Zm0-.48a2.33,2.33,0,0,0,2.15-2.55,2.16,2.16,0,1,0-2.16,2.55Z"/><path d="M310.59,160.6c0-.53,0-.92,0-1.38h.54l0,1h0a2,2,0,0,1,1.87-1.14,1.76,1.76,0,0,1,1.65,1.25h0a2.26,2.26,0,0,1,.59-.78,2,2,0,0,1,1.37-.47c.56,0,1.88.31,1.88,2.49V165H318v-3.35c0-1.3-.5-2.06-1.5-2.06a1.69,1.69,0,0,0-1.51,1.14,2.06,2.06,0,0,0-.1.58V165h-.58v-3.61c0-1-.49-1.8-1.43-1.8a1.78,1.78,0,0,0-1.6,1.3,2.06,2.06,0,0,0-.08.56V165h-.58Z"/><path d="M323,156.89h.58V161h0c.24-.31.48-.59.7-.84l2.87-3.25h.7l-3.07,3.43,3.36,4.65h-.68l-3.07-4.26-.83.91V165H323Z"/><path d="M333.46,163.57c0,.5,0,1,0,1.4H333l0-1h0a2.21,2.21,0,0,1-2,1.16c-.73,0-2-.37-2-2.54v-3.35h.58v3.24c0,1.25.38,2.15,1.52,2.15a1.9,1.9,0,0,0,1.7-1.16,2.09,2.09,0,0,0,.11-.64v-3.59h.58Z"/><path d="M335.38,156.45H336v3.85h0a2.23,2.23,0,0,1,2.11-1.21c1.45,0,2.46,1.22,2.46,3,0,2.05-1.31,3.07-2.57,3.07a2.22,2.22,0,0,1-2.06-1.16h0l0,1h-.52c0-.41,0-.91,0-1.34Zm.58,6.31a1.73,1.73,0,0,0,0,.42,2,2,0,0,0,1.9,1.45c1.32,0,2.07-1.08,2.07-2.58,0-1.32-.72-2.48-2-2.48A2,2,0,0,0,336,161.1a2,2,0,0,0-.07.5Z"/><path d="M342.1,162c0,1.83,1,2.57,2.19,2.57a3.36,3.36,0,0,0,1.6-.32l.14.44a3.79,3.79,0,0,1-1.81.37,2.64,2.64,0,0,1-2.69-2.89c0-1.92,1.1-3.12,2.59-3.12a2.35,2.35,0,0,1,2.24,2.6,1.45,1.45,0,0,1,0,.35Zm3.67-.46a1.76,1.76,0,0,0-1.71-2,2,2,0,0,0-1.92,2Z"/><path d="M355.95,164.69a5.21,5.21,0,0,1-2.18.41c-2,0-3.83-1.25-3.83-4.11a3.94,3.94,0,0,1,4.1-4.21,4.24,4.24,0,0,1,1.87.35l-.18.48a3.84,3.84,0,0,0-1.68-.35c-2.18,0-3.51,1.42-3.51,3.74s1.25,3.61,3.42,3.61a4.36,4.36,0,0,0,1.82-.37Z"/><path d="M357.31,156.45h.58V165h-.58Z"/><path d="M360.12,158.07a.46.46,0,0,1-.44-.49.49.49,0,0,1,.47-.5.47.47,0,0,1,.46.5.47.47,0,0,1-.47.49Zm-.26,6.91v-5.76h.58V165Z"/><path d="M362.44,162c0,1.83,1,2.57,2.19,2.57a3.36,3.36,0,0,0,1.6-.32l.14.44a3.79,3.79,0,0,1-1.81.37,2.64,2.64,0,0,1-2.69-2.89c0-1.92,1.1-3.12,2.59-3.12a2.35,2.35,0,0,1,2.24,2.6,1.45,1.45,0,0,1,0,.35Zm3.67-.46a1.76,1.76,0,0,0-1.71-2,2,2,0,0,0-1.92,2Z"/><path d="M368.18,160.6c0-.53,0-.92,0-1.38h.54l0,1h0a2.16,2.16,0,0,1,2-1.16c.55,0,2,.28,2,2.43V165h-.58v-3.41c0-1.06-.41-2-1.6-2a1.85,1.85,0,0,0-1.73,1.33,2,2,0,0,0-.07.5V165h-.58Z"/><path d="M375.4,157.95v1.27H377v.47H375.4v3.74c0,.73.23,1.19.84,1.19a2.14,2.14,0,0,0,.66-.08l.07.43a2.29,2.29,0,0,1-.8.13,1.22,1.22,0,0,1-1-.4,2.11,2.11,0,0,1-.36-1.38v-3.63h-1v-.47h1v-1.06Z"/><path d="M380.7,164.09a3.19,3.19,0,0,0,1.76.53c1.21,0,2-.68,2-1.68s-.47-1.44-1.64-1.88-2.08-1.14-2.08-2.23a2.13,2.13,0,0,1,2.35-2.05,3.14,3.14,0,0,1,1.61.37l-.22.49a2.58,2.58,0,0,0-1.43-.38,1.53,1.53,0,0,0-1.75,1.47c0,.89.52,1.34,1.68,1.8,1.33.54,2,1.15,2,2.35a2.26,2.26,0,0,1-2.57,2.22,3.63,3.63,0,0,1-1.93-.54Z"/><path d="M386.78,158.07a.46.46,0,0,1-.44-.49.49.49,0,0,1,.47-.5.47.47,0,0,1,.46.5.47.47,0,0,1-.47.49Zm-.26,6.91v-5.76h.58V165Z"/><path d="M393.62,156.45v7.2c0,.42,0,.92,0,1.33h-.52l0-1.09h0a2.18,2.18,0,0,1-2.05,1.22,2.61,2.61,0,0,1-2.48-2.9c0-1.92,1.17-3.12,2.59-3.12a2,2,0,0,1,1.88,1h0v-3.66Zm-.58,5A2,2,0,0,0,393,161a1.85,1.85,0,0,0-1.81-1.4c-1.26,0-2.05,1.09-2.05,2.58,0,1.29.65,2.48,2,2.48a1.91,1.91,0,0,0,1.85-1.5,1.51,1.51,0,0,0,.06-.48Z"/><path d="M395.64,162c0,1.83,1,2.57,2.19,2.57a3.36,3.36,0,0,0,1.6-.32l.14.44a3.79,3.79,0,0,1-1.81.37,2.64,2.64,0,0,1-2.69-2.89c0-1.92,1.1-3.12,2.59-3.12a2.35,2.35,0,0,1,2.24,2.6,1.45,1.45,0,0,1,0,.35Zm3.67-.46a1.76,1.76,0,0,0-1.71-2,2,2,0,0,0-1.92,2Z"/><path d="M451.85,156.89h.58v7.6H456V165h-4.17Z"/><path d="M460.82,163.61a8.59,8.59,0,0,0,.08,1.37h-.53l-.08-.83h0a2.2,2.2,0,0,1-1.85,1,1.56,1.56,0,0,1-1.69-1.58c0-1.33,1.16-2.13,3.51-2.11v-.16c0-.56-.11-1.7-1.47-1.69a2.51,2.51,0,0,0-1.45.43l-.18-.42a3.18,3.18,0,0,1,1.69-.49c1.67,0,2,1.25,2,2.27Zm-.58-1.71c-1.26,0-2.91.16-2.91,1.54a1.1,1.1,0,0,0,1.15,1.2,1.72,1.72,0,0,0,1.7-1.15,1,1,0,0,0,.06-.35Z"/><path d="M467.27,164.14a3.41,3.41,0,0,1-.79,2.66,2.87,2.87,0,0,1-2,.68,3.23,3.23,0,0,1-1.83-.5l.2-.46a3.1,3.1,0,0,0,1.71.48c1.21,0,2.09-.62,2.09-2.33v-.82h0a2.15,2.15,0,0,1-2,1.12,2.61,2.61,0,0,1-2.47-2.83,2.76,2.76,0,0,1,2.59-3.06,2,2,0,0,1,1.94,1.1h0l0-1h.53c0,.43,0,.89,0,1.49Zm-.58-2.7a1.63,1.63,0,0,0-.07-.56,1.86,1.86,0,0,0-1.79-1.31c-1.22,0-2.06,1-2.06,2.52,0,1.3.68,2.41,2,2.41a1.91,1.91,0,0,0,1.79-1.3,2.11,2.11,0,0,0,.1-.61Z"/><path d="M471.37,165.11a2.7,2.7,0,0,1-2.64-3,2.78,2.78,0,0,1,2.72-3.06,2.68,2.68,0,0,1,2.67,3,2.79,2.79,0,0,1-2.75,3.06Zm0-.48a2.33,2.33,0,0,0,2.15-2.55,2.16,2.16,0,1,0-2.16,2.55Z"/><path d="M475.59,160.6c0-.53,0-.92,0-1.38h.54l0,1h0a2,2,0,0,1,1.87-1.14,1.76,1.76,0,0,1,1.65,1.25h0a2.26,2.26,0,0,1,.59-.78,2,2,0,0,1,1.37-.47c.56,0,1.88.31,1.88,2.49V165H483v-3.35c0-1.3-.5-2.06-1.5-2.06a1.69,1.69,0,0,0-1.51,1.14,2.06,2.06,0,0,0-.1.58V165h-.58v-3.61c0-1-.49-1.8-1.43-1.8a1.78,1.78,0,0,0-1.6,1.3,2.06,2.06,0,0,0-.08.56V165h-.58Z"/><path d="M488,156.89h.58V161h0c.24-.31.48-.59.7-.84l2.87-3.25h.7l-3.07,3.43L493.2,165h-.68l-3.07-4.26-.83.91V165H488Z"/><path d="M498.46,163.57c0,.5,0,1,0,1.4H498l0-1h0a2.21,2.21,0,0,1-2,1.16c-.73,0-2-.37-2-2.54v-3.35h.58v3.24c0,1.25.38,2.15,1.52,2.15a1.9,1.9,0,0,0,1.7-1.16,2.09,2.09,0,0,0,.11-.64v-3.59h.58Z"/><path d="M500.38,156.45H501v3.85h0a2.23,2.23,0,0,1,2.11-1.21c1.45,0,2.46,1.22,2.46,3,0,2.05-1.31,3.07-2.57,3.07a2.22,2.22,0,0,1-2.06-1.16h0l0,1h-.52c0-.41,0-.91,0-1.34Zm.58,6.31a1.73,1.73,0,0,0,0,.42,2,2,0,0,0,1.9,1.45c1.32,0,2.07-1.08,2.07-2.58,0-1.32-.72-2.48-2-2.48A2,2,0,0,0,501,161.1a2,2,0,0,0-.07.5Z"/><path d="M507.1,162c0,1.83,1,2.57,2.19,2.57a3.36,3.36,0,0,0,1.6-.32l.14.44a3.79,3.79,0,0,1-1.81.37,2.64,2.64,0,0,1-2.69-2.89c0-1.92,1.1-3.12,2.59-3.12a2.35,2.35,0,0,1,2.24,2.6,1.45,1.45,0,0,1,0,.35Zm3.67-.46a1.76,1.76,0,0,0-1.71-2,2,2,0,0,0-1.92,2Z"/><path d="M520.95,164.69a5.21,5.21,0,0,1-2.18.41c-2,0-3.83-1.25-3.83-4.11a3.94,3.94,0,0,1,4.1-4.21,4.24,4.24,0,0,1,1.87.35l-.18.48a3.84,3.84,0,0,0-1.68-.35c-2.18,0-3.51,1.42-3.51,3.74s1.25,3.61,3.42,3.61a4.36,4.36,0,0,0,1.82-.37Z"/><path d="M522.31,156.45h.58V165h-.58Z"/><path d="M525.11,158.07a.46.46,0,0,1-.44-.49.49.49,0,0,1,.47-.5.47.47,0,0,1,.46.5.47.47,0,0,1-.47.49Zm-.26,6.91v-5.76h.58V165Z"/><path d="M527.44,162c0,1.83,1,2.57,2.19,2.57a3.36,3.36,0,0,0,1.6-.32l.14.44a3.79,3.79,0,0,1-1.81.37,2.64,2.64,0,0,1-2.69-2.89c0-1.92,1.1-3.12,2.59-3.12a2.35,2.35,0,0,1,2.24,2.6,1.45,1.45,0,0,1,0,.35Zm3.67-.46a1.76,1.76,0,0,0-1.71-2,2,2,0,0,0-1.92,2Z"/><path d="M533.18,160.6c0-.53,0-.92,0-1.38h.54l0,1h0a2.16,2.16,0,0,1,2-1.16c.55,0,2,.28,2,2.43V165h-.58v-3.41c0-1.06-.41-2-1.6-2a1.85,1.85,0,0,0-1.73,1.33,2,2,0,0,0-.07.5V165h-.58Z"/><path d="M540.4,157.95v1.27H542v.47H540.4v3.74c0,.73.23,1.19.84,1.19a2.14,2.14,0,0,0,.66-.08l.07.43a2.29,2.29,0,0,1-.8.13,1.22,1.22,0,0,1-1-.4,2.11,2.11,0,0,1-.36-1.38v-3.63h-1v-.47h1v-1.06Z"/><path d="M545.69,164.09a3.19,3.19,0,0,0,1.76.53c1.21,0,2-.68,2-1.68s-.47-1.44-1.64-1.88-2.08-1.14-2.08-2.23a2.13,2.13,0,0,1,2.35-2.05,3.14,3.14,0,0,1,1.61.37l-.22.49a2.58,2.58,0,0,0-1.43-.38,1.53,1.53,0,0,0-1.75,1.47c0,.89.52,1.34,1.68,1.8,1.33.54,2,1.15,2,2.35a2.26,2.26,0,0,1-2.57,2.22,3.63,3.63,0,0,1-1.93-.54Z"/><path d="M551.78,158.07a.46.46,0,0,1-.44-.49.49.49,0,0,1,.47-.5.47.47,0,0,1,.46.5.47.47,0,0,1-.47.49Zm-.26,6.91v-5.76h.58V165Z"/><path d="M558.62,156.45v7.2c0,.42,0,.92,0,1.33h-.52l0-1.09h0a2.18,2.18,0,0,1-2.05,1.22,2.61,2.61,0,0,1-2.48-2.9c0-1.92,1.17-3.12,2.59-3.12a2,2,0,0,1,1.88,1h0v-3.66Zm-.58,5A2,2,0,0,0,558,161a1.85,1.85,0,0,0-1.81-1.4c-1.26,0-2.05,1.09-2.05,2.58,0,1.29.65,2.48,2,2.48a1.91,1.91,0,0,0,1.85-1.5,1.51,1.51,0,0,0,.06-.48Z"/><path d="M560.63,162c0,1.83,1,2.57,2.19,2.57a3.36,3.36,0,0,0,1.6-.32l.14.44a3.79,3.79,0,0,1-1.81.37,2.64,2.64,0,0,1-2.69-2.89c0-1.92,1.1-3.12,2.59-3.12a2.35,2.35,0,0,1,2.24,2.6,1.45,1.45,0,0,1,0,.35Zm3.67-.46a1.76,1.76,0,0,0-1.71-2,2,2,0,0,0-1.92,2Z"/><path d="M117.74,349.72h-2.91v-2h8.29v2h-2.95v8.74h-2.43Z"/><path d="M124.91,355.32c.06,1,1.07,1.49,2.21,1.49a6.46,6.46,0,0,0,2.16-.34l.32,1.65a7.4,7.4,0,0,1-2.83.5c-2.66,0-4.18-1.54-4.18-4a3.92,3.92,0,0,1,4-4.18c2.53,0,3.49,2,3.49,3.91a5.86,5.86,0,0,1-.08,1Zm2.86-1.66a1.41,1.41,0,0,0-1.38-1.58,1.61,1.61,0,0,0-1.5,1.58Z"/><path d="M131.49,347.1h2.43v11.36h-2.43Z"/><path d="M137.76,355.32c.06,1,1.07,1.49,2.21,1.49a6.46,6.46,0,0,0,2.16-.34l.32,1.65a7.4,7.4,0,0,1-2.83.5c-2.66,0-4.18-1.54-4.18-4a3.92,3.92,0,0,1,4-4.18c2.53,0,3.49,2,3.49,3.91a5.86,5.86,0,0,1-.08,1Zm2.86-1.66a1.41,1.41,0,0,0-1.38-1.58,1.61,1.61,0,0,0-1.5,1.58Z"/><path d="M151.75,357.32a4.45,4.45,0,0,1-1.2,3.52,4.76,4.76,0,0,1-3.17,1,6.26,6.26,0,0,1-2.82-.59l.48-1.86a4.76,4.76,0,0,0,2.27.59,1.86,1.86,0,0,0,2-2.06v-.5h0a2.53,2.53,0,0,1-2.11,1c-1.94,0-3.31-1.57-3.31-3.81,0-2.53,1.62-4.13,3.55-4.13a2.34,2.34,0,0,1,2.14,1.12h0l.08-.94h2.11c0,.51-.06,1.17-.06,2.34Zm-2.43-3.5a2.11,2.11,0,0,0,0-.45A1.33,1.33,0,0,0,148,352.3c-.9,0-1.6.8-1.6,2.22,0,1.17.58,2.08,1.58,2.08a1.33,1.33,0,0,0,1.3-1,2.22,2.22,0,0,0,.08-.66Z"/><path d="M153.7,353.21c0-1.15,0-1.91-.06-2.58h2.08l.1,1.44h.06a2.28,2.28,0,0,1,2.11-1.63,2.47,2.47,0,0,1,.51,0v2.29a3.71,3.71,0,0,0-.66-.06,1.56,1.56,0,0,0-1.67,1.23,2.93,2.93,0,0,0,0,.54v4H153.7Z"/><path d="M166.11,356.57a10.18,10.18,0,0,0,.13,1.89H164l-.14-.78h0a2.82,2.82,0,0,1-2.24,1,2.4,2.4,0,0,1-2.53-2.4c0-2,1.83-3,4.59-3v-.1c0-.43-.22-1-1.42-1a4.4,4.4,0,0,0-2.16.59l-.45-1.57a6.43,6.43,0,0,1,3-.7c2.61,0,3.43,1.54,3.43,3.39Zm-2.35-1.81c-1.28,0-2.27.3-2.27,1.23a.87.87,0,0,0,1,.93,1.34,1.34,0,0,0,1.26-.9,1.74,1.74,0,0,0,0-.42Z"/><path d="M168,353.13c0-1,0-1.79-.06-2.5H170l.1,1.06h0a2.71,2.71,0,0,1,2.37-1.25,2.21,2.21,0,0,1,2.14,1.34h0a3.41,3.41,0,0,1,1-1,3,3,0,0,1,1.49-.38c1.5,0,2.64,1.06,2.64,3.41v4.61h-2.37V354.2c0-1.14-.37-1.79-1.15-1.79a1.21,1.21,0,0,0-1.14.85,2.57,2.57,0,0,0-.08.62v4.58h-2.37v-4.4c0-1-.35-1.65-1.14-1.65a1.25,1.25,0,0,0-1.14.86,1.65,1.65,0,0,0-.1.63v4.56H168Z"/><path d="M185.12,347.82a21.39,21.39,0,0,1,3.15-.22,6.05,6.05,0,0,1,3.2.61,2.34,2.34,0,0,1,1.28,2.13,2.45,2.45,0,0,1-1.78,2.29v0a2.68,2.68,0,0,1,2.14,2.64,2.88,2.88,0,0,1-1.12,2.3c-.78.62-2.1,1-4.24,1a18.86,18.86,0,0,1-2.64-.16Zm2.42,4.13h.8c1.3,0,2-.53,2-1.33s-.62-1.25-1.73-1.25a6.29,6.29,0,0,0-1,.06Zm0,4.79a7.65,7.65,0,0,0,.94,0c1.1,0,2.08-.43,2.08-1.57s-1-1.5-2.19-1.5h-.83Z"/><path d="M202.53,354.46a3.93,3.93,0,0,1-4.13,4.18,3.83,3.83,0,0,1-4-4,3.92,3.92,0,0,1,4.19-4.16A3.81,3.81,0,0,1,202.53,354.46Zm-5.67.08c0,1.34.56,2.35,1.6,2.35s1.55-.94,1.55-2.37c0-1.15-.45-2.34-1.55-2.34S196.86,353.39,196.86,354.54Z"/><path d="M206.75,348.52v2.11h1.75v1.79h-1.75v2.83c0,.94.24,1.38,1,1.38a3,3,0,0,0,.72-.06l0,1.84a5.12,5.12,0,0,1-1.57.21,2.6,2.6,0,0,1-1.84-.67,3.24,3.24,0,0,1-.67-2.32v-3.2h-1v-1.79h1v-1.46Z"/><path d="M215.73,355.69l-.77,2.77h-2.51l3.28-10.79h3.2l3.36,10.79h-2.64l-.83-2.77Zm2.74-1.82-.67-2.29c-.19-.64-.38-1.44-.54-2.08h0c-.16.64-.32,1.46-.5,2.08l-.64,2.29Z"/><path d="M223.54,353.26c0-1,0-1.89-.06-2.62h2.11l.11,1.09h0a3,3,0,0,1,2.61-1.26c1.71,0,3.25,1.49,3.25,4,0,2.85-1.81,4.19-3.55,4.19a2.43,2.43,0,0,1-2-.9h0v3.89h-2.43ZM226,355.1a2.58,2.58,0,0,0,0,.51,1.47,1.47,0,0,0,1.42,1.15c1.06,0,1.68-.88,1.68-2.21s-.56-2.19-1.65-2.19a1.53,1.53,0,0,0-1.46,1.23,1.93,1.93,0,0,0,0,.43Z"/><path d="M233.1,353.26c0-1,0-1.89-.06-2.62h2.11l.11,1.09h0a3,3,0,0,1,2.61-1.26c1.71,0,3.25,1.49,3.25,4,0,2.85-1.81,4.19-3.55,4.19a2.43,2.43,0,0,1-2-.9h0v3.89H233.1Zm2.43,1.84a2.58,2.58,0,0,0,0,.51,1.47,1.47,0,0,0,1.42,1.15c1.06,0,1.68-.88,1.68-2.21s-.56-2.19-1.65-2.19a1.53,1.53,0,0,0-1.46,1.23,1.93,1.93,0,0,0,0,.43Z"/><path d="M20,347.67v6.19c0,1.87.72,2.82,2,2.82s2-.9,2-2.82v-6.19H26.4v6c0,3.33-1.68,4.91-4.5,4.91s-4.31-1.52-4.31-4.95v-6Z"/><path d="M28.2,356.35a4.75,4.75,0,0,0,2.1.58c.74,0,1-.24,1-.64s-.24-.61-1.14-.91c-1.63-.54-2.26-1.42-2.24-2.35,0-1.47,1.25-2.58,3.18-2.58a5.14,5.14,0,0,1,2.19.46l-.42,1.68a3.91,3.91,0,0,0-1.7-.45c-.59,0-.93.24-.93.62s.3.58,1.26.91c1.49.51,2.1,1.28,2.11,2.42,0,1.47-1.14,2.54-3.38,2.54a5.54,5.54,0,0,1-2.53-.56Z"/><path d="M37,355.32c.06,1,1.07,1.49,2.21,1.49a6.46,6.46,0,0,0,2.16-.34l.32,1.65a7.4,7.4,0,0,1-2.83.5c-2.66,0-4.18-1.54-4.18-4a3.92,3.92,0,0,1,4-4.18c2.53,0,3.49,2,3.49,3.91a5.86,5.86,0,0,1-.08,1Zm2.86-1.66a1.41,1.41,0,0,0-1.38-1.58,1.61,1.61,0,0,0-1.5,1.58Z"/><path d="M43.61,353.21c0-1.15,0-1.91-.06-2.58h2.08l.1,1.44h.06a2.28,2.28,0,0,1,2.11-1.63,2.47,2.47,0,0,1,.51,0v2.29a3.71,3.71,0,0,0-.66-.06,1.56,1.56,0,0,0-1.67,1.23,2.93,2.93,0,0,0,0,.54v4H43.61Z"/><path d="M292.86,358.46l-2.56-10.79h2.61l.82,4.43c.24,1.3.46,2.69.64,3.78h0c.18-1.17.43-2.46.7-3.81l.91-4.4h2.59l.86,4.55c.24,1.26.42,2.42.58,3.62h0c.16-1.2.4-2.46.62-3.76l.88-4.4h2.48l-2.79,10.79h-2.64l-.91-4.64c-.21-1.09-.38-2.1-.51-3.33h0c-.19,1.22-.37,2.24-.62,3.33l-1,4.64Z"/><path d="M312.3,354.46a3.93,3.93,0,0,1-4.13,4.18,3.83,3.83,0,0,1-4-4,3.92,3.92,0,0,1,4.19-4.16A3.81,3.81,0,0,1,312.3,354.46Zm-5.67.08c0,1.34.56,2.35,1.6,2.35s1.55-.94,1.55-2.37c0-1.15-.45-2.34-1.55-2.34S306.64,353.39,306.64,354.54Z"/><path d="M313.8,347.1h2.43v11.36H313.8Z"/><path d="M318.49,358.46v-6h-1v-1.79h1v-.3a3.62,3.62,0,0,1,1-2.62,3.2,3.2,0,0,1,2.18-.79,5.33,5.33,0,0,1,1.28.16l-.1,1.87a2.62,2.62,0,0,0-.78-.11c-.8,0-1.14.62-1.14,1.39v.4h1.57v1.79h-1.55v6Z"/><path d="M323.66,353.21c0-1.15,0-1.91-.06-2.58h2.08l.1,1.44h.06a2.28,2.28,0,0,1,2.11-1.63,2.47,2.47,0,0,1,.51,0v2.29a3.71,3.71,0,0,0-.66-.06,1.56,1.56,0,0,0-1.67,1.23,2.93,2.93,0,0,0,0,.54v4h-2.43Z"/><path d="M336.08,356.57a10.18,10.18,0,0,0,.13,1.89H334l-.14-.78h0a2.82,2.82,0,0,1-2.24,1,2.4,2.4,0,0,1-2.53-2.4c0-2,1.83-3,4.59-3v-.1c0-.43-.22-1-1.42-1a4.4,4.4,0,0,0-2.16.59l-.45-1.57a6.43,6.43,0,0,1,3-.7c2.61,0,3.43,1.54,3.43,3.39Zm-2.35-1.81c-1.28,0-2.27.3-2.27,1.23a.87.87,0,0,0,1,.93,1.34,1.34,0,0,0,1.26-.9,1.74,1.74,0,0,0,0-.42Z"/><path d="M338,353.13c0-1,0-1.79-.06-2.5H340l.1,1.06h0a2.71,2.71,0,0,1,2.37-1.25,2.21,2.21,0,0,1,2.14,1.34h0a3.41,3.41,0,0,1,1-1,3,3,0,0,1,1.49-.38c1.5,0,2.64,1.06,2.64,3.41v4.61h-2.37V354.2c0-1.14-.37-1.79-1.15-1.79a1.21,1.21,0,0,0-1.14.85,2.57,2.57,0,0,0-.08.62v4.58h-2.37v-4.4c0-1-.35-1.65-1.14-1.65a1.25,1.25,0,0,0-1.14.86,1.65,1.65,0,0,0-.1.63v4.56H338Z"/><path d="M357.6,355.69l-.77,2.77h-2.51l3.28-10.79h3.2l3.36,10.79h-2.64l-.83-2.77Zm2.74-1.82-.67-2.29c-.19-.64-.38-1.44-.54-2.08h0c-.16.64-.32,1.46-.5,2.08l-.64,2.29Z"/><path d="M365.41,347.1h2.43v11.36h-2.43Z"/><path d="M369.81,353.26c0-1,0-1.89-.06-2.62h2.11l.11,1.09h0a3,3,0,0,1,2.61-1.26c1.71,0,3.25,1.49,3.25,4,0,2.85-1.81,4.19-3.55,4.19a2.43,2.43,0,0,1-2-.9h0v3.89h-2.43Zm2.43,1.84a2.58,2.58,0,0,0,0,.51,1.47,1.47,0,0,0,1.42,1.15c1.06,0,1.68-.88,1.68-2.21s-.56-2.19-1.65-2.19a1.53,1.53,0,0,0-1.46,1.23,1.93,1.93,0,0,0,0,.43Z"/><path d="M379.38,347.1h2.43v4.48h0a2.62,2.62,0,0,1,1-.82,2.78,2.78,0,0,1,1.26-.3c1.55,0,2.74,1.07,2.74,3.44v4.56h-2.43v-4.31c0-1-.35-1.73-1.26-1.73a1.29,1.29,0,0,0-1.22.86,1.42,1.42,0,0,0-.08.53v4.64h-2.43Z"/><path d="M395.27,356.57a10.18,10.18,0,0,0,.13,1.89H393.2l-.14-.78h0a2.82,2.82,0,0,1-2.24,1,2.4,2.4,0,0,1-2.53-2.4c0-2,1.83-3,4.59-3v-.1c0-.43-.22-1-1.42-1a4.4,4.4,0,0,0-2.16.59l-.45-1.57a6.43,6.43,0,0,1,3-.7c2.61,0,3.43,1.54,3.43,3.39Zm-2.35-1.81c-1.28,0-2.27.3-2.27,1.23a.87.87,0,0,0,1,.93,1.34,1.34,0,0,0,1.26-.9,1.74,1.74,0,0,0,0-.42Z"/><path class="cls-6" d="M375.27,316.22l-13.66,2.93L363,332.74l-12.78-5.46L343.14,339l-7.06-11.8-12.78,5.51,1.38-13.59L311,316.22,320.32,306,311,295.85l13.66-2.91-1.38-13.59,12.81,5.51,7-11.8,7.06,11.8L363,279.39l-1.49,13.55,13.66,2.91-9.33,10.21,9.4,10.16"/><path class="cls-7" d="M343.14,293.64l-7.06-8.79-12.78-5.51,7.65,10.05,12.19,4.24"/><path class="cls-8" d="M324.67,292.94,311,295.85,320.32,306l10.93-3.93-6.56-9.18"/><path class="cls-9" d="M330.9,289.4l-7.61-10.05,1.38,13.59,6.6,9.14-.35-12.68"/><path class="cls-10" d="M350.2,284.86l-7.06-11.8-7.06,11.8,7.06,8.79,7.06-8.79"/><path class="cls-11" d="M366,306.06l9.31-10.21-13.66-2.91-6.6,9.14,10.93,4"/><path class="cls-7" d="M355,302.08l6.6-9.14,1.4-13.59-7.65,10.05-.44,12.68"/><path class="cls-12" d="M355.38,289.4,363,279.35l-12.83,5.51-7.06,8.79,12.24-4.24"/><path class="cls-13" d="M362.92,312.13l12.35,4.09L366,306.06l-10.93-4,7.87,10.05"/><path class="cls-14" d="M331.27,302.08,320.35,306,311,316.22l12.35-4.06,7.91-10.05"/><path class="cls-15" d="M343.14,326.16v12.89l7.06-11.8.28-11.54-7.34,10.45"/><path class="cls-16" d="M362.92,312.13l-12.46,3.58,11.15,3.43,13.66-2.93-12.35-4.09"/><path class="cls-14" d="M350.2,327.23,363,332.74l-1.38-13.59-11.15-3.43-.26,11.52"/><path class="cls-17" d="M323.36,312.13,311,316.22l13.66,2.93,11.15-3.43-12.46-3.58"/><path class="cls-18" d="M335.8,315.72l.28,11.52,7.06,11.8V326.14l-7.34-10.42"/><path class="cls-15" d="M324.67,319.15l-1.38,13.59,12.78-5.51-.28-11.52-11.15,3.43"/><path class="cls-19" d="M355,302.08l.35-12.68-12.24,4.24V306l11.8-3.93"/><path class="cls-20" d="M343.14,293.64,330.9,289.4l.37,12.68L343.14,306V293.62"/><path class="cls-10" d="M335.8,315.72l7.34,10.45,7.34-10.45L343.14,306l-7.34,9.73"/><path class="cls-21" d="M343.14,306l7.34,9.73,12.46-3.58L355,302.08,343.14,306"/><path class="cls-22" d="M331.27,302.08l-7.91,10.05,12.46,3.58,7.32-9.73-11.87-3.93"/><path class="cls-23" d="M342.7,305.73h3.06v3.06H342.7Zm-.87,0v3.06h-5.25v3.72l-5.46-5.25,5.46-5.25v3.72h5.25"/><path class="cls-23" d="M341.83,304.2h-3.06v-3.06h3.06Zm.87,0v-3.06h5.25v-3.72l5.46,5.25-5.46,5.25V304.2H342.7"/><rect class="cls-5" x="433.14" y="139.69" width="150" height="100" rx="13" ry="13"/><rect class="cls-5" x="268.14" y="139.69" width="150" height="100" rx="13" ry="13"/><rect class="cls-24" x="268.14" y="269.65" width="150" height="100" rx="13" ry="13"/><rect class="cls-24" x="103.14" y="269.65" width="150" height="100" rx="13" ry="13"/><path d="M135.74,189.62h-2.91v-2h8.29v2h-2.95v8.74h-2.43Z"/><path d="M142.91,195.22c.06,1,1.07,1.49,2.21,1.49a6.46,6.46,0,0,0,2.16-.34l.32,1.65a7.4,7.4,0,0,1-2.83.5c-2.66,0-4.18-1.54-4.18-4a3.92,3.92,0,0,1,4-4.18c2.53,0,3.49,2,3.49,3.91a5.86,5.86,0,0,1-.08,1Zm2.86-1.66A1.41,1.41,0,0,0,144.4,192a1.61,1.61,0,0,0-1.5,1.58Z"/><path d="M149.49,187h2.43v11.36h-2.43Z"/><path d="M155.76,195.22c.06,1,1.07,1.49,2.21,1.49a6.46,6.46,0,0,0,2.16-.34l.32,1.65a7.4,7.4,0,0,1-2.83.5c-2.66,0-4.18-1.54-4.18-4a3.92,3.92,0,0,1,4-4.18c2.53,0,3.49,2,3.49,3.91a5.86,5.86,0,0,1-.08,1Zm2.86-1.66a1.41,1.41,0,0,0-1.38-1.58,1.61,1.61,0,0,0-1.5,1.58Z"/><path d="M169.75,197.22a4.45,4.45,0,0,1-1.2,3.52,4.76,4.76,0,0,1-3.17,1,6.26,6.26,0,0,1-2.82-.59l.48-1.86a4.76,4.76,0,0,0,2.27.59,1.86,1.86,0,0,0,2-2.06v-.5h0a2.53,2.53,0,0,1-2.11,1c-1.94,0-3.31-1.57-3.31-3.81,0-2.53,1.62-4.13,3.55-4.13a2.34,2.34,0,0,1,2.14,1.12h0l.08-.94h2.11c0,.51-.06,1.17-.06,2.34Zm-2.43-3.5a2.11,2.11,0,0,0,0-.45A1.33,1.33,0,0,0,166,192.2c-.9,0-1.6.8-1.6,2.22,0,1.17.58,2.08,1.58,2.08a1.33,1.33,0,0,0,1.3-1,2.22,2.22,0,0,0,.08-.66Z"/><path d="M171.7,193.11c0-1.15,0-1.91-.06-2.58h2.08l.1,1.44h.06a2.28,2.28,0,0,1,2.11-1.63,2.47,2.47,0,0,1,.51,0v2.29a3.71,3.71,0,0,0-.66-.06,1.56,1.56,0,0,0-1.67,1.23,2.93,2.93,0,0,0,0,.54v4H171.7Z"/><path d="M184.11,196.47a10.18,10.18,0,0,0,.13,1.89H182l-.14-.78h0a2.82,2.82,0,0,1-2.24,1,2.4,2.4,0,0,1-2.53-2.4c0-2,1.83-3,4.59-3V193c0-.43-.22-1-1.42-1a4.4,4.4,0,0,0-2.16.59l-.45-1.57a6.43,6.43,0,0,1,3-.7c2.61,0,3.43,1.54,3.43,3.39Zm-2.35-1.81c-1.28,0-2.27.3-2.27,1.23a.87.87,0,0,0,1,.93,1.34,1.34,0,0,0,1.26-.9,1.74,1.74,0,0,0,0-.42Z"/><path d="M186,193c0-1,0-1.79-.06-2.5H188l.1,1.06h0a2.71,2.71,0,0,1,2.37-1.25,2.21,2.21,0,0,1,2.14,1.34h0a3.41,3.41,0,0,1,1-1,3,3,0,0,1,1.49-.38c1.5,0,2.64,1.06,2.64,3.41v4.61h-2.37V194.1c0-1.14-.37-1.79-1.15-1.79a1.21,1.21,0,0,0-1.14.85,2.57,2.57,0,0,0-.08.62v4.58h-2.37V194c0-1-.35-1.65-1.14-1.65a1.25,1.25,0,0,0-1.14.86,1.65,1.65,0,0,0-.1.63v4.56H186Z"/><path d="M199.89,187.71a21.39,21.39,0,0,1,3.15-.22,6.05,6.05,0,0,1,3.2.61,2.34,2.34,0,0,1,1.28,2.13,2.45,2.45,0,0,1-1.78,2.29v0a2.68,2.68,0,0,1,2.14,2.64,2.88,2.88,0,0,1-1.12,2.3c-.78.62-2.1,1-4.24,1a18.86,18.86,0,0,1-2.64-.16Zm2.42,4.13h.8c1.3,0,2-.53,2-1.33s-.62-1.25-1.73-1.25a6.29,6.29,0,0,0-1,.06Zm0,4.79a7.65,7.65,0,0,0,.94,0c1.1,0,2.08-.43,2.08-1.57s-1-1.5-2.19-1.5h-.83Z"/><path d="M217.3,194.36a3.93,3.93,0,0,1-4.13,4.18,3.83,3.83,0,0,1-4-4,3.92,3.92,0,0,1,4.19-4.16A3.81,3.81,0,0,1,217.3,194.36Zm-5.67.08c0,1.34.56,2.35,1.6,2.35s1.55-.94,1.55-2.37c0-1.15-.45-2.34-1.55-2.34S211.63,193.28,211.63,194.44Z"/><path d="M221.52,188.42v2.11h1.75v1.79h-1.75v2.83c0,.94.24,1.38,1,1.38a3,3,0,0,0,.72-.06l0,1.84a5.12,5.12,0,0,1-1.57.21,2.6,2.6,0,0,1-1.84-.67,3.24,3.24,0,0,1-.67-2.32v-3.2h-1v-1.79h1v-1.46Z"/><path d="M294.48,198.36l-2.56-10.79h2.61l.82,4.43c.24,1.3.46,2.69.64,3.78h0c.18-1.17.43-2.46.71-3.81l.91-4.4h2.59l.86,4.55c.24,1.26.42,2.42.58,3.62h0c.16-1.2.4-2.46.62-3.76l.88-4.4h2.48l-2.79,10.79h-2.64l-.91-4.64c-.21-1.09-.38-2.1-.51-3.33h0c-.19,1.22-.37,2.24-.62,3.33l-1,4.64Z"/><path d="M313.92,194.36a3.93,3.93,0,0,1-4.13,4.18,3.83,3.83,0,0,1-4.05-4,3.92,3.92,0,0,1,4.19-4.16A3.81,3.81,0,0,1,313.92,194.36Zm-5.67.08c0,1.34.56,2.35,1.6,2.35s1.55-.94,1.55-2.37c0-1.15-.45-2.34-1.55-2.34S308.25,193.28,308.25,194.44Z"/><path d="M315.42,187h2.43v11.36h-2.43Z"/><path d="M320.11,198.36v-6h-1v-1.79h1v-.3a3.62,3.62,0,0,1,1-2.62,3.2,3.2,0,0,1,2.18-.79,5.33,5.33,0,0,1,1.28.16l-.1,1.87a2.63,2.63,0,0,0-.79-.11c-.8,0-1.14.62-1.14,1.39v.4h1.57v1.79h-1.55v6Z"/><path d="M325.28,193.11c0-1.15,0-1.91-.06-2.58h2.08l.1,1.44h.06a2.28,2.28,0,0,1,2.11-1.63,2.46,2.46,0,0,1,.51,0v2.29a3.69,3.69,0,0,0-.66-.06,1.56,1.56,0,0,0-1.66,1.23,2.93,2.93,0,0,0,0,.54v4h-2.43Z"/><path d="M337.7,196.47a10.16,10.16,0,0,0,.13,1.89h-2.19l-.14-.78h0a2.82,2.82,0,0,1-2.24,1,2.4,2.4,0,0,1-2.53-2.4c0-2,1.83-3,4.59-3V193c0-.43-.22-1-1.42-1a4.39,4.39,0,0,0-2.16.59l-.45-1.57a6.44,6.44,0,0,1,3-.7c2.61,0,3.43,1.54,3.43,3.39Zm-2.35-1.81c-1.28,0-2.27.3-2.27,1.23a.87.87,0,0,0,1,.93,1.34,1.34,0,0,0,1.27-.9,1.79,1.79,0,0,0,0-.42Z"/><path d="M339.63,193c0-1,0-1.79-.06-2.5h2.07l.1,1.06h0a2.71,2.71,0,0,1,2.37-1.25,2.21,2.21,0,0,1,2.14,1.34h0a3.42,3.42,0,0,1,1-1,3,3,0,0,1,1.49-.38c1.51,0,2.64,1.06,2.64,3.41v4.61h-2.37V194.1c0-1.14-.37-1.79-1.15-1.79a1.21,1.21,0,0,0-1.14.85,2.52,2.52,0,0,0-.08.62v4.58h-2.37V194c0-1-.35-1.65-1.14-1.65a1.25,1.25,0,0,0-1.14.86,1.65,1.65,0,0,0-.1.63v4.56h-2.37Z"/><path d="M356,195.59l-.77,2.77H352.7L356,187.57h3.2l3.36,10.79H359.9l-.83-2.77Zm2.74-1.82-.67-2.29c-.19-.64-.38-1.44-.54-2.08h0c-.16.64-.32,1.46-.5,2.08l-.64,2.29Z"/><path d="M363.79,187h2.43v11.36h-2.43Z"/><path d="M368.19,193.16c0-1,0-1.89-.06-2.62h2.11l.11,1.09h0a3,3,0,0,1,2.61-1.26c1.71,0,3.25,1.49,3.25,4,0,2.85-1.81,4.19-3.55,4.19a2.43,2.43,0,0,1-2-.9h0v3.89h-2.43Zm2.43,1.84a2.58,2.58,0,0,0,0,.51,1.47,1.47,0,0,0,1.43,1.15c1.06,0,1.68-.88,1.68-2.21s-.56-2.19-1.65-2.19a1.53,1.53,0,0,0-1.46,1.23,1.93,1.93,0,0,0,0,.43Z"/><path d="M377.76,187h2.43v4.48h0a2.62,2.62,0,0,1,1-.82,2.77,2.77,0,0,1,1.26-.3c1.55,0,2.74,1.07,2.74,3.44v4.56h-2.43v-4.31c0-1-.35-1.73-1.26-1.73a1.29,1.29,0,0,0-1.22.86,1.4,1.4,0,0,0-.08.53v4.64h-2.43Z"/><path d="M393.65,196.47a10.16,10.16,0,0,0,.13,1.89h-2.19l-.14-.78h0a2.82,2.82,0,0,1-2.24,1,2.4,2.4,0,0,1-2.53-2.4c0-2,1.83-3,4.59-3V193c0-.43-.22-1-1.42-1a4.39,4.39,0,0,0-2.16.59l-.45-1.57a6.44,6.44,0,0,1,3-.7c2.61,0,3.43,1.54,3.43,3.39Zm-2.35-1.81c-1.28,0-2.27.3-2.27,1.23a.87.87,0,0,0,1,.93,1.34,1.34,0,0,0,1.27-.9,1.79,1.79,0,0,0,0-.42Z"/><path d="M157.39,224.88a3.19,3.19,0,0,0,1.76.53c1.21,0,2-.68,2-1.68s-.47-1.44-1.64-1.88-2.08-1.14-2.08-2.23a2.13,2.13,0,0,1,2.35-2.05,3.14,3.14,0,0,1,1.61.37l-.22.49a2.58,2.58,0,0,0-1.43-.38,1.53,1.53,0,0,0-1.75,1.47c0,.89.52,1.34,1.68,1.8,1.33.54,2,1.15,2,2.35a2.26,2.26,0,0,1-2.57,2.22,3.63,3.63,0,0,1-1.93-.54Z"/><path d="M163.36,222.83c0,1.83,1,2.57,2.19,2.57a3.36,3.36,0,0,0,1.6-.32l.14.44a3.79,3.79,0,0,1-1.81.37,2.64,2.64,0,0,1-2.69-2.89c0-1.92,1.1-3.12,2.59-3.12a2.35,2.35,0,0,1,2.24,2.6,1.45,1.45,0,0,1,0,.35Zm3.67-.46a1.76,1.76,0,0,0-1.71-2,2,2,0,0,0-1.92,2Z"/><path d="M169.08,221.74c0-.58,0-1.16,0-1.73h.53l0,1.16h0a1.77,1.77,0,0,1,1.63-1.29l.24,0v.54h-.28c-.79,0-1.36.68-1.51,1.61a2.68,2.68,0,0,0,0,.55v3.18h-.58Z"/><path d="M172.82,220l1.34,3.57c.23.56.41,1,.56,1.54h0c.16-.48.37-1,.59-1.54L176.7,220h.6L175,225.77h-.5L172.2,220Z"/><path d="M178.68,218.86a.46.46,0,0,1-.44-.49.49.49,0,0,1,.47-.5.47.47,0,0,1,.46.5.47.47,0,0,1-.47.49Zm-.26,6.91V220H179v5.76Z"/><path d="M184.9,225.52a3.92,3.92,0,0,1-1.69.37,2.71,2.71,0,0,1-2.76-2.94,2.89,2.89,0,0,1,3-3.07,3,3,0,0,1,1.51.36l-.2.47a2.58,2.58,0,0,0-1.36-.34A2.31,2.31,0,0,0,181,222.9a2.27,2.27,0,0,0,2.28,2.49,3.18,3.18,0,0,0,1.44-.34Z"/><path d="M186.36,222.83c0,1.83,1,2.57,2.19,2.57a3.36,3.36,0,0,0,1.6-.32l.14.44a3.79,3.79,0,0,1-1.81.37A2.64,2.64,0,0,1,185.8,223c0-1.92,1.1-3.12,2.59-3.12a2.35,2.35,0,0,1,2.24,2.6,1.45,1.45,0,0,1,0,.35Zm3.67-.46a1.76,1.76,0,0,0-1.71-2,2,2,0,0,0-1.92,2Z"/><path d="M196.58,218.56h0l-1.27.74-.14-.46,1.47-.88h.53v7.8h-.56Z"/><path d="M322.39,224.88a3.19,3.19,0,0,0,1.76.53c1.21,0,2-.68,2-1.68s-.47-1.44-1.64-1.88-2.08-1.14-2.08-2.23a2.13,2.13,0,0,1,2.35-2.05,3.14,3.14,0,0,1,1.61.37l-.22.49a2.58,2.58,0,0,0-1.43-.38,1.53,1.53,0,0,0-1.75,1.47c0,.89.52,1.34,1.68,1.8,1.33.54,2,1.15,2,2.35a2.26,2.26,0,0,1-2.57,2.22,3.63,3.63,0,0,1-1.93-.54Z"/><path d="M328.36,222.83c0,1.83,1,2.57,2.19,2.57a3.36,3.36,0,0,0,1.6-.32l.14.44a3.79,3.79,0,0,1-1.81.37,2.64,2.64,0,0,1-2.69-2.89c0-1.92,1.1-3.12,2.59-3.12a2.35,2.35,0,0,1,2.24,2.6,1.45,1.45,0,0,1,0,.35Zm3.67-.46a1.76,1.76,0,0,0-1.71-2,2,2,0,0,0-1.92,2Z"/><path d="M334.08,221.74c0-.58,0-1.16,0-1.73h.53l0,1.16h0a1.77,1.77,0,0,1,1.63-1.29l.24,0v.54h-.28c-.79,0-1.36.68-1.51,1.61a2.68,2.68,0,0,0,0,.55v3.18h-.58Z"/><path d="M337.81,220l1.34,3.57c.23.56.41,1,.56,1.54h0c.16-.48.37-1,.59-1.54L341.7,220h.6L340,225.77h-.5L337.2,220Z"/><path d="M343.68,218.86a.46.46,0,0,1-.44-.49.49.49,0,0,1,.47-.5.47.47,0,0,1,.46.5.47.47,0,0,1-.47.49Zm-.26,6.91V220H344v5.76Z"/><path d="M349.89,225.52a3.92,3.92,0,0,1-1.69.37,2.71,2.71,0,0,1-2.76-2.94,2.89,2.89,0,0,1,3-3.07,3,3,0,0,1,1.51.36l-.2.47a2.58,2.58,0,0,0-1.36-.34A2.31,2.31,0,0,0,346,222.9a2.27,2.27,0,0,0,2.28,2.49,3.18,3.18,0,0,0,1.44-.34Z"/><path d="M351.36,222.83c0,1.83,1,2.57,2.19,2.57a3.36,3.36,0,0,0,1.6-.32l.14.44a3.79,3.79,0,0,1-1.81.37A2.64,2.64,0,0,1,350.8,223c0-1.92,1.1-3.12,2.59-3.12a2.35,2.35,0,0,1,2.24,2.6,1.45,1.45,0,0,1,0,.35Zm3.67-.46a1.76,1.76,0,0,0-1.71-2,2,2,0,0,0-1.92,2Z"/><path d="M359.3,225.77v-.35l.72-.74c2.17-2.12,3.12-3.23,3.12-4.57a1.56,1.56,0,0,0-1.69-1.76,2.58,2.58,0,0,0-1.66.67l-.23-.4a3,3,0,0,1,2-.78,2,2,0,0,1,2.17,2.15c0,1.54-1.12,2.77-3.07,4.7l-.55.58v0h3.84v.48Z"/><path d="M487.39,224.88a3.19,3.19,0,0,0,1.76.53c1.21,0,2-.68,2-1.68s-.47-1.44-1.64-1.88-2.08-1.14-2.08-2.23a2.13,2.13,0,0,1,2.35-2.05,3.14,3.14,0,0,1,1.61.37l-.22.49a2.58,2.58,0,0,0-1.43-.38,1.53,1.53,0,0,0-1.75,1.47c0,.89.52,1.34,1.68,1.8,1.33.54,2,1.15,2,2.35a2.26,2.26,0,0,1-2.57,2.22,3.63,3.63,0,0,1-1.93-.54Z"/><path d="M493.36,222.83c0,1.83,1,2.57,2.19,2.57a3.36,3.36,0,0,0,1.6-.32l.14.44a3.79,3.79,0,0,1-1.81.37,2.64,2.64,0,0,1-2.69-2.89c0-1.92,1.1-3.12,2.59-3.12a2.35,2.35,0,0,1,2.24,2.6,1.45,1.45,0,0,1,0,.35Zm3.67-.46a1.76,1.76,0,0,0-1.71-2,2,2,0,0,0-1.92,2Z"/><path d="M499.08,221.74c0-.58,0-1.16,0-1.73h.53l0,1.16h0a1.77,1.77,0,0,1,1.63-1.29l.24,0v.54h-.28c-.79,0-1.36.68-1.51,1.61a2.68,2.68,0,0,0,0,.55v3.18h-.58Z"/><path d="M502.81,220l1.34,3.57c.23.56.41,1,.56,1.54h0c.16-.48.37-1,.59-1.54L506.7,220h.6L505,225.77h-.5L502.2,220Z"/><path d="M508.68,218.86a.46.46,0,0,1-.44-.49.49.49,0,0,1,.47-.5.47.47,0,0,1,.46.5.47.47,0,0,1-.47.49Zm-.26,6.91V220H509v5.76Z"/><path d="M514.89,225.52a3.92,3.92,0,0,1-1.69.37,2.71,2.71,0,0,1-2.76-2.94,2.89,2.89,0,0,1,3-3.07,3,3,0,0,1,1.51.36l-.2.47a2.58,2.58,0,0,0-1.36-.34A2.31,2.31,0,0,0,511,222.9a2.27,2.27,0,0,0,2.28,2.49,3.18,3.18,0,0,0,1.44-.34Z"/><path d="M516.36,222.83c0,1.83,1,2.57,2.19,2.57a3.36,3.36,0,0,0,1.6-.32l.14.44a3.79,3.79,0,0,1-1.81.37A2.64,2.64,0,0,1,515.8,223c0-1.92,1.1-3.12,2.59-3.12a2.35,2.35,0,0,1,2.24,2.6,1.45,1.45,0,0,1,0,.35Zm3.67-.46a1.76,1.76,0,0,0-1.71-2,2,2,0,0,0-1.92,2Z"/><path d="M524.52,224.92a3.09,3.09,0,0,0,1.68.49,1.74,1.74,0,0,0,2-1.8c0-1.31-1.14-1.83-2.29-1.83h-.49v-.48h.52c.86,0,2-.49,2-1.57a1.33,1.33,0,0,0-1.51-1.39,2.63,2.63,0,0,0-1.51.54l-.23-.42a3.1,3.1,0,0,1,1.81-.61,1.8,1.8,0,0,1,2,1.81A2,2,0,0,1,527,221.5v0a2.08,2.08,0,0,1,1.76,2.06,2.36,2.36,0,0,1-2.64,2.31,3.3,3.3,0,0,1-1.83-.53Z"/><path d="M471.55,187.57v4.15h4v-4.15H478v10.79h-2.43v-4.51h-4v4.51h-2.43V187.57Z"/><path d="M481.87,195.22c.06,1,1.07,1.49,2.21,1.49a6.46,6.46,0,0,0,2.16-.34l.32,1.65a7.4,7.4,0,0,1-2.83.5c-2.66,0-4.18-1.54-4.18-4a3.92,3.92,0,0,1,4-4.18c2.53,0,3.49,2,3.49,3.91a5.86,5.86,0,0,1-.08,1Zm2.86-1.66a1.41,1.41,0,0,0-1.38-1.58,1.61,1.61,0,0,0-1.5,1.58Z"/><path d="M488.45,187h2.43v11.36h-2.43Z"/><path d="M492.85,187h2.43v11.36h-2.43Z"/><path d="M505,194.36a3.93,3.93,0,0,1-4.13,4.18,3.83,3.83,0,0,1-4-4,3.92,3.92,0,0,1,4.19-4.16A3.81,3.81,0,0,1,505,194.36Zm-5.67.08c0,1.34.56,2.35,1.6,2.35s1.55-.94,1.55-2.37c0-1.15-.45-2.34-1.55-2.34S499.31,193.28,499.31,194.44Z"/><path d="M508.3,198.36l-2.56-10.79h2.61l.82,4.43c.24,1.3.46,2.69.64,3.78h0c.18-1.17.43-2.46.7-3.81l.91-4.4H514l.86,4.55c.24,1.26.42,2.42.58,3.62h0c.16-1.2.4-2.46.62-3.76l.88-4.4h2.48l-2.79,10.79h-2.64l-.91-4.64c-.21-1.09-.38-2.1-.51-3.33h0c-.19,1.22-.37,2.24-.62,3.33l-1,4.64Z"/><path d="M527.75,194.36a3.93,3.93,0,0,1-4.13,4.18,3.83,3.83,0,0,1-4-4,3.92,3.92,0,0,1,4.19-4.16A3.81,3.81,0,0,1,527.75,194.36Zm-5.67.08c0,1.34.56,2.35,1.6,2.35s1.55-.94,1.55-2.37c0-1.15-.45-2.34-1.55-2.34S522.08,193.28,522.08,194.44Z"/><path d="M529.25,193.11c0-1.15,0-1.91-.06-2.58h2.08l.1,1.44h.06a2.28,2.28,0,0,1,2.11-1.63,2.47,2.47,0,0,1,.51,0v2.29a3.71,3.71,0,0,0-.66-.06,1.56,1.56,0,0,0-1.67,1.23,2.93,2.93,0,0,0,0,.54v4h-2.43Z"/><path d="M535.28,187h2.43v11.36h-2.43Z"/><path d="M547.27,187v9c0,.88,0,1.81.06,2.34h-2.16l-.1-1.14h0a2.73,2.73,0,0,1-2.45,1.31c-1.86,0-3.35-1.58-3.35-4,0-2.64,1.63-4.18,3.5-4.18a2.41,2.41,0,0,1,2.07.88h0V187Zm-2.43,6.85a2.17,2.17,0,0,0,0-.45,1.46,1.46,0,0,0-1.42-1.18c-1.12,0-1.68,1-1.68,2.22s.66,2.16,1.67,2.16a1.44,1.44,0,0,0,1.42-1.17,3.16,3.16,0,0,0,0-.56Z"/><path class="cls-25" d="M268.14,109.69h0a15,15,0,0,1-15,15h-60a15,15,0,0,0-15,15h0"/><path class="cls-25" d="M418.14,109.69h0a15,15,0,0,0,15,15h60a15,15,0,0,1,15,15h0"/><line class="cls-25" x1="343.14" y1="139.69" x2="343.14" y2="109.69"/><line class="cls-25" x1="178.14" y1="269.69" x2="178.14" y2="239.69"/><line class="cls-25" x1="343.14" y1="269.69" x2="343.14" y2="239.69"/><line class="cls-25" x1="138.74" y1="305.91" x2="54.5" y2="305.91"/><path class="cls-26" d="M32.63,277.21A11.09,11.09,0,0,0,21.54,288.3c0,6.12,5,15,11.09,15s11.09-8.89,11.09-15A11.09,11.09,0,0,0,32.63,277.21Z"/><polyline class="cls-25" points="348.14 264.69 343.14 269.69 338.14 264.69"/><polyline class="cls-25" points="183.14 264.69 178.14 269.69 173.14 264.69"/><polyline class="cls-25" points="348.14 134.69 343.14 139.69 338.14 134.69"/><polyline class="cls-25" points="513.14 134.69 508.14 139.69 503.14 134.69"/><polyline class="cls-25" points="183.14 134.69 178.14 139.69 173.14 134.69"/><polyline class="cls-25" points="59.5 310.9 54.5 305.9 59.5 300.9"/><path class="cls-26" d="M43.73,300.4c-2.64,3.93-6.48,6.91-11.11,6.91s-8.46-3-11.11-6.91c-4.17,2-6.85,5.17-6.85,8.7,0,6.12,8,22.86,18,22.86s18-16.74,18-22.86C50.58,305.57,47.9,302.43,43.73,300.4Z"/></g></svg>