<svg version="1.1" xmlns="http://www.w3.org/2000/svg" xmlns:xlink="http://www.w3.org/1999/xlink" width="1186" height="532.1410161513777"><style xmlns="http://www.w3.org/1999/xhtml"></style><defs/><g transform="translate(0,0)"><g><rect fill="#FFFFFF" stroke="none" x="0" y="0" width="1186" height="532.1410161513777"/></g><g transform="translate(0,0) matrix(1,0,0,1,50,91.75)"><g><g transform="translate(0,0) scale(1.8,0.75)"><g><path fill="none" stroke="none" d="M 10 0 L 90 0 Q 100 0 100 10 L 100 90 Q 100 100 90 100 L 10 100 Q 0 100 0 90 L 0 10 Q 0 0 10 0 Z"/><g transform="scale(0.5555555555555556,1.3333333333333333)"><path fill="#ffe599" stroke="none" d="M 10 0 L 170 0 Q 180 0 180 10 L 180 65 Q 180 75 170 75 L 10 75 Q 0 75 0 65 L 0 10 Q 0 0 10 0 Z"/><path fill="none" stroke="rgb(0,0,0)" d="M 10 0 M 10 0 L 170 0 Q 180 0 180 10 L 180 65 Q 180 75 170 75 L 10 75 Q 0 75 0 65 L 0 10 Q 0 0 10 0 Z" stroke-opacity="0" stroke-miterlimit="10" stroke-width="0"/></g></g></g></g></g><g transform="matrix(1,0,0,1,62,115)"><g transform="translate(150,42) matrix(1,0,0,1,0,0) translate(-150,-42)"><g><rect fill="rgb(0,0,0)" stroke="none" x="0" y="0" width="158" height="28" fill-opacity="0"/></g></g><g transform="translate(150,42) matrix(1,0,0,1,0,0) translate(-150,-42)"><g><rect fill="rgb(0,0,0)" stroke="none" x="0" y="0" width="158" height="14" fill-opacity="0"/></g></g><g transform="translate(150,42) matrix(1,0,0,1,0,0) translate(-150,-42)"><g><rect fill="rgb(0,0,0)" stroke="none" x="43" y="0" width="72" height="14" fill-opacity="0"/></g></g><g transform="translate(150,42) matrix(1,0,0,1,0,0) translate(-150,-42)"><g><rect fill="rgb(0,0,0)" stroke="none" x="43" y="0" width="72" height="14" fill-opacity="0"/></g><text fill="rgb(0, 0, 0)" stroke="none" font-family="Arial" font-size="12px" font-style="normal" font-weight="bold" text-decoration="" line-height="14px" x="43" y="12">Lagom</text><text fill="rgb(0, 0, 0)" stroke="none" font-family="Arial" font-size="12px" font-style="normal" font-weight="bold" text-decoration="" line-height="14px" x="85" y="12">Kube</text></g><g transform="translate(150,42) matrix(1,0,0,1,0,0) translate(-150,-42)"><g><rect fill="rgb(0,0,0)" stroke="none" x="0" y="14" width="158" height="14" fill-opacity="0"/></g></g><g transform="translate(150,42) matrix(1,0,0,1,0,0) translate(-150,-42)"><g><rect fill="rgb(0,0,0)" stroke="none" x="32" y="14" width="94" height="14" fill-opacity="0"/></g></g><g transform="translate(150,42) matrix(1,0,0,1,0,0) translate(-150,-42)"><g><rect fill="rgb(0,0,0)" stroke="none" x="32" y="14" width="94" height="14" fill-opacity="0"/></g><text fill="rgb(0, 0, 0)" stroke="none" font-family="Arial" font-size="12px" font-style="normal" font-weight="bold" text-decoration="" line-height="14px" x="32" y="26">Service</text><text fill="rgb(0, 0, 0)" stroke="none" font-family="Arial" font-size="12px" font-style="normal" font-weight="bold" text-decoration="" line-height="14px" x="78" y="26">Registry</text></g></g><g transform="translate(0,0) matrix(1,0,0,1,50,181.75)"><g><g transform="translate(0,0) scale(1.8,0.75)"><g><path fill="none" stroke="none" d="M 10 0 L 90 0 Q 100 0 100 10 L 100 90 Q 100 100 90 100 L 10 100 Q 0 100 0 90 L 0 10 Q 0 0 10 0 Z"/><g transform="scale(0.5555555555555556,1.3333333333333333)"><path fill="#ffe599" stroke="none" d="M 10 0 L 170 0 Q 180 0 180 10 L 180 65 Q 180 75 170 75 L 10 75 Q 0 75 0 65 L 0 10 Q 0 0 10 0 Z"/><path fill="none" stroke="rgb(0,0,0)" d="M 10 0 M 10 0 L 170 0 Q 180 0 180 10 L 180 65 Q 180 75 170 75 L 10 75 Q 0 75 0 65 L 0 10 Q 0 0 10 0 Z" stroke-opacity="0" stroke-miterlimit="10" stroke-width="0"/></g></g></g></g></g><g transform="matrix(1,0,0,1,62,205)"><g transform="translate(30,0) matrix(1,0,0,1,0,0) translate(-30,0)"><g><rect fill="rgb(0,0,0)" stroke="none" x="0" y="0" width="158" height="28" fill-opacity="0"/></g></g><g transform="translate(30,0) matrix(1,0,0,1,0,0) translate(-30,0)"><g><rect fill="rgb(0,0,0)" stroke="none" x="0" y="0" width="158" height="28" fill-opacity="0"/></g></g><g transform="translate(30,0) matrix(1,0,0,1,0,0) translate(-30,0)"><g><rect fill="rgb(0,0,0)" stroke="none" x="15" y="0" width="128" height="28" fill-opacity="0"/></g></g><g transform="translate(30,0) matrix(1,0,0,1,0,0) translate(-30,0)"><g><rect fill="rgb(0,0,0)" stroke="none" x="15" y="0" width="128" height="28" fill-opacity="0"/></g><text fill="rgb(0, 0, 0)" stroke="none" font-family="Arial" font-size="12px" font-style="normal" font-weight="bold" text-decoration="" line-height="14px" x="15" y="12">Lagom</text><text fill="rgb(0, 0, 0)" stroke="none" font-family="Arial" font-size="12px" font-style="normal" font-weight="bold" text-decoration="" line-height="14px" x="57" y="12">Kube</text><text fill="rgb(0, 0, 0)" stroke="none" font-family="Arial" font-size="12px" font-style="normal" font-weight="bold" text-decoration="" line-height="14px" x="91" y="12">Service</text><text fill="rgb(0, 0, 0)" stroke="none" font-family="Arial" font-size="12px" font-style="normal" font-weight="bold" text-decoration="" line-height="14px" x="137" y="12">1</text><text fill="rgb(0, 0, 0)" stroke="none" font-family="Arial" font-size="12px" font-style="normal" font-weight="bold" text-decoration="" line-height="14px" x="16" y="26"> (</text><text fill="rgb(0, 0, 0)" stroke="none" font-family="Arial" font-size="12px" font-style="normal" font-weight="bold" text-decoration="" line-height="14px" x="20" y="26">TelegramBot</text><text fill="rgb(0, 0, 0)" stroke="none" font-family="Arial" font-size="12px" font-style="normal" font-weight="bold" text-decoration="" line-height="14px" x="95" y="26">Service</text><text fill="rgb(0, 0, 0)" stroke="none" font-family="Arial" font-size="12px" font-style="normal" font-weight="bold" text-decoration="" line-height="14px" x="138" y="26">)</text></g></g><g transform="translate(0,0) matrix(1,0,0,1,50,271.75)"><g><g transform="translate(0,0) scale(1.8,0.75)"><g><path fill="none" stroke="none" d="M 10 0 L 90 0 Q 100 0 100 10 L 100 90 Q 100 100 90 100 L 10 100 Q 0 100 0 90 L 0 10 Q 0 0 10 0 Z"/><g transform="scale(0.5555555555555556,1.3333333333333333)"><path fill="#ffe599" stroke="none" d="M 10 0 L 170 0 Q 180 0 180 10 L 180 65 Q 180 75 170 75 L 10 75 Q 0 75 0 65 L 0 10 Q 0 0 10 0 Z"/><path fill="none" stroke="rgb(0,0,0)" d="M 10 0 M 10 0 L 170 0 Q 180 0 180 10 L 180 65 Q 180 75 170 75 L 10 75 Q 0 75 0 65 L 0 10 Q 0 0 10 0 Z" stroke-opacity="0" stroke-miterlimit="10" stroke-width="0"/></g></g></g></g></g><g transform="matrix(1,0,0,1,62,295)"><g transform="translate(41,28) matrix(1,0,0,1,0,0) translate(-41,-28)"><g><rect fill="rgb(0,0,0)" stroke="none" x="0" y="0" width="158" height="28" fill-opacity="0"/></g></g><g transform="translate(41,28) matrix(1,0,0,1,0,0) translate(-41,-28)"><g><rect fill="rgb(0,0,0)" stroke="none" x="0" y="0" width="158" height="14" fill-opacity="0"/></g></g><g transform="translate(41,28) matrix(1,0,0,1,0,0) translate(-41,-28)"><g><rect fill="rgb(0,0,0)" stroke="none" x="15" y="0" width="128" height="14" fill-opacity="0"/></g></g><g transform="translate(41,28) matrix(1,0,0,1,0,0) translate(-41,-28)"><g><rect fill="rgb(0,0,0)" stroke="none" x="15" y="0" width="128" height="14" fill-opacity="0"/></g><text fill="rgb(0, 0, 0)" stroke="none" font-family="Arial" font-size="12px" font-style="normal" font-weight="bold" text-decoration="" line-height="14px" x="15" y="12">Lagom</text><text fill="rgb(0, 0, 0)" stroke="none" font-family="Arial" font-size="12px" font-style="normal" font-weight="bold" text-decoration="" line-height="14px" x="57" y="12">Kube</text><text fill="rgb(0, 0, 0)" stroke="none" font-family="Arial" font-size="12px" font-style="normal" font-weight="bold" text-decoration="" line-height="14px" x="91" y="12">Service</text><text fill="rgb(0, 0, 0)" stroke="none" font-family="Arial" font-size="12px" font-style="normal" font-weight="bold" text-decoration="" line-height="14px" x="137" y="12">2</text></g><g transform="translate(41,28) matrix(1,0,0,1,0,0) translate(-41,-28)"><g><rect fill="rgb(0,0,0)" stroke="none" x="0" y="14" width="158" height="14" fill-opacity="0"/></g></g><g transform="translate(41,28) matrix(1,0,0,1,0,0) translate(-41,-28)"><g><rect fill="rgb(0,0,0)" stroke="none" x="11" y="14" width="135" height="14" fill-opacity="0"/></g><text fill="rgb(0, 0, 0)" stroke="none" font-family="Arial" font-size="12px" font-style="normal" font-weight="bold" text-decoration="" line-height="14px" x="11" y="26">(</text><text fill="rgb(0, 0, 0)" stroke="none" font-family="Arial" font-size="12px" font-style="normal" font-weight="bold" text-decoration="" line-height="14px" x="15" y="26">WolframAlpha</text><text fill="rgb(0, 0, 0)" stroke="none" font-family="Arial" font-size="12px" font-style="normal" font-weight="bold" text-decoration="" line-height="14px" x="100" y="26">Service</text><text fill="rgb(0, 0, 0)" stroke="none" font-family="Arial" font-size="12px" font-style="normal" font-weight="bold" text-decoration="" line-height="14px" x="142" y="26">)</text></g></g><g transform="translate(0,0) matrix(1,0,0,1,50,361.75)"><g><g transform="translate(0,0) scale(1.8,0.75)"><g><path fill="none" stroke="none" d="M 10 0 L 90 0 Q 100 0 100 10 L 100 90 Q 100 100 90 100 L 10 100 Q 0 100 0 90 L 0 10 Q 0 0 10 0 Z"/><g transform="scale(0.5555555555555556,1.3333333333333333)"><path fill="#ffe599" stroke="none" d="M 10 0 L 170 0 Q 180 0 180 10 L 180 65 Q 180 75 170 75 L 10 75 Q 0 75 0 65 L 0 10 Q 0 0 10 0 Z"/><path fill="none" stroke="rgb(0,0,0)" d="M 10 0 M 10 0 L 170 0 Q 180 0 180 10 L 180 65 Q 180 75 170 75 L 10 75 Q 0 75 0 65 L 0 10 Q 0 0 10 0 Z" stroke-opacity="0" stroke-miterlimit="10" stroke-width="0"/></g></g></g></g></g><g transform="matrix(1,0,0,1,62,385)"><g transform="translate(46,28) matrix(1,0,0,1,0,0) translate(-46,-28)"><g><rect fill="rgb(0,0,0)" stroke="none" x="0" y="0" width="158" height="28" fill-opacity="0"/></g></g><g transform="translate(46,28) matrix(1,0,0,1,0,0) translate(-46,-28)"><g><rect fill="rgb(0,0,0)" stroke="none" x="0" y="0" width="158" height="14" fill-opacity="0"/></g></g><g transform="translate(46,28) matrix(1,0,0,1,0,0) translate(-46,-28)"><g><rect fill="rgb(0,0,0)" stroke="none" x="13" y="0" width="132" height="14" fill-opacity="0"/></g></g><g transform="translate(46,28) matrix(1,0,0,1,0,0) translate(-46,-28)"><g><rect fill="rgb(0,0,0)" stroke="none" x="13" y="0" width="132" height="14" fill-opacity="0"/></g><text fill="rgb(0, 0, 0)" stroke="none" font-family="Arial" font-size="12px" font-style="normal" font-weight="bold" text-decoration="" line-height="14px" x="13" y="12">Lagom</text><text fill="rgb(0, 0, 0)" stroke="none" font-family="Arial" font-size="12px" font-style="normal" font-weight="bold" text-decoration="" line-height="14px" x="56" y="12">Kube</text><text fill="rgb(0, 0, 0)" stroke="none" font-family="Arial" font-size="12px" font-style="normal" font-weight="bold" text-decoration="" line-height="14px" x="89" y="12">Service</text><text fill="rgb(0, 0, 0)" stroke="none" font-family="Arial" font-size="12px" font-style="normal" font-weight="bold" text-decoration="" line-height="14px" x="135" y="12">3</text></g><g transform="translate(46,28) matrix(1,0,0,1,0,0) translate(-46,-28)"><g><rect fill="rgb(0,0,0)" stroke="none" x="0" y="14" width="158" height="14" fill-opacity="0"/></g></g><g transform="translate(46,28) matrix(1,0,0,1,0,0) translate(-46,-28)"><g><rect fill="rgb(0,0,0)" stroke="none" x="20" y="14" width="117" height="14" fill-opacity="0"/></g><text fill="rgb(0, 0, 0)" stroke="none" font-family="Arial" font-size="12px" font-style="normal" font-weight="bold" text-decoration="" line-height="14px" x="20" y="26">(</text><text fill="rgb(0, 0, 0)" stroke="none" font-family="Arial" font-size="12px" font-style="normal" font-weight="bold" text-decoration="" line-height="14px" x="24" y="26">HelloWorld</text><text fill="rgb(0, 0, 0)" stroke="none" font-family="Arial" font-size="12px" font-style="normal" font-weight="bold" text-decoration="" line-height="14px" x="91" y="26">Service</text><text fill="rgb(0, 0, 0)" stroke="none" font-family="Arial" font-size="12px" font-style="normal" font-weight="bold" text-decoration="" line-height="14px" x="133" y="26">)</text></g></g><g transform="translate(0,0) matrix(1,0,0,1,260,150.75)"><g><g transform="translate(0,0) scale(1.4,2.3)"><g><g transform="scale(0.7142857142857143,0.4347826086956522)"><path fill="#3c78d8" stroke="none" d="M 0 69 L 25.000000000000004 69 L 25.000000000000004 0 L 140 114.99999999999999 L 25.000000000000004 229.99999999999997 L 25.000000000000004 161 L 0 161 L 0 69 Z"/><path fill="none" stroke="rgb(0,0,0)" d="M 0 69 M 0 69 L 25.000000000000004 69 L 25.000000000000004 0 L 140 114.99999999999999 L 25.000000000000004 229.99999999999997 L 25.000000000000004 161 L 0 161 L 0 69 Z" stroke-opacity="0" stroke-miterlimit="10" stroke-width="0"/></g></g></g></g></g><g transform="translate(0,0) matrix(1,0,0,1,420,139.5)"><g><g transform="translate(0,0) scale(3.1999840000799997,4.016048335985706) translate(0.00001348378,-0.001498589)"><g><g><path fill="#FFFFFF" stroke="#02709F" d="M 33.84 5.912 C 16.263 2.403 6.986 11.405 8.451 19.186 L 8.57 19.61 C -5.128 21.942 -1.537 38.106 5.033 38.106 L 5.679 38.085 C 4.026 45.68 20.032 53.41 28.958 49.548 L 29.531 48.92 C 32.713 55.752 44.02 56.893 55.201 57.177 C 64.89 57.425 70.546 56.658 74.702 52.411 L 75.341 52.599 C 90.852 53.845 97.915 43.133 94.526 35.442 L 95.36 35.207 C 100.648 33.808 101.258 21.602 92.187 19.797 L 92.361 19.325 C 96.299 11.385 87.011 3.896 74.124 5.303 L 73.23 4.837 C 64.003 -3.517 37.449 -2.157 34.373 6.108 L 33.84 5.912 Z" stroke-miterlimit="10" stroke-width="2"/></g></g></g></g></g><g transform="matrix(1,0,0,1,538,375)"><g transform="translate(6,0) matrix(1,0,0,1,0,0) translate(-6,0)"><g><rect fill="rgb(0,0,0)" stroke="none" x="0" y="0" width="83" height="16" fill-opacity="0"/></g></g><g transform="translate(6,0) matrix(1,0,0,1,0,0) translate(-6,0)"><g><rect fill="rgb(0,0,0)" stroke="none" x="0" y="0" width="83" height="16" fill-opacity="0"/></g></g><g transform="translate(6,0) matrix(1,0,0,1,0,0) translate(-6,0)"><g><rect fill="rgb(0,0,0)" stroke="none" x="3" y="0" width="77" height="16" fill-opacity="0"/></g></g><g transform="translate(6,0) matrix(1,0,0,1,0,0) translate(-6,0)"><g><rect fill="rgb(0,0,0)" stroke="none" x="3" y="0" width="77" height="16" fill-opacity="0"/></g><text fill="rgb(0, 0, 0)" stroke="none" font-family="Arial" font-size="14px" font-style="normal" font-weight="bold" text-decoration="" line-height="16.5px" x="3" y="13">Kubernetes</text></g></g><g transform="translate(0,0) matrix(1,0,0,1,490,209.25)"><g><g transform="translate(0,0) scale(0.8,0.37)"><g><path fill="#a2c4c9" stroke="none" d="M 0 0 L 100 0 Q 100 0 100 0 L 100 100 Q 100 100 100 100 L 0 100 Q 0 100 0 100 L 0 0 Q 0 0 0 0 Z"/><g transform="scale(1.25,2.7027027027027026)"><path fill="none" stroke="none" d="M 0 0 L 80 0 Q 80 0 80 0 L 80 37 Q 80 37 80 37 L 0 37 Q 0 37 0 37 L 0 0 Q 0 0 0 0 Z"/><path fill="none" stroke="rgb(0,0,0)" d="M 0 0 M 0 0 L 80 0 Q 80 0 80 0 L 80 37 Q 80 37 80 37 L 0 37 Q 0 37 0 37 L 0 0 Q 0 0 0 0 Z" stroke-opacity="0" stroke-miterlimit="10" stroke-width="0"/></g></g></g></g></g><g transform="matrix(1,0,0,1,500,214)"><g transform="translate(22,0) matrix(1,0,0,1,0,0) translate(-22,0)"><g><rect fill="rgb(0,0,0)" stroke="none" x="0" y="0" width="62" height="28" fill-opacity="0"/></g></g><g transform="translate(22,0) matrix(1,0,0,1,0,0) translate(-22,0)"><g><rect fill="rgb(0,0,0)" stroke="none" x="0" y="0" width="62" height="28" fill-opacity="0"/></g></g><g transform="translate(22,0) matrix(1,0,0,1,0,0) translate(-22,0)"><g><rect fill="rgb(0,0,0)" stroke="none" x="11" y="0" width="54" height="28" fill-opacity="0"/></g></g><g transform="translate(22,0) matrix(1,0,0,1,0,0) translate(-22,0)"><g><rect fill="rgb(0,0,0)" stroke="none" x="11" y="0" width="54" height="28" fill-opacity="0"/></g><text fill="rgb(0, 0, 0)" stroke="none" font-family="Arial" font-size="12px" font-style="normal" font-weight="bold" text-decoration="" line-height="14px" x="11" y="12">Docker</text><text fill="rgb(0, 0, 0)" stroke="none" font-family="Arial" font-size="12px" font-style="normal" font-weight="bold" text-decoration="" line-height="14px" x="4" y="26">container</text></g></g><g transform="translate(0,0) matrix(1,0,0,1,590,209.25)"><g><g transform="translate(0,0) scale(0.8,0.37)"><g><path fill="#a2c4c9" stroke="none" d="M 0 0 L 100 0 Q 100 0 100 0 L 100 100 Q 100 100 100 100 L 0 100 Q 0 100 0 100 L 0 0 Q 0 0 0 0 Z"/><g transform="scale(1.25,2.7027027027027026)"><path fill="none" stroke="none" d="M 0 0 L 80 0 Q 80 0 80 0 L 80 37 Q 80 37 80 37 L 0 37 Q 0 37 0 37 L 0 0 Q 0 0 0 0 Z"/><path fill="none" stroke="rgb(0,0,0)" d="M 0 0 M 0 0 L 80 0 Q 80 0 80 0 L 80 37 Q 80 37 80 37 L 0 37 Q 0 37 0 37 L 0 0 Q 0 0 0 0 Z" stroke-opacity="0" stroke-miterlimit="10" stroke-width="0"/></g></g></g></g></g><g transform="matrix(1,0,0,1,600,214)"><g transform="translate(22,0) matrix(1,0,0,1,0,0) translate(-22,0)"><g><rect fill="rgb(0,0,0)" stroke="none" x="0" y="0" width="62" height="28" fill-opacity="0"/></g></g><g transform="translate(22,0) matrix(1,0,0,1,0,0) translate(-22,0)"><g><rect fill="rgb(0,0,0)" stroke="none" x="0" y="0" width="62" height="28" fill-opacity="0"/></g></g><g transform="translate(22,0) matrix(1,0,0,1,0,0) translate(-22,0)"><g><rect fill="rgb(0,0,0)" stroke="none" x="11" y="0" width="54" height="28" fill-opacity="0"/></g></g><g transform="translate(22,0) matrix(1,0,0,1,0,0) translate(-22,0)"><g><rect fill="rgb(0,0,0)" stroke="none" x="11" y="0" width="54" height="28" fill-opacity="0"/></g><text fill="rgb(0, 0, 0)" stroke="none" font-family="Arial" font-size="12px" font-style="normal" font-weight="bold" text-decoration="" line-height="14px" x="11" y="12">Docker</text><text fill="rgb(0, 0, 0)" stroke="none" font-family="Arial" font-size="12px" font-style="normal" font-weight="bold" text-decoration="" line-height="14px" x="4" y="26">container</text></g></g><g transform="translate(0,0) matrix(1,0,0,1,490,264.25)"><g><g transform="translate(0,0) scale(0.8,0.37)"><g><path fill="#a2c4c9" stroke="none" d="M 0 0 L 100 0 Q 100 0 100 0 L 100 100 Q 100 100 100 100 L 0 100 Q 0 100 0 100 L 0 0 Q 0 0 0 0 Z"/><g transform="scale(1.25,2.7027027027027026)"><path fill="none" stroke="none" d="M 0 0 L 80 0 Q 80 0 80 0 L 80 37 Q 80 37 80 37 L 0 37 Q 0 37 0 37 L 0 0 Q 0 0 0 0 Z"/><path fill="none" stroke="rgb(0,0,0)" d="M 0 0 M 0 0 L 80 0 Q 80 0 80 0 L 80 37 Q 80 37 80 37 L 0 37 Q 0 37 0 37 L 0 0 Q 0 0 0 0 Z" stroke-opacity="0" stroke-miterlimit="10" stroke-width="0"/></g></g></g></g></g><g transform="matrix(1,0,0,1,500,269)"><g transform="translate(22,0) matrix(1,0,0,1,0,0) translate(-22,0)"><g><rect fill="rgb(0,0,0)" stroke="none" x="0" y="0" width="62" height="28" fill-opacity="0"/></g></g><g transform="translate(22,0) matrix(1,0,0,1,0,0) translate(-22,0)"><g><rect fill="rgb(0,0,0)" stroke="none" x="0" y="0" width="62" height="28" fill-opacity="0"/></g></g><g transform="translate(22,0) matrix(1,0,0,1,0,0) translate(-22,0)"><g><rect fill="rgb(0,0,0)" stroke="none" x="11" y="0" width="54" height="28" fill-opacity="0"/></g></g><g transform="translate(22,0) matrix(1,0,0,1,0,0) translate(-22,0)"><g><rect fill="rgb(0,0,0)" stroke="none" x="11" y="0" width="54" height="28" fill-opacity="0"/></g><text fill="rgb(0, 0, 0)" stroke="none" font-family="Arial" font-size="12px" font-style="normal" font-weight="bold" text-decoration="" line-height="14px" x="11" y="12">Docker</text><text fill="rgb(0, 0, 0)" stroke="none" font-family="Arial" font-size="12px" font-style="normal" font-weight="bold" text-decoration="" line-height="14px" x="4" y="26">container</text></g></g><g transform="translate(0,0) matrix(1,0,0,1,590,265.75)"><g><g transform="translate(0,0) scale(0.8,0.37)"><g><path fill="#a2c4c9" stroke="none" d="M 0 0 L 100 0 Q 100 0 100 0 L 100 100 Q 100 100 100 100 L 0 100 Q 0 100 0 100 L 0 0 Q 0 0 0 0 Z"/><g transform="scale(1.25,2.7027027027027026)"><path fill="none" stroke="none" d="M 0 0 L 80 0 Q 80 0 80 0 L 80 37 Q 80 37 80 37 L 0 37 Q 0 37 0 37 L 0 0 Q 0 0 0 0 Z"/><path fill="none" stroke="rgb(0,0,0)" d="M 0 0 M 0 0 L 80 0 Q 80 0 80 0 L 80 37 Q 80 37 80 37 L 0 37 Q 0 37 0 37 L 0 0 Q 0 0 0 0 Z" stroke-opacity="0" stroke-miterlimit="10" stroke-width="0"/></g></g></g></g></g><g transform="matrix(1,0,0,1,600,270)"><g transform="translate(22,0) matrix(1,0,0,1,0,0) translate(-22,0)"><g><rect fill="rgb(0,0,0)" stroke="none" x="0" y="0" width="62" height="28" fill-opacity="0"/></g></g><g transform="translate(22,0) matrix(1,0,0,1,0,0) translate(-22,0)"><g><rect fill="rgb(0,0,0)" stroke="none" x="0" y="0" width="62" height="28" fill-opacity="0"/></g></g><g transform="translate(22,0) matrix(1,0,0,1,0,0) translate(-22,0)"><g><rect fill="rgb(0,0,0)" stroke="none" x="11" y="0" width="54" height="28" fill-opacity="0"/></g></g><g transform="translate(22,0) matrix(1,0,0,1,0,0) translate(-22,0)"><g><rect fill="rgb(0,0,0)" stroke="none" x="11" y="0" width="54" height="28" fill-opacity="0"/></g><text fill="rgb(0, 0, 0)" stroke="none" font-family="Arial" font-size="12px" font-style="normal" font-weight="bold" text-decoration="" line-height="14px" x="11" y="12">Docker</text><text fill="rgb(0, 0, 0)" stroke="none" font-family="Arial" font-size="12px" font-style="normal" font-weight="bold" text-decoration="" line-height="14px" x="4" y="26">container</text></g></g><g transform="translate(0,0) matrix(0.8660254037844379,-0.5000000000000012,0.5000000000000012,0.8660254037844379,718.7083487540115,112.8589838486226)"><g><g transform="translate(0,0) scale(1.3,0.8)"><g><g transform="scale(0.7692307692307692,1.25)"><path fill="#3c78d8" stroke="none" d="M 0 24 L 90 24 L 90 0 L 130 40 L 90 80 L 90 56 L 0 56 L 0 24 Z"/><path fill="none" stroke="rgb(0,0,0)" d="M 0 24 M 0 24 L 90 24 L 90 0 L 130 40 L 90 80 L 90 56 L 0 56 L 0 24 Z" stroke-opacity="0" stroke-miterlimit="10" stroke-width="0"/></g></g></g></g></g><g transform="translate(0,0) matrix(0.8660254037844387,0.49999999999999994,-0.49999999999999994,0.8660254037844387,758.7083487540115,340.7179676972449)"><g><g transform="translate(0,0) scale(1.3,0.8)"><g><g transform="scale(0.7692307692307692,1.25)"><path fill="#3c78d8" stroke="none" d="M 0 24 L 90 24 L 90 0 L 130 40 L 90 80 L 90 56 L 0 56 L 0 24 Z"/><path fill="none" stroke="rgb(0,0,0)" d="M 0 24 M 0 24 L 90 24 L 90 0 L 130 40 L 90 80 L 90 56 L 0 56 L 0 24 Z" stroke-opacity="0" stroke-miterlimit="10" stroke-width="0"/></g></g></g></g></g><g transform="matrix(0.8660254037844387,0.49999999999999994,-0.49999999999999994,0.8660254037844387,751,374)"><g transform="translate(14,0) matrix(1,0,0,1,0,0) translate(-14,0)"><g><rect fill="rgb(0,0,0)" stroke="none" x="0" y="0" width="111" height="14" fill-opacity="0"/></g></g><g transform="translate(14,0) matrix(1,0,0,1,0,0) translate(-14,0)"><g><rect fill="rgb(0,0,0)" stroke="none" x="0" y="0" width="111" height="14" fill-opacity="0"/></g></g><g transform="translate(14,0) matrix(1,0,0,1,0,0) translate(-14,0)"><g><rect fill="rgb(0,0,0)" stroke="none" x="7" y="0" width="97" height="14" fill-opacity="0"/></g></g><g transform="translate(14,0) matrix(1,0,0,1,0,0) translate(-14,0)"><g><rect fill="rgb(0,0,0)" stroke="none" x="7" y="0" width="97" height="14" fill-opacity="0"/></g><text fill="rgb(255, 255, 255)" stroke="none" font-family="Arial" font-size="12px" font-style="normal" font-weight="bold" text-decoration="" line-height="14px" x="7" y="12">Auto</text><text fill="rgb(255, 255, 255)" stroke="none" font-family="Arial" font-size="12px" font-style="normal" font-weight="bold" text-decoration="" line-height="14px" x="37" y="12">deployment</text></g></g><g transform="translate(0,0) matrix(1,0,0,1,760,220)"><g><g transform="translate(0,0) scale(1.3,0.8)"><g><g transform="scale(0.7692307692307692,1.25)"><path fill="#3c78d8" stroke="none" d="M 0 24 L 90 24 L 90 0 L 130 40 L 90 80 L 90 56 L 0 56 L 0 24 Z"/><path fill="none" stroke="rgb(0,0,0)" d="M 0 24 M 0 24 L 90 24 L 90 0 L 130 40 L 90 80 L 90 56 L 0 56 L 0 24 Z" stroke-opacity="0" stroke-miterlimit="10" stroke-width="0"/></g></g></g></g></g><g transform="matrix(1,0,0,1,770,239)"><g transform="translate(112,0) matrix(1,0,0,1,0,0) translate(-112,0)"><g><rect fill="rgb(0,0,0)" stroke="none" x="0" y="0" width="111" height="42" fill-opacity="0"/></g></g><g transform="translate(112,0) matrix(1,0,0,1,0,0) translate(-112,0)"><g><rect fill="rgb(0,0,0)" stroke="none" x="0" y="0" width="111" height="42" fill-opacity="0"/></g></g><g transform="translate(112,0) matrix(1,0,0,1,0,0) translate(-112,0)"><g><rect fill="rgb(0,0,0)" stroke="none" x="56" y="0" width="67" height="42" fill-opacity="0"/></g></g><g transform="translate(112,0) matrix(1,0,0,1,0,0) translate(-112,0)"><g><rect fill="rgb(0,0,0)" stroke="none" x="56" y="0" width="67" height="42" fill-opacity="0"/></g><text fill="rgb(255, 255, 255)" stroke="none" font-family="Arial" font-size="12px" font-style="normal" font-weight="bold" text-decoration="" line-height="14px" x="35" y="26">Manual</text><text fill="rgb(255, 255, 255)" stroke="none" font-family="Arial" font-size="12px" font-style="normal" font-weight="bold" text-decoration="" line-height="14px" x="22" y="40">deployment</text></g><g transform="translate(112,0) matrix(1,0,0,1,0,0) translate(-112,0)"><g/></g></g><g transform="translate(0,0) matrix(1,0,0,1,910,15.5)"><g><g transform="translate(0,0) scale(2.5000000000000004,1.27)"><g><path fill="none" stroke="none" d="M 10 0 L 90 0 Q 100 0 100 10 L 100 90 Q 100 100 90 100 L 10 100 Q 0 100 0 90 L 0 10 Q 0 0 10 0 Z"/><g transform="scale(0.3999999999999999,0.7874015748031495)"><path fill="#6aa84f" stroke="none" d="M 10 0 L 240.00000000000006 0 Q 250.00000000000006 0 250.00000000000006 10 L 250.00000000000006 117 Q 250.00000000000006 127 240.00000000000006 127 L 10 127 Q 0 127 0 117 L 0 10 Q 0 0 10 0 Z"/><path fill="none" stroke="rgb(0,0,0)" d="M 10 0 M 10 0 L 240.00000000000006 0 Q 250.00000000000006 0 250.00000000000006 10 L 250.00000000000006 117 Q 250.00000000000006 127 240.00000000000006 127 L 10 127 Q 0 127 0 117 L 0 10 Q 0 0 10 0 Z" stroke-opacity="0" stroke-miterlimit="10" stroke-width="0"/></g></g></g></g></g><g transform="matrix(1,0,0,1,923,71)"><g transform="translate(162,0) matrix(1,0,0,1,0,0) translate(-162,0)"><g><rect fill="rgb(0,0,0)" stroke="none" x="0" y="0" width="225" height="16" fill-opacity="0"/></g></g><g transform="translate(162,0) matrix(1,0,0,1,0,0) translate(-162,0)"><g><rect fill="rgb(0,0,0)" stroke="none" x="0" y="0" width="225" height="16" fill-opacity="0"/></g></g><g transform="translate(162,0) matrix(1,0,0,1,0,0) translate(-162,0)"><g><rect fill="rgb(0,0,0)" stroke="none" x="81" y="0" width="63" height="16" fill-opacity="0"/></g></g><g transform="translate(162,0) matrix(1,0,0,1,0,0) translate(-162,0)"><g><rect fill="rgb(0,0,0)" stroke="none" x="81" y="0" width="63" height="16" fill-opacity="0"/></g><text fill="rgb(0, 0, 0)" stroke="none" font-family="Arial" font-size="14px" font-style="normal" font-weight="bold" text-decoration="" line-height="16.5px" x="81" y="13">MiniKube</text></g></g><g transform="translate(0,0) matrix(1,0,0,1,910,182.14101615137764)"><g><g transform="translate(0,0) scale(2.5000000000000004,3.3)"><g><path fill="none" stroke="none" d="M 10 0 L 90 0 Q 100 0 100 10 L 100 90 Q 100 100 90 100 L 10 100 Q 0 100 0 90 L 0 10 Q 0 0 10 0 Z"/><g transform="scale(0.3999999999999999,0.30303030303030304)"><path fill="#6aa84f" stroke="none" d="M 10 0 L 240.00000000000006 0 Q 250.00000000000006 0 250.00000000000006 10 L 250.00000000000006 320 Q 250.00000000000006 330 240.00000000000006 330 L 10 330 Q 0 330 0 320 L 0 10 Q 0 0 10 0 Z"/><path fill="none" stroke="rgb(0,0,0)" d="M 10 0 M 10 0 L 240.00000000000006 0 Q 250.00000000000006 0 250.00000000000006 10 L 250.00000000000006 320 Q 250.00000000000006 330 240.00000000000006 330 L 10 330 Q 0 330 0 320 L 0 10 Q 0 0 10 0 Z" stroke-opacity="0" stroke-miterlimit="10" stroke-width="0"/></g></g></g></g></g><g transform="matrix(1,0,0,1,920,339)"><g transform="translate(200,0) matrix(1,0,0,1,0,0) translate(-200,0)"><g><rect fill="rgb(0,0,0)" stroke="none" x="0" y="0" width="231" height="16" fill-opacity="0"/></g></g><g transform="translate(200,0) matrix(1,0,0,1,0,0) translate(-200,0)"><g><rect fill="rgb(0,0,0)" stroke="none" x="0" y="0" width="231" height="16" fill-opacity="0"/></g></g><g transform="translate(200,0) matrix(1,0,0,1,0,0) translate(-200,0)"><g><rect fill="rgb(0,0,0)" stroke="none" x="100" y="0" width="31" height="16" fill-opacity="0"/></g></g><g transform="translate(200,0) matrix(1,0,0,1,0,0) translate(-200,0)"><g><rect fill="rgb(0,0,0)" stroke="none" x="100" y="0" width="31" height="16" fill-opacity="0"/></g><text fill="rgb(0, 0, 0)" stroke="none" font-family="Arial" font-size="14px" font-style="normal" font-weight="bold" text-decoration="" line-height="16.5px" x="100" y="13">AWS</text></g></g></g></svg>