<svg xmlns="http://www.w3.org/2000/svg" viewBox="0 0 1040 330"><defs><style>.cls-1,.cls-4{fill:#662c7c;}.cls-2{fill:#421540;}.cls-3{fill:#be97c6;}.cls-4,.cls-5,.cls-6{fill-opacity:0.2;}.cls-5,.cls-7{fill:#326ce5;}.cls-11,.cls-6{fill:#f68d11;}.cls-8{fill:#fff;stroke:#fff;stroke-width:0.27px;}.cls-9{fill:#333;}.cls-10,.cls-17{fill:none;}.cls-12{fill:#100f0d;}.cls-13{fill:#3770e6;}.cls-14{fill:#326de6;}.cls-15{fill:#c9e8eb;}.cls-16{fill:#20bdcf;}.cls-17{stroke:#000;stroke-miterlimit:10;}</style></defs><title>OrchestrationShemes</title><g id="Layer_1" data-name="Layer 1"><g id="Lagom"><g id="lagom-2" data-name="lagom"><path id="Shape" class="cls-1" d="M153.5,23.62h4.2V42.35c0,1.73.56,2.46,2.1,2.46a4.45,4.45,0,0,0,1.26-.14v3.77a7.51,7.51,0,0,1-2,.21c-3.71,0-5.57-1.9-5.57-5.74V23.62Z"/><path id="Shape-2" data-name="Shape" class="cls-1" d="M181.63,44.88c-.94,0-1.3-.57-1.3-2.07V30.42h-4.22V33c-.66-1.7-2.8-2.95-5.63-2.95a8.37,8.37,0,0,0-6.29,2.66,9.22,9.22,0,0,0-2.52,6.6,9.25,9.25,0,0,0,2.52,6.62,8.39,8.39,0,0,0,6.29,2.69c2.8,0,4.83-.94,6.05-2.8A3.31,3.31,0,0,0,178,47.95a4.71,4.71,0,0,0,2.45.57,6.14,6.14,0,0,0,2.07-.28V44.81A5.45,5.45,0,0,1,181.63,44.88Zm-6.76-1.72a5.26,5.26,0,0,1-3.82,1.55,5.11,5.11,0,0,1-3.75-1.55,5.35,5.35,0,0,1-1.48-3.86,5.41,5.41,0,0,1,1.48-3.89,5,5,0,0,1,3.75-1.53,5.15,5.15,0,0,1,3.82,1.53,5.55,5.55,0,0,1,0,7.75Z"/><path id="Shape-3" data-name="Shape" class="cls-1" d="M196.76,30.42V33c-.59-1.72-2.73-3-5.63-3a8.31,8.31,0,0,0-6.27,2.69,9,9,0,0,0-2.57,6.5,8.94,8.94,0,0,0,2.52,6.48,8.54,8.54,0,0,0,6.31,2.62c2.8,0,4.9-1.08,5.75-2.62v.9c0,2.17-.57,3.7-1.7,4.5a6.35,6.35,0,0,1-3.89,1.06,10.57,10.57,0,0,1-6.05-1.93l-2,3.13a14.35,14.35,0,0,0,8.55,2.57A9.86,9.86,0,0,0,198,54c2.38-1.88,3-4.48,3-8.74V30.42ZM195.48,43a5.13,5.13,0,0,1-3.82,1.53A5,5,0,0,1,187.92,43a5.72,5.72,0,0,1,0-7.63,5,5,0,0,1,3.75-1.53A5.36,5.36,0,0,1,195.48,43Z"/><path id="Shape-4" data-name="Shape" class="cls-1" d="M218.88,32.61A9.44,9.44,0,0,0,212,29.9a9.33,9.33,0,0,0-6.81,2.71,9.39,9.39,0,0,0,0,13.38,9.94,9.94,0,0,0,13.64,0,9.39,9.39,0,0,0,0-13.38ZM216,43.26a5.6,5.6,0,0,1-7.82,0A5.56,5.56,0,1,1,216,35.34a5.81,5.81,0,0,1,0,7.92Z"/><path id="Shape-5" data-name="Shape" class="cls-1" d="M223.23,48.17V30.42h4.17V33a5.41,5.41,0,0,1,9.69.21c1-2.08,2.92-3.11,5.68-3.11,3.81,0,6,2.71,6,7.11v5.6c0,1.37.25,1.87,1.19,1.87a3.08,3.08,0,0,0,.6-.07v3.56a6,6,0,0,1-1.82.21c-2.77,0-4.13-1.55-4.13-4.65V37.78c0-2.43-1.12-3.94-3.08-3.94s-3.39,1.73-3.39,4.12V48.17H234V37.78c0-2.43-1.15-3.94-3.15-3.94S227.4,35.56,227.4,38V48.17Z"/><path id="Shape-6" data-name="Shape" class="cls-1" d="M147,34.75,132.18,42,147,49.23S147,34.8,147,34.75Z"/><polygon id="Shape-7" data-name="Shape" class="cls-1" points="117.35 49.23 132.18 41.99 117.35 34.75 117.35 49.23"/><path id="Shape-8" data-name="Shape" class="cls-2" d="M132.18,42,147,49.23c-.06,0-8.85,5.33-12.85,7.72a3.72,3.72,0,0,1-3.81,0c-4-2.39-13-7.72-13-7.72Z"/><path id="Shape-9" data-name="Shape" class="cls-3" d="M134.14,27c4,2.39,12.88,7.74,12.88,7.74L132.18,42l-14.84-7.24c.06,0,9-5.35,13-7.75A3.72,3.72,0,0,1,134.14,27Z"/><path id="Shape-10" data-name="Shape" class="cls-1" d="M122.44,21.23,115,24.86l7.42,3.62S122.41,21.26,122.44,21.23Z"/><polygon id="Shape-11" data-name="Shape" class="cls-1" points="107.6 28.48 115.02 24.86 107.6 21.23 107.6 28.48"/><path id="Shape-12" data-name="Shape" class="cls-2" d="M115,24.86l7.42,3.62S118,31.14,116,32.34a1.86,1.86,0,0,1-1.91,0l-6.5-3.86Z"/><path id="Shape-13" data-name="Shape" class="cls-3" d="M116,17.36l6.44,3.87L115,24.86l-7.42-3.62s4.48-2.68,6.48-3.87A1.86,1.86,0,0,1,116,17.36Z"/><path id="Shape-14" data-name="Shape" class="cls-1" d="M113.11,36.24l-10.6,5.23,10.6,5.23S113.08,36.28,113.11,36.24Z"/><polygon id="Shape-15" data-name="Shape" class="cls-1" points="91.92 46.69 102.51 41.47 91.92 36.24 91.92 46.69"/><path id="Shape-16" data-name="Shape" class="cls-2" d="M102.51,41.47l10.6,5.23s-6.32,3.83-9.18,5.57a2.64,2.64,0,0,1-2.73,0c-2.85-1.73-9.28-5.57-9.28-5.57Z"/><path id="Shape-17" data-name="Shape" class="cls-3" d="M103.91,30.65l9.2,5.58-10.6,5.23-10.6-5.23s6.4-3.86,9.26-5.58A2.64,2.64,0,0,1,103.91,30.65Z"/></g></g><rect class="cls-4" x="13.75" y="77.94" width="150" height="100" rx="13" ry="13"/><rect class="cls-4" x="178.75" y="77.94" width="150" height="100" rx="13" ry="13"/><rect class="cls-4" x="178.75" y="192.94" width="150" height="100" rx="13" ry="13"/><rect class="cls-4" x="13.75" y="192.94" width="150" height="100" rx="13" ry="13"/><rect class="cls-5" x="613.75" y="77.94" width="150" height="100" rx="13" ry="13"/><rect class="cls-5" x="448.75" y="77.94" width="150" height="100" rx="13" ry="13"/><rect class="cls-5" x="613.75" y="192.94" width="150" height="100" rx="13" ry="13"/><rect class="cls-5" x="448.75" y="192.94" width="150" height="100" rx="13" ry="13"/><rect class="cls-5" x="883.75" y="77.94" width="150" height="100" rx="13" ry="13"/><rect class="cls-6" x="883.75" y="192.94" width="150" height="100" rx="13" ry="13"/><g id="Kubernetes"><path id="path3055" class="cls-7" d="M532.3,13.54a2.91,2.91,0,0,0-1.11.28L516,21.15a2.91,2.91,0,0,0-1.57,2l-3.75,16.45a2.91,2.91,0,0,0,.39,2.23l.17.23,10.52,13.19A2.91,2.91,0,0,0,524,56.32h16.87a2.91,2.91,0,0,0,2.27-1.09L553.68,42a2.91,2.91,0,0,0,.56-2.46l-3.76-16.45a2.91,2.91,0,0,0-1.57-2l-15.2-7.32A2.91,2.91,0,0,0,532.3,13.54Z"/><path id="path3059" class="cls-8" d="M532.45,19.14a1,1,0,0,0-.91,1v0c0,.08,0,.17,0,.24a7.71,7.71,0,0,0,.12.87,8.64,8.64,0,0,1,.1,1.66,1,1,0,0,1-.3.47l0,.39a11.7,11.7,0,0,0-7.59,3.68l-.33-.24a.71.71,0,0,1-.54-.05,8.52,8.52,0,0,1-1.23-1.12,7.62,7.62,0,0,0-.6-.64l-.2-.16a1.08,1.08,0,0,0-.63-.24.87.87,0,0,0-.73.32,1,1,0,0,0,.22,1.35h0l.19.15a7.57,7.57,0,0,0,.75.44,8.49,8.49,0,0,1,1.35,1,1,1,0,0,1,.18.53l.29.26a12,12,0,0,0-1.86,8.28l-.38.11a1.27,1.27,0,0,1-.39.4,8.43,8.43,0,0,1-1.63.27,7.55,7.55,0,0,0-.87.07l-.24.06h0a.92.92,0,1,0,.4,1.79h0l.24-.05a7.57,7.57,0,0,0,.82-.32,8.45,8.45,0,0,1,1.59-.47,1,1,0,0,1,.52.19l.4-.07a11.92,11.92,0,0,0,5.25,6.61l-.17.4a.92.92,0,0,1,.08.52,9,9,0,0,1-.82,1.49,7.69,7.69,0,0,0-.49.73l-.12.25a1,1,0,0,0,.39,1.3,1,1,0,0,0,1.26-.52h0l.11-.23A7.7,7.7,0,0,0,527,49a6.44,6.44,0,0,1,.7-1.65.73.73,0,0,1,.39-.19l.21-.38a11.69,11.69,0,0,0,8.4,0l.19.35a.72.72,0,0,1,.46.28,8.6,8.6,0,0,1,.62,1.54,7.72,7.72,0,0,0,.26.84l.11.24a1,1,0,0,0,1.26.52,1,1,0,0,0,.39-1.3l-.12-.25a7.65,7.65,0,0,0-.49-.73,8.59,8.59,0,0,1-.81-1.46.72.72,0,0,1,.07-.54,3.17,3.17,0,0,1-.15-.37,11.92,11.92,0,0,0,5.25-6.65l.39.07a.72.72,0,0,1,.51-.19,8.45,8.45,0,0,1,1.59.47A7.57,7.57,0,0,0,547,40l.24.05h0a.92.92,0,1,0,.41-1.79l-.26-.06a7.55,7.55,0,0,0-.87-.07,8.43,8.43,0,0,1-1.63-.27,1,1,0,0,1-.39-.4l-.37-.11a12,12,0,0,0-1.9-8.26l.32-.29a.73.73,0,0,1,.17-.52,8.5,8.5,0,0,1,1.35-1,7.59,7.59,0,0,0,.76-.44l.2-.16a1,1,0,0,0,.22-1.35,1,1,0,0,0-1.36-.08l-.2.16a7.65,7.65,0,0,0-.6.64,8.55,8.55,0,0,1-1.23,1.12,1,1,0,0,1-.55.06l-.35.25a11.89,11.89,0,0,0-7.55-3.68c0-.12,0-.34,0-.41a.73.73,0,0,1-.3-.46,8.66,8.66,0,0,1,.1-1.66,7.71,7.71,0,0,0,.12-.87c0-.07,0-.18,0-.26a1,1,0,0,0-.91-1Zm-1.14,7.12L531,31.07h0a.81.81,0,0,1-.8.77.79.79,0,0,1-.47-.15h0l-3.91-2.8a9.35,9.35,0,0,1,4.51-2.48A9.52,9.52,0,0,1,531.31,26.26Zm2.28,0A9.42,9.42,0,0,1,539,28.91l-3.89,2.78h0a.8.8,0,0,1-1.1-.15.81.81,0,0,1-.17-.47h0ZM524.4,30.7,528,33.92v0a.81.81,0,0,1,.1,1.11.8.8,0,0,1-.42.28v0l-4.58,1.33A9.51,9.51,0,0,1,524.4,30.7Zm16.06,0a9.69,9.69,0,0,1,1.37,6l-4.6-1.34v0a.81.81,0,0,1-.31-1.39h0l3.55-3.21Zm-8.75,3.47h1.46l.91,1.15-.33,1.43-1.31.64-1.32-.64-.33-1.43Zm4.69,3.92h.19l4.74.81a9.45,9.45,0,0,1-3.79,4.8l-1.84-4.48h0a.81.81,0,0,1,.39-1,.79.79,0,0,1,.31-.08Zm-8,0a.81.81,0,0,1,.73,1.13v0l-1.82,4.43a9.49,9.49,0,0,1-3.78-4.77l4.7-.8h.17Zm4,1.94a.79.79,0,0,1,.38.08.8.8,0,0,1,.36.35h0l2.32,4.22a9.53,9.53,0,0,1-.93.26,9.33,9.33,0,0,1-5.13-.27l2.31-4.21h0A.8.8,0,0,1,532.42,40.06Z"/><g id="text4373-4"><path id="path2985-1" class="cls-9" d="M568.43,36.7l1.16-1.29q.62-.67,1.19-1.32l1.06-1.26.88-1h4.57q-1.37,1.57-2.68,3t-2.84,2.94a16.92,16.92,0,0,1,1.6,1.68q.83,1,1.6,2t1.42,2.06q.64,1,1.08,1.88H573q-.41-.67-1-1.47T571,42.27a18.74,18.74,0,0,0-1.26-1.57,9.84,9.84,0,0,0-1.29-1.26v5.93h-3.84V26l3.84-.62V36.7"/><path id="path2987-3" class="cls-9" d="M590.83,44.9a20.09,20.09,0,0,1-2.53.52,19.76,19.76,0,0,1-3.25.26,7.82,7.82,0,0,1-2.89-.46,4.43,4.43,0,0,1-1.81-1.29,5.2,5.2,0,0,1-1-2,10.75,10.75,0,0,1-.28-2.55V31.8H583v7.09a5.5,5.5,0,0,0,.49,2.68,2,2,0,0,0,1.83.83l.88,0,.83-.1V31.8h3.84V44.9"/><path id="path2989-2" class="cls-9" d="M603.16,38.48q0-3.71-2.73-3.71a4.69,4.69,0,0,0-1.19.15,3.35,3.35,0,0,0-.93.39v7l.72.1,1,0a2.76,2.76,0,0,0,2.37-1.08,4.71,4.71,0,0,0,.8-2.86m3.92.1a8.37,8.37,0,0,1-.49,2.94,6.07,6.07,0,0,1-1.37,2.24A6.21,6.21,0,0,1,603,45.21a8.53,8.53,0,0,1-3,.49q-.7,0-1.47-.08t-1.5-.15q-.72-.1-1.39-.23t-1.19-.31V26l3.84-.62v6.76a7.2,7.2,0,0,1,1.34-.44,6.89,6.89,0,0,1,1.5-.15,6,6,0,0,1,2.55.52,4.88,4.88,0,0,1,1.86,1.42,6.42,6.42,0,0,1,1.14,2.24,10,10,0,0,1,.39,2.89"/><path id="path2991-8" class="cls-9" d="M609.39,38.69a8.37,8.37,0,0,1,.54-3.15,6.91,6.91,0,0,1,1.47-2.27,6.1,6.1,0,0,1,2.06-1.37,6.6,6.6,0,0,1,2.43-.46,6,6,0,0,1,4.57,1.78,7.23,7.23,0,0,1,1.68,5.19q0,.34,0,.75t-.05.7h-8.72a2.55,2.55,0,0,0,1.11,1.88,4.46,4.46,0,0,0,2.63.7,11.66,11.66,0,0,0,2.06-.18,8.29,8.29,0,0,0,1.68-.49l.52,3.12a5.31,5.31,0,0,1-.83.31,9,9,0,0,1-1.16.26q-.62.13-1.34.21a13.55,13.55,0,0,1-1.44.08,8.65,8.65,0,0,1-3.2-.54,6.45,6.45,0,0,1-2.24-1.47,6.24,6.24,0,0,1-1.32-2.24,9.09,9.09,0,0,1-.41-2.79m9-1.47a3.6,3.6,0,0,0-.18-1,2.13,2.13,0,0,0-.44-.83,2.16,2.16,0,0,0-.75-.59,2.36,2.36,0,0,0-1.11-.23,2.46,2.46,0,0,0-1.11.23,2.16,2.16,0,0,0-.77.57,2.76,2.76,0,0,0-.49.85,5.94,5.94,0,0,0-.23,1h5.08"/><path id="path2993-1" class="cls-9" d="M633.28,35.2q-.52-.13-1.21-.26a6.89,6.89,0,0,0-1.5-.15,6.07,6.07,0,0,0-.88.08,4.36,4.36,0,0,0-.75.13V45.37H625.1V32.52a21.61,21.61,0,0,1,2.43-.67,13.7,13.7,0,0,1,3.15-.34,6.56,6.56,0,0,1,.75.05,7.62,7.62,0,0,1,.88.1,7.82,7.82,0,0,1,.88.15,3.58,3.58,0,0,1,.75.21l-.64,3.17"/><path id="path2995-5" class="cls-9" d="M636,32.26a20.09,20.09,0,0,1,2.53-.52,19.76,19.76,0,0,1,3.25-.26,7.62,7.62,0,0,1,2.86.46,4.22,4.22,0,0,1,1.83,1.26,5,5,0,0,1,1,2,10.43,10.43,0,0,1,.28,2.53v7.66h-3.84v-7.2a5.18,5.18,0,0,0-.49-2.63,2,2,0,0,0-1.83-.77,8,8,0,0,0-.88.05q-.46,0-.83.08V45.37H636V32.26"/><path id="path2997-7" class="cls-9" d="M650.56,38.69a8.37,8.37,0,0,1,.54-3.15,6.91,6.91,0,0,1,1.47-2.27,6.1,6.1,0,0,1,2.06-1.37,6.6,6.6,0,0,1,2.43-.46,6,6,0,0,1,4.57,1.78,7.23,7.23,0,0,1,1.68,5.19q0,.34,0,.75t-.05.7H654.5a2.55,2.55,0,0,0,1.11,1.88,4.46,4.46,0,0,0,2.63.7,11.66,11.66,0,0,0,2.06-.18,8.29,8.29,0,0,0,1.68-.49l.52,3.12a5.31,5.31,0,0,1-.83.31,9,9,0,0,1-1.16.26q-.62.13-1.34.21a13.55,13.55,0,0,1-1.44.08,8.65,8.65,0,0,1-3.2-.54,6.45,6.45,0,0,1-2.24-1.47A6.24,6.24,0,0,1,651,41.47a9.09,9.09,0,0,1-.41-2.79m9-1.47a3.6,3.6,0,0,0-.18-1,2.13,2.13,0,0,0-.44-.83,2.16,2.16,0,0,0-.75-.59,2.36,2.36,0,0,0-1.11-.23,2.46,2.46,0,0,0-1.11.23,2.16,2.16,0,0,0-.77.57,2.76,2.76,0,0,0-.49.85,6,6,0,0,0-.23,1h5.08"/><path id="path2999-1" class="cls-9" d="M666.14,28.42,670,27.8v4h4.62V35H670v4.77a3.89,3.89,0,0,0,.41,1.93,1.86,1.86,0,0,0,1.73.72,8,8,0,0,0,1.26-.1A7.26,7.26,0,0,0,674.6,42l.54,3a10.94,10.94,0,0,1-1.55.49,9,9,0,0,1-2.09.21,7.07,7.07,0,0,1-2.61-.41,4.25,4.25,0,0,1-1.65-1.19,4.65,4.65,0,0,1-.88-1.86,11.47,11.47,0,0,1-.23-2.4V28.42"/><path id="path3001-2" class="cls-9" d="M676.56,38.69a8.37,8.37,0,0,1,.54-3.15,6.91,6.91,0,0,1,1.47-2.27,6.1,6.1,0,0,1,2.06-1.37,6.6,6.6,0,0,1,2.43-.46,6,6,0,0,1,4.57,1.78,7.23,7.23,0,0,1,1.68,5.19q0,.34,0,.75t-.05.7H680.5a2.55,2.55,0,0,0,1.11,1.88,4.46,4.46,0,0,0,2.63.7,11.66,11.66,0,0,0,2.06-.18,8.29,8.29,0,0,0,1.68-.49l.52,3.12a5.31,5.31,0,0,1-.83.31,9,9,0,0,1-1.16.26q-.62.13-1.34.21a13.55,13.55,0,0,1-1.44.08,8.65,8.65,0,0,1-3.2-.54,6.45,6.45,0,0,1-2.24-1.47A6.24,6.24,0,0,1,677,41.47a9.09,9.09,0,0,1-.41-2.79m9-1.47a3.6,3.6,0,0,0-.18-1,2.13,2.13,0,0,0-.44-.83,2.16,2.16,0,0,0-.75-.59,2.36,2.36,0,0,0-1.11-.23,2.46,2.46,0,0,0-1.11.23,2.16,2.16,0,0,0-.77.57,2.76,2.76,0,0,0-.49.85,6,6,0,0,0-.23,1h5.08"/><path id="path3003-2" class="cls-9" d="M696.16,42.61a3.84,3.84,0,0,0,1.5-.21.8.8,0,0,0,.44-.8,1,1,0,0,0-.57-.8,9.93,9.93,0,0,0-1.73-.8q-.9-.34-1.65-.7a5.08,5.08,0,0,1-1.24-.85,3.63,3.63,0,0,1-.8-1.21,4.44,4.44,0,0,1-.28-1.68,3.63,3.63,0,0,1,1.42-3,6.17,6.17,0,0,1,3.9-1.11,11.82,11.82,0,0,1,2.37.23,10.38,10.38,0,0,1,1.81.46l-.67,3a13.8,13.8,0,0,0-1.47-.41,7.75,7.75,0,0,0-1.75-.18q-1.81,0-1.81,1a1,1,0,0,0,.08.41,1,1,0,0,0,.31.36q.23.15.62.36t1,.41a14.59,14.59,0,0,1,2.09.93A4.38,4.38,0,0,1,701,39a2.74,2.74,0,0,1,.67,1.16,4.92,4.92,0,0,1,.21,1.5,3.44,3.44,0,0,1-1.52,3,7.45,7.45,0,0,1-4.26,1,12.43,12.43,0,0,1-3-.31,12.25,12.25,0,0,1-1.65-.52l.64-3.12a13.61,13.61,0,0,0,2,.62,10.37,10.37,0,0,0,2,.21"/></g></g><g id="AWS"><rect id="Amazon_Frame_Small" data-name="Amazon Frame Small" class="cls-10" x="892.68" y="214.26" width="132.14" height="57.34"/><g id="AmazonWebservices"><g id="g10"><g id="g12"><polyline id="path14" class="cls-11" points="929.62 232.48 922.15 229.99 922.15 219.2 929.62 221.41 929.62 232.48"/><polyline id="path16" class="cls-11" points="931.56 221.41 939.03 219.2 939.01 229.98 931.56 232.48 931.56 221.41"/><polyline id="path18" class="cls-11" points="937.51 218.03 930.55 215.88 923.67 218.03 930.56 219.88 937.51 218.03"/><polyline id="path20" class="cls-11" points="948.43 232.48 940.97 229.99 940.97 219.2 948.44 221.41 948.43 232.48"/><polyline id="path22" class="cls-11" points="950.38 221.41 957.85 219.2 957.82 229.98 950.38 232.48 950.38 221.41"/><polyline id="path24" class="cls-11" points="956.33 218.03 949.37 215.88 942.49 218.03 949.38 219.88 956.33 218.03"/><polyline id="path26" class="cls-11" points="901.4 237.18 893.93 234.97 893.93 245.76 901.39 248.25 901.4 237.18"/><polyline id="path28" class="cls-11" points="903.34 237.18 910.81 234.97 910.78 245.75 903.34 248.25 903.34 237.18"/><polyline id="path30" class="cls-11" points="909.28 233.8 902.32 231.65 895.45 233.8 902.33 235.64 909.28 233.8"/><polyline id="path32" class="cls-11" points="920.21 248.25 912.74 245.76 912.74 234.97 920.22 237.18 920.21 248.25"/><polyline id="path34" class="cls-11" points="922.15 237.18 929.62 234.97 929.6 245.75 922.15 248.25 922.15 237.18"/><polyline id="path36" class="cls-11" points="928.1 233.8 921.14 231.65 914.27 233.8 921.15 235.64 928.1 233.8"/><polyline id="path38" class="cls-11" points="910.8 264.02 903.34 261.53 903.34 250.74 910.81 252.95 910.8 264.02"/><polyline id="path40" class="cls-11" points="912.74 252.95 920.22 250.74 920.19 261.52 912.74 264.02 912.74 252.95"/><polyline id="path42" class="cls-11" points="918.69 249.57 911.73 247.42 904.86 249.57 911.74 251.41 918.69 249.57"/><path id="path44" class="cls-12" d="M943.85,254.48h-.55a.56.56,0,0,0-.52.36l-1.67,5.87-1.65-5.85a.49.49,0,0,0-.46-.37h-.65a.49.49,0,0,0-.45.37l-1.53,5.79-1.58-5.81a.58.58,0,0,0-.53-.36h-.79a.51.51,0,0,0-.41.19.27.27,0,0,0,0,.25l2.45,8.66a.48.48,0,0,0,.44.37h.79a.48.48,0,0,0,.45-.37l1.51-5.77,1.64,5.77a.48.48,0,0,0,.44.37h.77a.46.46,0,0,0,.45-.37l2.35-8.65a.28.28,0,0,0,0-.25.5.5,0,0,0-.4-.19"/><path id="path46" class="cls-12" d="M950.64,258.16h-4.15a2.43,2.43,0,0,1,2.13-2.42A2.21,2.21,0,0,1,950.64,258.16Zm-2-3.74c-2.8,0-4.08,2.48-4.08,4.78,0,2.87,1.59,4.73,4,4.73a3.7,3.7,0,0,0,3.68-2.44.33.33,0,0,0,0-.27.46.46,0,0,0-.3-.21l-.78-.15a.52.52,0,0,0-.53.27,2.13,2.13,0,0,1-1.93,1.38,2.24,2.24,0,0,1-1.95-1.26,4.11,4.11,0,0,1-.33-1.8H952a.47.47,0,0,0,.33-.14.36.36,0,0,0,.11-.25c0-2.24-1-4.63-3.87-4.63Z"/><path id="path48" class="cls-12" d="M959.42,259.21c0,.53-.1,3.18-2,3.24a2.1,2.1,0,0,1-1.62-.94,3.55,3.55,0,0,1-.45-1.7v-1.56a2.52,2.52,0,0,1,2.07-2.55C959.32,255.78,959.42,258.64,959.42,259.21Zm-1.68-4.87h-.15a2.58,2.58,0,0,0-2.22,1.18v-3.65a.44.44,0,0,0-.45-.39h-.81a.44.44,0,0,0-.45.39v11.39a.44.44,0,0,0,.45.39h.24a.48.48,0,0,0,.44-.35l.25-.8a3,3,0,0,0,2.42,1.33h.15c2.5,0,3.62-2.43,3.62-4.84a6,6,0,0,0-.81-3.15,3.23,3.23,0,0,0-2.68-1.5Z"/><path id="path50" class="cls-12" d="M970.09,259a4.47,4.47,0,0,0-1.79-.63l-1.22-.23c-.87-.14-1.38-.38-1.38-1.15s.84-1.13,1.56-1.14a2,2,0,0,1,1.85,1.1.47.47,0,0,0,.42.27h.09l.76-.17a.47.47,0,0,0,.3-.22.33.33,0,0,0,0-.27c-.46-1.35-1.64-2.07-3.43-2.07-1.61,0-3.34.72-3.34,2.72,0,1.37.86,2.24,2.56,2.58l1.36.26c.75.14,1.51.4,1.51,1.2,0,1.19-1.38,1.31-1.8,1.32a2.3,2.3,0,0,1-2.26-1.32.45.45,0,0,0-.51-.29l-.79.16a.46.46,0,0,0-.29.21.35.35,0,0,0,0,.27c.41,1.47,1.83,2.36,3.8,2.37h0c1.76,0,3.63-.75,3.63-2.86a2.55,2.55,0,0,0-1.06-2.11"/><path id="path52" class="cls-12" d="M978.13,258.16H974a2.43,2.43,0,0,1,2.13-2.42A2.21,2.21,0,0,1,978.13,258.16Zm-2-3.74c-2.8,0-4.08,2.48-4.08,4.78,0,2.87,1.59,4.73,4,4.73a3.7,3.7,0,0,0,3.68-2.44.33.33,0,0,0,0-.27.46.46,0,0,0-.3-.21l-.78-.15a.51.51,0,0,0-.53.27,2.13,2.13,0,0,1-1.93,1.38,2.24,2.24,0,0,1-1.95-1.26,4.09,4.09,0,0,1-.33-1.8h5.63a.47.47,0,0,0,.33-.14.36.36,0,0,0,.11-.25c0-2.24-1-4.63-3.87-4.63Z"/><path id="path54" class="cls-12" d="M985.29,254.53l-.32,0a2.51,2.51,0,0,0-2.25,1.5v-.86a.43.43,0,0,0-.44-.39h-.7a.43.43,0,0,0-.44.39v8.35a.43.43,0,0,0,.44.39h.82a.45.45,0,0,0,.46-.39v-4.21a3.52,3.52,0,0,1,.4-1.84,2.21,2.21,0,0,1,2-1.32.43.43,0,0,0,.42-.42v-.78a.44.44,0,0,0-.4-.41"/><path id="path56" class="cls-12" d="M993.91,254.37h-.65a.58.58,0,0,0-.53.36l-2.1,6.6-2.15-6.6a.58.58,0,0,0-.53-.37H987a.52.52,0,0,0-.42.19.27.27,0,0,0,0,.25l2.94,8.71a.5.5,0,0,0,.44.37h1.12a.48.48,0,0,0,.45-.37l2.85-8.71a.27.27,0,0,0,0-.25.52.52,0,0,0-.42-.19"/><path id="path58" class="cls-12" d="M996,251a1.09,1.09,0,1,0,1.08,1.09A1.09,1.09,0,0,0,996,251"/><path id="path60" class="cls-12" d="M996.49,254.31h-.89a.46.46,0,0,0-.46.41v8.87a.39.39,0,0,0,.15.29.5.5,0,0,0,.31.11h.9a.45.45,0,0,0,.46-.41v-8.87a.45.45,0,0,0-.46-.41"/><path id="path62" class="cls-12" d="M1004.8,260.33h-.74a.48.48,0,0,0-.46.34c-.27,1.17-.89,1.78-1.82,1.8-1.81-.05-2-2.58-2-3.36,0-1.54.53-3.21,2-3.25a1.87,1.87,0,0,1,1.75,1.72.49.49,0,0,0,.43.41h.79a.45.45,0,0,0,.42-.43,3.38,3.38,0,0,0-3.36-3.13h-.13c-2.56,0-3.71,2.39-3.71,4.76,0,2.17,1,4.71,3.69,4.71h.13a3.47,3.47,0,0,0,3.38-3.15.35.35,0,0,0-.09-.26.53.53,0,0,0-.37-.17"/><path id="path64" class="cls-12" d="M1012.13,258.16H1008a2.43,2.43,0,0,1,2.13-2.42A2.21,2.21,0,0,1,1012.13,258.16Zm-2-3.74c-2.8,0-4.08,2.48-4.08,4.78,0,2.87,1.59,4.73,4,4.73a3.7,3.7,0,0,0,3.68-2.44.33.33,0,0,0,0-.27.45.45,0,0,0-.3-.21l-.78-.15a.51.51,0,0,0-.53.27,2.13,2.13,0,0,1-1.93,1.38,2.24,2.24,0,0,1-1.94-1.26,4.1,4.1,0,0,1-.33-1.8h5.63a.47.47,0,0,0,.33-.14.36.36,0,0,0,.11-.25c0-2.24-1-4.63-3.87-4.63Z"/><path id="path66" class="cls-12" d="M1021,259a4.47,4.47,0,0,0-1.8-.63l-1.22-.23c-.87-.14-1.38-.38-1.38-1.15,0-1.05,1.3-1.14,1.56-1.14a2,2,0,0,1,1.85,1.1.47.47,0,0,0,.42.27h.09l.76-.17a.47.47,0,0,0,.3-.22.33.33,0,0,0,0-.27c-.46-1.35-1.64-2.07-3.43-2.07-1.61,0-3.33.72-3.33,2.72,0,1.37.86,2.24,2.56,2.58l1.36.26c.75.14,1.51.4,1.51,1.2,0,1.19-1.38,1.31-1.8,1.32a2.28,2.28,0,0,1-2.26-1.32.45.45,0,0,0-.51-.29l-.79.16a.46.46,0,0,0-.29.21.35.35,0,0,0,0,.27c.41,1.47,1.83,2.36,3.8,2.37h0c1.76,0,3.64-.75,3.64-2.86A2.55,2.55,0,0,0,1021,259"/><path id="path68" class="cls-12" d="M984.89,237.24v-2a.5.5,0,0,1,.51-.51h9a.5.5,0,0,1,.52.51v1.73a2.84,2.84,0,0,1-.68,1.27l-4.67,6.67a10,10,0,0,1,5.15,1.1.92.92,0,0,1,.48.79v2.15c0,.3-.32.64-.66.46a10.4,10.4,0,0,0-9.54,0c-.31.17-.64-.17-.64-.47v-2a2.44,2.44,0,0,1,.34-1.38l5.42-7.77h-4.72a.5.5,0,0,1-.52-.51"/><path id="path70" class="cls-12" d="M952,249.81h-2.75a.52.52,0,0,1-.49-.46V235.26a.52.52,0,0,1,.53-.51h2.56a.52.52,0,0,1,.5.47v1.84h.05a3.62,3.62,0,0,1,3.61-2.61c1.72,0,2.79.83,3.56,2.61a4.06,4.06,0,0,1,7-1.07c.87,1.19.69,2.91.69,4.42v8.89a.52.52,0,0,1-.53.51h-2.74a.52.52,0,0,1-.49-.51v-7.47a18.07,18.07,0,0,0-.08-2.64,1.43,1.43,0,0,0-1.61-1.21,1.82,1.82,0,0,0-1.64,1.15,8.54,8.54,0,0,0-.26,2.7v7.47a.52.52,0,0,1-.53.51h-2.74a.52.52,0,0,1-.49-.51v-7.47c0-1.57.26-3.88-1.69-3.88s-1.9,2.25-1.9,3.88v7.47a.52.52,0,0,1-.53.51"/><path id="path72" class="cls-12" d="M1002.74,237.33c-2,0-2.15,2.76-2.15,4.48s0,5.4,2.13,5.4,2.23-3,2.23-4.77a13,13,0,0,0-.41-3.74,1.72,1.72,0,0,0-1.8-1.36Zm0-2.87c4.08,0,6.28,3.5,6.28,7.94s-2.44,7.71-6.28,7.71c-4,0-6.18-3.5-6.18-7.86s2.2-7.8,6.18-7.8Z"/><path id="path74" class="cls-12" d="M1014.28,249.81h-2.74a.52.52,0,0,1-.49-.51v-14.1a.52.52,0,0,1,.53-.46h2.55a.52.52,0,0,1,.49.39v2.16h.05c.77-1.93,1.85-2.85,3.74-2.85a3.6,3.6,0,0,1,3.2,1.66c.72,1.13.72,3,.72,4.39v8.87a.52.52,0,0,1-.52.44H1019a.52.52,0,0,1-.49-.44v-7.65c0-1.54.18-3.8-1.72-3.8a1.8,1.8,0,0,0-1.59,1.13,6.25,6.25,0,0,0-.44,2.67v7.59a.53.53,0,0,1-.53.51"/><path id="path76" class="cls-12" d="M982.58,247.23a3.77,3.77,0,0,1-1-2.55v-4.28c0-1.81.13-3.47-1.2-4.72a6.24,6.24,0,0,0-4.14-1.37c-2.62,0-5.53,1-6.14,4.2a.48.48,0,0,0,.42.57l2.65.29a.58.58,0,0,0,.48-.51,2.09,2.09,0,0,1,2.21-1.64,1.83,1.83,0,0,1,1.54.71,3.54,3.54,0,0,1,.34,2v.35a19.19,19.19,0,0,0-5.17,1,4.67,4.67,0,0,0-2.92,4.49,3.9,3.9,0,0,0,4.11,4.28,5.45,5.45,0,0,0,4.52-2,6.72,6.72,0,0,0,1.58,1.83.56.56,0,0,0,.64-.06h0c.55-.49,1.55-1.36,2.11-1.82A.53.53,0,0,0,982.58,247.23Zm-4.89-4.15a5.35,5.35,0,0,1-.52,2.91,2.22,2.22,0,0,1-1.9,1.25c-1.05,0-1.67-.8-1.67-2,0-2.34,2.1-2.77,4.08-2.77Z"/><path id="path78" class="cls-12" d="M946.59,247.23a3.77,3.77,0,0,1-1-2.55v-4.28c0-1.81.13-3.47-1.21-4.72a6.2,6.2,0,0,0-4.13-1.37c-2.62,0-5.53,1-6.14,4.2a.48.48,0,0,0,.41.57l2.66.29a.58.58,0,0,0,.48-.51,2.09,2.09,0,0,1,2.21-1.64,1.84,1.84,0,0,1,1.54.71,3.54,3.54,0,0,1,.33,2v.35a19.19,19.19,0,0,0-5.16,1,4.67,4.67,0,0,0-2.93,4.49,3.9,3.9,0,0,0,4.11,4.28,5.46,5.46,0,0,0,4.53-2,6.68,6.68,0,0,0,1.57,1.83.57.57,0,0,0,.65-.06h0c.54-.49,1.54-1.36,2.11-1.82A.53.53,0,0,0,946.59,247.23Zm-5.4-1.24a2.22,2.22,0,0,1-1.9,1.25c-1.05,0-1.67-.8-1.67-2,0-2.34,2.11-2.77,4.08-2.77v.6A5.34,5.34,0,0,1,941.19,246Z"/></g></g></g></g><path class="cls-13" d="M910.38,146c-2.12,0-4.24,0-6.36,0a3.51,3.51,0,0,1-2.91-1.36q-4.05-5-8.09-10a3.55,3.55,0,0,1-.66-3.27q1.42-5.85,2.7-11.74a4.25,4.25,0,0,1,2.54-3.19q5.47-2.52,10.89-5.17a4.09,4.09,0,0,1,3.92,0c3.55,1.76,7.14,3.45,10.74,5.12a4.22,4.22,0,0,1,2.58,3.16c.83,3.87,1.78,7.72,2.7,11.58a4.21,4.21,0,0,1-1,4q-3.68,4.37-7.18,8.9a4.6,4.6,0,0,1-4.2,2C914.2,145.94,912.29,146,910.38,146Zm.14-1.15c2,0,4,0,6,0a3,3,0,0,0,2.6-1.22q3.76-4.73,7.59-9.39a3,3,0,0,0,.68-2.8c-.93-3.91-1.86-7.82-2.73-11.74a3,3,0,0,0-1.76-2.27q-5.53-2.58-11-5.22a3.13,3.13,0,0,0-2.89,0q-5.58,2.67-11.17,5.32a2.59,2.59,0,0,0-1.55,1.87c-.91,4-1.86,8-2.8,12a3,3,0,0,0,.65,2.8q3.84,4.66,7.59,9.39a3,3,0,0,0,2.59,1.24C906.39,144.85,908.46,144.88,910.52,144.88Z"/><path class="cls-13" d="M946,136.48v-5.41s.11-.07.11-.09a1.42,1.42,0,0,0-.11-.22,7.45,7.45,0,0,0-.43-1.51c-.42-.79-1.21-.78-2-.65s-.5.82-.51,1.29c0,2-.09,4,0,6,.07,1.33-.73,1.15-1.52,1.13s-1.72.32-1.67-1.14c.09-2.75.06-5.51,0-8.26,0-.88.31-1.24,1.13-1.35,2.09-.28,4.2-.84,6.17.42.49.31.8-.06,1.16-.21,3.91-1.62,6.52,0,6.58,4.25,0,1.9,0,3.81-.05,5.72-.2.07-.3.17-.06.32a3.18,3.18,0,0,1-2.81,0s.11-.09.1-.1a1.67,1.67,0,0,0-.14-.21l0-6.35c.3-.2.15-.26-.09-.29-1-1.64-2.13-1.77-3-.36-.42.57-.62,1.11.13,1.58,0,1.25,0,2.5.08,3.75.07,2.48-.4,2.79-3,2,0,0,.1-.08.1-.09A1.42,1.42,0,0,0,946,136.48Z"/><path class="cls-14" d="M1002.75,129.11c0-2.17,0-4.34,0-6.51,0-1.77,1.41-1.21,2.29-1.38,1.16-.23.61.79.73,1.29a3.53,3.53,0,0,1,0,.79c0,.9-.3,2,.11,2.65.51.83,1.57-.12,2.43,0a4.39,4.39,0,0,1,3.31,1.63,6.74,6.74,0,0,1,.54,6.93c-1,2.25-3.06,2.8-5.28,2.77-4.12-.06-4.12-.1-4.12-4.18Q1002.75,131.1,1002.75,129.11Zm3,2.65a9.23,9.23,0,0,1,0,1.42c-.2,1.24.39,1.55,1.51,1.47a2.21,2.21,0,0,0,2.26-2c.18-1.38.5-2.93-1-3.84a1.68,1.68,0,0,0-2.72,1.54C1005.76,130.81,1005.76,131.29,1005.76,131.76Z"/><path class="cls-13" d="M979.64,136.47q0-7.31,0-14.62l.34-.31.93-.13.21.2.08-.29.39-.06c.25.33.62.26,1,.27V130c2-1.61,3-4.65,6.21-3.18-.32,1.36-1.57,2.17-2.53,3.17-.65.67-.87,1-.08,1.85a18.15,18.15,0,0,1,3.56,5c-2.84.59-3.06.51-4.67-1.78a13.16,13.16,0,0,0-2.45-2.78c0,1,0,1.76,0,2.5,0,2.47,0,2.47-2.56,2.17Z"/><path class="cls-13" d="M1020.23,132.63c-.69,0-1.38,0-2.06,0-.42,0-1.08-.32-1.19.34-.08.45.37.86.78,1.12,1.32.83,2.75.55,4.16.32.48-.08,1-.38,1,.42,0,.65.85,1.4-.17,2-1.8,1-5.84.53-7.41-.85s-2.19-4.55-1.15-6.91c1.29-2.92,3.55-3.39,6.32-2.88,2.36.44,3.75,3.12,3.37,5.74-.1.68-.44.73-1,.73C1022,132.62,1021.13,132.63,1020.23,132.63Zm-1.45-2.07c.67-.35,1.84.48,2-.56s-.77-1.53-1.84-1.53S1017,129,1017,130,1018.22,130.19,1018.78,130.56Z"/><path class="cls-13" d="M962.54,131.78q0-1.51,0-3c0-2.78-.2-2.13,2.19-2.65a7.23,7.23,0,0,1,1.1-.12c4.71-.29,6.15,1.05,6.16,5.74a37.69,37.69,0,0,0,0,3.8c.14,1.35-.44,1.53-1.61,1.56s-1.67-.33-1.58-1.59c.11-1.47,0-3,0-4.44a4.75,4.75,0,0,0-.17-1.41c-.39-1.17-1.37-1.17-2.35-1.07s-.63.94-.64,1.48c0,2-.1,3.92,0,5.87.08,1.34-.74,1.14-1.52,1.12s-1.77.31-1.66-1.15S962.54,133.15,962.54,131.78Z"/><path class="cls-14" d="M1000.38,131.41a36.62,36.62,0,0,0,0,3.81c.13,1.26-.42,1.66-1.54,1.79-5.56.63-8.19.16-7.82-6.41a19,19,0,0,0,0-3.17c-.14-1.25.57-1.24,1.43-1.19s1.74-.25,1.62,1.19a38,38,0,0,0,0,4.13,10,10,0,0,0,.23,1.88c.27,1.26,1.27,1.21,2.25,1.18,1.17,0,.79-.92.8-1.52,0-1.91.1-3.82,0-5.72-.09-1.47.87-1.08,1.65-1.14s1.53,0,1.42,1.21S1000.38,130.08,1000.38,131.41Z"/><path class="cls-14" d="M977.2,131.56c0,1.32-.1,2.66,0,4s-.45,1.53-1.62,1.57-1.46-.5-1.43-1.59c.07-2.7.1-5.41,0-8.11-.06-1.46.83-1.13,1.62-1.17s1.55-.05,1.44,1.19S977.2,130.18,977.2,131.56Z"/><path class="cls-14" d="M959.95,126.3c.61.35.31.94.31,1.41,0,2.31,0,4.62,0,6.93,0,2.52,0,2.52-2.55,2.34q0-3.6,0-7.2C957.72,127.11,957.72,127.11,959.95,126.3Z"/><path class="cls-13" d="M958.73,124.88c-1.08-.11-1.83-.64-1.83-1.78a1.83,1.83,0,1,1,3.66,0C960.55,124.25,959.82,124.78,958.73,124.88Z"/><path class="cls-14" d="M977.48,122.83c0,1.32-.6,2-1.76,2a1.6,1.6,0,0,1-1.82-1.72,1.65,1.65,0,0,1,1.75-1.83A1.6,1.6,0,0,1,977.48,122.83Z"/><path class="cls-13" d="M959.95,126.3c-2.23.81-2.23.81-2.23,3.48q0,3.6,0,7.2c-.92,0-.53-.76-.54-1.18,0-2.63.07-5.27-.06-7.9-.07-1.41.33-1.95,1.72-1.7C959.21,126.26,959.58,126.27,959.95,126.3Z"/><path class="cls-14" d="M948.95,131.06c-.74-.47-.54-1-.13-1.58A2.71,2.71,0,0,1,948.95,131.06Z"/><path class="cls-14" d="M982.54,121.53c-.34,0-.71.06-1-.27C981.93,121.26,982.38,120.86,982.54,121.53Z"/><path class="cls-14" d="M981.19,121.32l-.08.29-.21-.2A.31.31,0,0,1,981.19,121.32Z"/><path class="cls-14" d="M951.86,129.84c.24,0,.39.09.09.29A.33.33,0,0,1,951.86,129.84Z"/><path class="cls-14" d="M946,130.76a1.42,1.42,0,0,1,.11.22s-.07.06-.11.09A.39.39,0,0,1,946,130.76Z"/><path class="cls-14" d="M980,121.54l-.34.31C979.62,121.61,979.76,121.54,980,121.54Z"/><path class="cls-14" d="M946,136.48a1.42,1.42,0,0,1,.12.21s-.06.06-.1.09A.3.3,0,0,1,946,136.48Z"/><path class="cls-14" d="M952,136.47a1.67,1.67,0,0,1,.14.21s-.07.06-.1.1Z"/><path class="cls-14" d="M954.84,136.79c-.24-.15-.14-.25.06-.32Z"/><path class="cls-14" d="M979.64,136.47l.38.47C979.69,136.94,979.62,136.74,979.64,136.47Z"/><path class="cls-14" d="M918.32,140.56a3.79,3.79,0,0,1-4,2.2,66.59,66.59,0,0,0-7.28,0,4.35,4.35,0,0,1-4.67-2.45l1.53-.36c.57-.12,1.18-.18,1.33-.9s-.31-1.18-.8-1.61-1.31-1.07-1.92-1.65c-1.65-1.56-1.91-1.5-2.65.7a4.32,4.32,0,0,0-.11.62l-2-2.43c1.26-3.08,1.23-3.2-1-4.29l-.86-.62a1.24,1.24,0,0,1-.6-1.31c.16-.72.72-.78,1.32-.71.73.67,1.44,1.37,2.19,2a1.42,1.42,0,0,0,2.19.07,18.05,18.05,0,0,1,4.62-2.89c3.87-.67,3.88-.67,3.77-4.43,0-.85.22-1.6,1.14-1.55s1.1.8,1,1.65c-.39,3.5-.38,3.5,2.94,4.25a4.25,4.25,0,0,0,.63,0,41.13,41.13,0,0,1,4.15,2.49c1.66,1.35,2.32,1.23,3.76-.4a11.41,11.41,0,0,0,.8-1.16c.66.07,1.57-.4,1.8.66.19.85-.39,1.32-1.08,1.68a6.58,6.58,0,0,0-.75.53c-2,1-2,1.24-.65,3.87l-2.16,2.64c-.12-.46-.26-.91-.37-1.37-.31-1.23-.84-1.45-1.8-.49s-2,1.73-2.94,2.65c-.76.74-.58,1.44.41,1.81A8.28,8.28,0,0,1,918.32,140.56ZM909,130.51c.13-1.09-.08-1.24-.85-1.13a11,11,0,0,0-4.93,2.33c-.49.36-.52.7.05,1.09,1.27.85,2.48,1.78,3.75,2.62,1,.69,1.62.14,1.71-.9A22.41,22.41,0,0,1,909,130.51Zm3.59-1.18c-.31-.12-.66-.06-.65.56,0,1.58,0,3.16.13,4.72.11,1.06.78,1.45,1.78.73,1.15-.83,2.29-1.67,3.47-2.44.68-.45.69-.8.09-1.31A11.29,11.29,0,0,0,912.58,129.33Z"/><path class="cls-15" d="M915.07,126.94a4.25,4.25,0,0,1-.63,0c-3.32-.75-3.34-.75-2.94-4.25.1-.86-.1-1.61-1-1.65s-1.16.71-1.14,1.55c.11,3.76.1,3.76-3.77,4.43l-8.6-5.12,12.53-7.38a1.22,1.22,0,0,1,1.34,0q6.12,3.49,12.24,7c.15.09.19.35.29.54Z"/><path class="cls-16" d="M897,121.86l8.6,5.12a18.06,18.06,0,0,0-4.62,2.89,1.42,1.42,0,0,1-2.19-.07c-.75-.64-1.46-1.34-2.19-2,0-1.5,0-3,.13-4.51C896.74,122.8,896.42,122.23,897,121.86Z"/><path class="cls-16" d="M915.07,126.94l8.32-4.94c.63.21.45.75.45,1.19,0,1.56,0,3.13-.06,4.69A11.29,11.29,0,0,1,923,129c-1.44,1.63-2.1,1.74-3.76.4A41.13,41.13,0,0,0,915.07,126.94Z"/><path class="cls-16" d="M918.32,140.56a8.28,8.28,0,0,0-2.07-.71c-1-.37-1.17-1.06-.41-1.81.94-.92,2-1.72,2.94-2.65s1.49-.73,1.8.49c.12.46.25.92.37,1.37Z"/><path class="cls-16" d="M899.78,137.14a4.32,4.32,0,0,1,.11-.62c.74-2.2,1-2.26,2.65-.7.61.58,1.28,1.1,1.92,1.65s1,.87.8,1.61-.76.78-1.33.9l-1.53.36Z"/><path class="cls-16" d="M896.73,130.43c2.27,1.09,2.3,1.21,1,4.29C896.3,133.56,896.74,131.94,896.73,130.43Z"/><path class="cls-16" d="M923.11,134.62c-1.35-2.63-1.32-2.83.65-3.87C923.61,132.05,924.31,133.5,923.11,134.62Z"/><path class="cls-16" d="M909,130.51a22.41,22.41,0,0,0-.27,4c-.09,1-.67,1.59-1.71.9-1.27-.84-2.48-1.77-3.75-2.62-.57-.38-.55-.73-.05-1.09a11,11,0,0,1,4.93-2.33C908.91,129.27,909.12,129.42,909,130.51Z"/><path class="cls-16" d="M912.58,129.33a11.29,11.29,0,0,1,4.82,2.27c.6.51.59.86-.09,1.31-1.18.77-2.33,1.62-3.47,2.44-1,.72-1.67.33-1.78-.73-.16-1.56-.11-3.15-.13-4.72C911.91,129.28,912.26,129.21,912.58,129.33Z"/><path d="M32.7,129.59a6.16,6.16,0,0,0,2.71.67c1.12,0,1.71-.46,1.71-1.17s-.51-1.06-1.81-1.5c-1.79-.64-3-1.63-3-3.2,0-1.84,1.55-3.23,4.08-3.23a6.32,6.32,0,0,1,2.75.54l-.54,2a5,5,0,0,0-2.24-.51c-1.06,0-1.57.5-1.57,1s.59,1,2,1.52c1.91.7,2.79,1.7,2.79,3.22,0,1.81-1.38,3.35-4.34,3.35a7,7,0,0,1-3.06-.67Z"/><path d="M43.16,129c.06,1,1.07,1.49,2.21,1.49a6.46,6.46,0,0,0,2.16-.34l.32,1.65a7.4,7.4,0,0,1-2.83.5c-2.66,0-4.18-1.54-4.18-4a3.92,3.92,0,0,1,4-4.18c2.53,0,3.49,2,3.49,3.91a5.86,5.86,0,0,1-.08,1ZM46,127.3a1.41,1.41,0,0,0-1.38-1.58,1.61,1.61,0,0,0-1.5,1.58Z"/><path d="M49.74,126.85c0-1.15,0-1.91-.06-2.58h2.08l.1,1.44h.06A2.28,2.28,0,0,1,54,124.08a2.47,2.47,0,0,1,.51,0v2.29a3.71,3.71,0,0,0-.66-.06,1.56,1.56,0,0,0-1.67,1.23,2.93,2.93,0,0,0,0,.54v4H49.74Z"/><path d="M57.91,124.27,59,127.91c.19.67.32,1.28.45,1.9h0c.13-.64.26-1.23.43-1.9l1-3.63h2.56l-2.91,7.83H58.12l-2.85-7.83Z"/><path d="M67.09,122.1a1.21,1.21,0,0,1-1.31,1.22,1.22,1.22,0,1,1,1.31-1.22Zm-2.51,10v-7.83H67v7.83Z"/><path d="M74.84,131.89a5.56,5.56,0,0,1-2.18.37,3.8,3.8,0,0,1-4.15-4c0-2.29,1.57-4.16,4.48-4.16a5.64,5.64,0,0,1,1.86.3l-.38,1.81a3.33,3.33,0,0,0-1.36-.24,2.19,2.19,0,0,0,0,4.39,3.43,3.43,0,0,0,1.39-.26Z"/><path d="M77.88,129c.06,1,1.07,1.49,2.21,1.49a6.46,6.46,0,0,0,2.16-.34l.32,1.65a7.4,7.4,0,0,1-2.83.5c-2.66,0-4.18-1.54-4.18-4a3.92,3.92,0,0,1,4-4.18c2.53,0,3.49,2,3.49,3.91a5.86,5.86,0,0,1-.08,1Zm2.86-1.66a1.41,1.41,0,0,0-1.38-1.58,1.61,1.61,0,0,0-1.5,1.58Z"/><path d="M87.77,121.46a21.29,21.29,0,0,1,3.25-.22,5.51,5.51,0,0,1,3.49.85,2.74,2.74,0,0,1,1,2.27A2.86,2.86,0,0,1,93.61,127v0A2.69,2.69,0,0,1,95,129c.34,1.23.66,2.64.86,3.06h-2.5a14.42,14.42,0,0,1-.74-2.51c-.3-1.36-.77-1.71-1.78-1.73h-.72v4.24H87.77Zm2.42,4.64h1c1.22,0,1.94-.61,1.94-1.55s-.67-1.49-1.79-1.49a4.86,4.86,0,0,0-1.1.08Z"/><path d="M99,129c.06,1,1.07,1.49,2.21,1.49a6.46,6.46,0,0,0,2.16-.34l.32,1.65a7.4,7.4,0,0,1-2.83.5c-2.66,0-4.18-1.54-4.18-4a3.92,3.92,0,0,1,4-4.18c2.53,0,3.49,2,3.49,3.91a5.86,5.86,0,0,1-.08,1Zm2.86-1.66a1.41,1.41,0,0,0-1.38-1.58A1.61,1.61,0,0,0,99,127.3Z"/><path d="M113,131a4.45,4.45,0,0,1-1.2,3.52,4.76,4.76,0,0,1-3.17,1,6.26,6.26,0,0,1-2.82-.59l.48-1.86a4.76,4.76,0,0,0,2.27.59,1.86,1.86,0,0,0,2-2.06V131h0a2.53,2.53,0,0,1-2.11,1c-1.94,0-3.31-1.57-3.31-3.81,0-2.53,1.62-4.13,3.55-4.13a2.34,2.34,0,0,1,2.14,1.12h0l.08-.94h2.11c0,.51-.06,1.17-.06,2.34Zm-2.43-3.5a2.11,2.11,0,0,0,0-.45,1.33,1.33,0,0,0-1.31-1.07c-.9,0-1.6.8-1.6,2.22,0,1.17.58,2.08,1.58,2.08a1.33,1.33,0,0,0,1.3-1,2.22,2.22,0,0,0,.08-.66Z"/><path d="M117.5,122.1a1.21,1.21,0,0,1-1.31,1.22,1.22,1.22,0,1,1,1.31-1.22Zm-2.51,10v-7.83h2.43v7.83Z"/><path d="M119.35,130a4.75,4.75,0,0,0,2.1.58c.74,0,1-.24,1-.64s-.24-.61-1.14-.91c-1.63-.54-2.26-1.42-2.24-2.35,0-1.47,1.25-2.58,3.18-2.58a5.14,5.14,0,0,1,2.19.46l-.42,1.68a3.91,3.91,0,0,0-1.7-.45c-.59,0-.93.24-.93.62s.3.58,1.26.91c1.49.51,2.1,1.28,2.11,2.42,0,1.47-1.14,2.54-3.38,2.54a5.54,5.54,0,0,1-2.53-.56Z"/><path d="M129,122.16v2.11h1.75v1.79H129v2.83c0,.94.24,1.38,1,1.38a3,3,0,0,0,.72-.06l0,1.84a5.12,5.12,0,0,1-1.57.21,2.6,2.6,0,0,1-1.84-.67,3.24,3.24,0,0,1-.67-2.32v-3.2h-1v-1.79h1v-1.46Z"/><path d="M132.18,126.85c0-1.15,0-1.91-.06-2.58h2.08l.1,1.44h.06a2.28,2.28,0,0,1,2.11-1.63,2.47,2.47,0,0,1,.51,0v2.29a3.71,3.71,0,0,0-.66-.06,1.56,1.56,0,0,0-1.67,1.23,2.93,2.93,0,0,0,0,.54v4h-2.43Z"/><path d="M140.38,124.27l1.17,3.86c.13.45.29,1,.38,1.46H142c.1-.43.22-1,.34-1.47l1-3.84h2.59l-1.82,5.15c-1.12,3.12-1.87,4.35-2.75,5.14a4.27,4.27,0,0,1-2.34,1.07l-.53-2a3.86,3.86,0,0,0,1.06-.42,2.8,2.8,0,0,0,1-1,.73.73,0,0,0,.13-.35,1,1,0,0,0-.1-.4l-2.88-7.17Z"/><path d="M211.35,123.36h-2.91v-2h8.29v2h-2.95v8.74h-2.43Z"/><path d="M218.52,129c.06,1,1.07,1.49,2.21,1.49a6.46,6.46,0,0,0,2.16-.34l.32,1.65a7.4,7.4,0,0,1-2.83.5c-2.66,0-4.18-1.54-4.18-4a3.92,3.92,0,0,1,4-4.18c2.53,0,3.49,2,3.49,3.91a5.86,5.86,0,0,1-.08,1Zm2.86-1.66a1.41,1.41,0,0,0-1.38-1.58,1.61,1.61,0,0,0-1.5,1.58Z"/><path d="M225.09,120.74h2.43V132.1h-2.43Z"/><path d="M231.37,129c.06,1,1.07,1.49,2.21,1.49a6.46,6.46,0,0,0,2.16-.34l.32,1.65a7.4,7.4,0,0,1-2.83.5c-2.66,0-4.18-1.54-4.18-4a3.92,3.92,0,0,1,4-4.18c2.53,0,3.49,2,3.49,3.91a5.86,5.86,0,0,1-.08,1Zm2.86-1.66a1.41,1.41,0,0,0-1.38-1.58,1.61,1.61,0,0,0-1.5,1.58Z"/><path d="M245.35,131a4.45,4.45,0,0,1-1.2,3.52,4.76,4.76,0,0,1-3.17,1,6.26,6.26,0,0,1-2.82-.59l.48-1.86a4.76,4.76,0,0,0,2.27.59,1.86,1.86,0,0,0,2-2.06V131h0a2.53,2.53,0,0,1-2.11,1c-1.94,0-3.31-1.57-3.31-3.81,0-2.53,1.62-4.13,3.55-4.13a2.34,2.34,0,0,1,2.14,1.12h0l.08-.94h2.11c0,.51-.06,1.17-.06,2.34Zm-2.43-3.5a2.11,2.11,0,0,0,0-.45,1.33,1.33,0,0,0-1.31-1.07c-.9,0-1.6.8-1.6,2.22,0,1.17.58,2.08,1.58,2.08a1.33,1.33,0,0,0,1.3-1,2.22,2.22,0,0,0,.08-.66Z"/><path d="M247.3,126.85c0-1.15,0-1.91-.06-2.58h2.08l.1,1.44h.06a2.28,2.28,0,0,1,2.11-1.63,2.47,2.47,0,0,1,.51,0v2.29a3.71,3.71,0,0,0-.66-.06,1.56,1.56,0,0,0-1.67,1.23,2.93,2.93,0,0,0,0,.54v4H247.3Z"/><path d="M259.72,130.21a10.18,10.18,0,0,0,.13,1.89h-2.19l-.14-.78h0a2.82,2.82,0,0,1-2.24,1,2.4,2.4,0,0,1-2.53-2.4c0-2,1.83-3,4.59-3v-.1c0-.43-.22-1-1.42-1a4.4,4.4,0,0,0-2.16.59l-.45-1.57a6.43,6.43,0,0,1,3-.7c2.61,0,3.43,1.54,3.43,3.39Zm-2.35-1.81c-1.28,0-2.27.3-2.27,1.23a.87.87,0,0,0,1,.93,1.34,1.34,0,0,0,1.26-.9,1.74,1.74,0,0,0,0-.42Z"/><path d="M261.66,126.77c0-1,0-1.79-.06-2.5h2.07l.1,1.06h0a2.71,2.71,0,0,1,2.37-1.25,2.21,2.21,0,0,1,2.14,1.34h0a3.41,3.41,0,0,1,1-1,3,3,0,0,1,1.49-.38c1.5,0,2.64,1.06,2.64,3.41v4.61h-2.37v-4.26c0-1.14-.37-1.79-1.15-1.79a1.21,1.21,0,0,0-1.14.85,2.57,2.57,0,0,0-.08.62v4.58h-2.37v-4.4c0-1-.35-1.65-1.14-1.65a1.25,1.25,0,0,0-1.14.86,1.65,1.65,0,0,0-.1.63v4.56h-2.37Z"/><path d="M275.5,121.46a21.39,21.39,0,0,1,3.15-.22,6.05,6.05,0,0,1,3.2.61,2.34,2.34,0,0,1,1.28,2.13,2.45,2.45,0,0,1-1.78,2.29v0a2.68,2.68,0,0,1,2.14,2.64,2.88,2.88,0,0,1-1.12,2.3c-.78.62-2.1,1-4.24,1a18.86,18.86,0,0,1-2.64-.16Zm2.42,4.13h.8c1.3,0,2-.53,2-1.33S280.06,123,279,123a6.29,6.29,0,0,0-1,.06Zm0,4.79a7.65,7.65,0,0,0,.94,0c1.1,0,2.08-.43,2.08-1.57s-1-1.5-2.19-1.5h-.83Z"/><path d="M292.91,128.1a3.93,3.93,0,0,1-4.13,4.18,3.83,3.83,0,0,1-4-4,3.92,3.92,0,0,1,4.19-4.16A3.81,3.81,0,0,1,292.91,128.1Zm-5.67.08c0,1.34.56,2.35,1.6,2.35s1.55-.94,1.55-2.37c0-1.15-.45-2.34-1.55-2.34S287.24,127,287.24,128.18Z"/><path d="M297.13,122.16v2.11h1.75v1.79h-1.75v2.83c0,.94.24,1.38,1,1.38a3,3,0,0,0,.72-.06l0,1.84a5.12,5.12,0,0,1-1.57.21,2.6,2.6,0,0,1-1.84-.67,3.24,3.24,0,0,1-.67-2.32v-3.2h-1v-1.79h1v-1.46Z"/><path d="M499.5,121.47a21.46,21.46,0,0,1,3.28-.24,7,7,0,0,1,4.43,1.15,4.77,4.77,0,0,1,1.83,4.07,5.52,5.52,0,0,1-1.78,4.37,7.79,7.79,0,0,1-5,1.39,20.9,20.9,0,0,1-2.77-.16Zm2.43,8.79a4.59,4.59,0,0,0,.85,0c2.22,0,3.68-1.2,3.68-3.78a3.12,3.12,0,0,0-3.43-3.43,5.19,5.19,0,0,0-1.1.1Z"/><path d="M518.29,128.1a3.93,3.93,0,0,1-4.13,4.18,3.83,3.83,0,0,1-4-4,3.92,3.92,0,0,1,4.19-4.16A3.81,3.81,0,0,1,518.29,128.1Zm-5.67.08c0,1.34.56,2.35,1.6,2.35s1.55-.94,1.55-2.37c0-1.15-.45-2.34-1.55-2.34S512.62,127,512.62,128.18Z"/><path d="M525.71,131.89a5.56,5.56,0,0,1-2.18.37,3.8,3.8,0,0,1-4.15-4c0-2.29,1.57-4.16,4.48-4.16a5.64,5.64,0,0,1,1.86.3l-.38,1.81A3.33,3.33,0,0,0,524,126a2.19,2.19,0,0,0,0,4.39,3.43,3.43,0,0,0,1.39-.26Z"/><path d="M529.49,127.57h0a10.39,10.39,0,0,1,.56-.94l1.58-2.35h2.93l-2.8,3.17,3.2,4.66h-3l-1.91-3.22-.61.77v2.45h-2.43V120.74h2.43Z"/><path d="M537.38,129c.06,1,1.07,1.49,2.21,1.49a6.46,6.46,0,0,0,2.16-.34l.32,1.65a7.4,7.4,0,0,1-2.83.5c-2.66,0-4.18-1.54-4.18-4a3.92,3.92,0,0,1,4-4.18c2.53,0,3.49,2,3.49,3.91a5.86,5.86,0,0,1-.08,1Zm2.86-1.66a1.41,1.41,0,0,0-1.38-1.58,1.61,1.61,0,0,0-1.5,1.58Z"/><path d="M544,126.85c0-1.15,0-1.91-.06-2.58H546l.1,1.44h.06a2.28,2.28,0,0,1,2.11-1.63,2.47,2.47,0,0,1,.51,0v2.29a3.71,3.71,0,0,0-.66-.06,1.56,1.56,0,0,0-1.67,1.23,2.93,2.93,0,0,0,0,.54v4H544Z"/><path d="M496.52,151.09a5.56,5.56,0,0,1-2.18.37,3.8,3.8,0,0,1-4.15-4c0-2.29,1.57-4.16,4.48-4.16a5.64,5.64,0,0,1,1.86.3l-.38,1.81a3.33,3.33,0,0,0-1.36-.24,2.19,2.19,0,0,0,0,4.39,3.43,3.43,0,0,0,1.39-.26Z"/><path d="M505.42,147.3a3.93,3.93,0,0,1-4.13,4.18,3.83,3.83,0,0,1-4-4,3.92,3.92,0,0,1,4.19-4.16A3.81,3.81,0,0,1,505.42,147.3Zm-5.67.08c0,1.34.56,2.35,1.6,2.35s1.55-.94,1.55-2.37c0-1.15-.45-2.34-1.55-2.34S499.75,146.23,499.75,147.38Z"/><path d="M506.92,146c0-1,0-1.79-.06-2.5H509l.11,1.09h0a2.81,2.81,0,0,1,2.42-1.26c1.6,0,2.8,1.07,2.8,3.38v4.63h-2.43V147c0-1-.35-1.7-1.23-1.7a1.34,1.34,0,0,0-1.25.91,1.76,1.76,0,0,0-.08.61v4.51h-2.43Z"/><path d="M518.92,141.36v2.11h1.75v1.79h-1.75v2.83c0,.94.24,1.38,1,1.38a3,3,0,0,0,.72-.06l0,1.84a5.12,5.12,0,0,1-1.57.21,2.6,2.6,0,0,1-1.84-.67,3.24,3.24,0,0,1-.67-2.32v-3.2h-1v-1.79h1V142Z"/><path d="M528.59,149.41a10.18,10.18,0,0,0,.13,1.89h-2.19l-.14-.78h0a2.82,2.82,0,0,1-2.24,1,2.4,2.4,0,0,1-2.53-2.4c0-2,1.83-3,4.59-3V146c0-.43-.22-1-1.42-1a4.4,4.4,0,0,0-2.16.59l-.45-1.57a6.43,6.43,0,0,1,3-.7c2.61,0,3.43,1.54,3.43,3.39Zm-2.35-1.81c-1.28,0-2.27.3-2.27,1.23a.87.87,0,0,0,1,.93,1.34,1.34,0,0,0,1.26-.9,1.74,1.74,0,0,0,0-.42Z"/><path d="M533,141.3a1.21,1.21,0,0,1-1.31,1.22A1.22,1.22,0,1,1,533,141.3Zm-2.51,10v-7.83H533v7.83Z"/><path d="M534.9,146c0-1,0-1.79-.06-2.5H537l.11,1.09h0a2.81,2.81,0,0,1,2.42-1.26c1.6,0,2.8,1.07,2.8,3.38v4.63H539.9V147c0-1-.35-1.7-1.23-1.7a1.34,1.34,0,0,0-1.25.91,1.76,1.76,0,0,0-.08.61v4.51H534.9Z"/><path d="M546.15,148.16c.06,1,1.07,1.49,2.21,1.49a6.46,6.46,0,0,0,2.16-.34l.32,1.65a7.4,7.4,0,0,1-2.83.5c-2.66,0-4.18-1.54-4.18-4a3.92,3.92,0,0,1,4-4.18c2.53,0,3.49,2,3.49,3.91a5.86,5.86,0,0,1-.08,1ZM549,146.5a1.41,1.41,0,0,0-1.38-1.58,1.61,1.61,0,0,0-1.5,1.58Z"/><path d="M552.73,146.05c0-1.15,0-1.91-.06-2.58h2.08l.1,1.44h.06a2.28,2.28,0,0,1,2.11-1.63,2.47,2.47,0,0,1,.51,0v2.29a3.71,3.71,0,0,0-.66-.06,1.56,1.56,0,0,0-1.67,1.23,2.93,2.93,0,0,0,0,.54v4h-2.43Z"/><path d="M664.5,121.47a21.46,21.46,0,0,1,3.28-.24,7,7,0,0,1,4.43,1.15,4.77,4.77,0,0,1,1.83,4.07,5.52,5.52,0,0,1-1.78,4.37,7.79,7.79,0,0,1-5,1.39,20.9,20.9,0,0,1-2.77-.16Zm2.43,8.79a4.59,4.59,0,0,0,.85,0c2.22,0,3.68-1.2,3.68-3.78a3.12,3.12,0,0,0-3.43-3.43,5.19,5.19,0,0,0-1.1.1Z"/><path d="M683.29,128.1a3.93,3.93,0,0,1-4.13,4.18,3.83,3.83,0,0,1-4-4,3.92,3.92,0,0,1,4.19-4.16A3.81,3.81,0,0,1,683.29,128.1Zm-5.67.08c0,1.34.56,2.35,1.6,2.35s1.55-.94,1.55-2.37c0-1.15-.45-2.34-1.55-2.34S677.62,127,677.62,128.18Z"/><path d="M690.71,131.89a5.56,5.56,0,0,1-2.18.37,3.8,3.8,0,0,1-4.15-4c0-2.29,1.57-4.16,4.48-4.16a5.64,5.64,0,0,1,1.86.3l-.38,1.81A3.33,3.33,0,0,0,689,126a2.19,2.19,0,0,0,0,4.39,3.43,3.43,0,0,0,1.39-.26Z"/><path d="M694.49,127.57h0a10.39,10.39,0,0,1,.56-.94l1.58-2.35h2.93l-2.8,3.17,3.2,4.66h-3l-1.91-3.22-.61.77v2.45h-2.43V120.74h2.43Z"/><path d="M702.38,129c.06,1,1.07,1.49,2.21,1.49a6.46,6.46,0,0,0,2.16-.34l.32,1.65a7.4,7.4,0,0,1-2.83.5c-2.66,0-4.18-1.54-4.18-4a3.92,3.92,0,0,1,4-4.18c2.53,0,3.49,2,3.49,3.91a5.86,5.86,0,0,1-.08,1Zm2.86-1.66a1.41,1.41,0,0,0-1.38-1.58,1.61,1.61,0,0,0-1.5,1.58Z"/><path d="M709,126.85c0-1.15,0-1.91-.06-2.58H711l.1,1.44h.06a2.28,2.28,0,0,1,2.11-1.63,2.47,2.47,0,0,1,.51,0v2.29a3.71,3.71,0,0,0-.66-.06,1.56,1.56,0,0,0-1.67,1.23,2.93,2.93,0,0,0,0,.54v4H709Z"/><path d="M661.52,151.09a5.56,5.56,0,0,1-2.18.37,3.8,3.8,0,0,1-4.15-4c0-2.29,1.57-4.16,4.48-4.16a5.64,5.64,0,0,1,1.86.3l-.38,1.81a3.33,3.33,0,0,0-1.36-.24,2.19,2.19,0,0,0,0,4.39,3.43,3.43,0,0,0,1.39-.26Z"/><path d="M670.42,147.3a3.93,3.93,0,0,1-4.13,4.18,3.83,3.83,0,0,1-4-4,3.92,3.92,0,0,1,4.19-4.16A3.81,3.81,0,0,1,670.42,147.3Zm-5.67.08c0,1.34.56,2.35,1.6,2.35s1.55-.94,1.55-2.37c0-1.15-.45-2.34-1.55-2.34S664.75,146.23,664.75,147.38Z"/><path d="M671.92,146c0-1,0-1.79-.06-2.5H674l.11,1.09h0a2.81,2.81,0,0,1,2.42-1.26c1.6,0,2.8,1.07,2.8,3.38v4.63h-2.43V147c0-1-.35-1.7-1.23-1.7a1.34,1.34,0,0,0-1.25.91,1.76,1.76,0,0,0-.08.61v4.51h-2.43Z"/><path d="M683.92,141.36v2.11h1.75v1.79h-1.75v2.83c0,.94.24,1.38,1,1.38a3,3,0,0,0,.72-.06l0,1.84a5.12,5.12,0,0,1-1.57.21,2.6,2.6,0,0,1-1.84-.67,3.24,3.24,0,0,1-.67-2.32v-3.2h-1v-1.79h1V142Z"/><path d="M693.59,149.41a10.18,10.18,0,0,0,.13,1.89h-2.19l-.14-.78h0a2.82,2.82,0,0,1-2.24,1,2.4,2.4,0,0,1-2.53-2.4c0-2,1.83-3,4.59-3V146c0-.43-.22-1-1.42-1a4.4,4.4,0,0,0-2.16.59l-.45-1.57a6.43,6.43,0,0,1,3-.7c2.61,0,3.43,1.54,3.43,3.39Zm-2.35-1.81c-1.28,0-2.27.3-2.27,1.23a.87.87,0,0,0,1,.93,1.34,1.34,0,0,0,1.26-.9,1.74,1.74,0,0,0,0-.42Z"/><path d="M698,141.3a1.21,1.21,0,0,1-1.31,1.22A1.22,1.22,0,1,1,698,141.3Zm-2.51,10v-7.83H698v7.83Z"/><path d="M699.9,146c0-1,0-1.79-.06-2.5H702l.11,1.09h0a2.81,2.81,0,0,1,2.42-1.26c1.6,0,2.8,1.07,2.8,3.38v4.63H704.9V147c0-1-.35-1.7-1.23-1.7a1.34,1.34,0,0,0-1.25.91,1.76,1.76,0,0,0-.08.61v4.51H699.9Z"/><path d="M711.15,148.16c.06,1,1.07,1.49,2.21,1.49a6.46,6.46,0,0,0,2.16-.34l.32,1.65a7.4,7.4,0,0,1-2.83.5c-2.66,0-4.18-1.54-4.18-4a3.92,3.92,0,0,1,4-4.18c2.53,0,3.49,2,3.49,3.91a5.86,5.86,0,0,1-.08,1ZM714,146.5a1.41,1.41,0,0,0-1.38-1.58,1.61,1.61,0,0,0-1.5,1.58Z"/><path d="M717.73,146.05c0-1.15,0-1.91-.06-2.58h2.08l.1,1.44h.06a2.28,2.28,0,0,1,2.11-1.63,2.47,2.47,0,0,1,.51,0v2.29a3.71,3.71,0,0,0-.66-.06,1.56,1.56,0,0,0-1.67,1.23,2.93,2.93,0,0,0,0,.54v4h-2.43Z"/><path d="M499.5,231a21.46,21.46,0,0,1,3.28-.24,7,7,0,0,1,4.43,1.15A4.77,4.77,0,0,1,509,236a5.52,5.52,0,0,1-1.78,4.37,7.79,7.79,0,0,1-5,1.39,20.9,20.9,0,0,1-2.77-.16Zm2.43,8.79a4.59,4.59,0,0,0,.85,0c2.22,0,3.68-1.2,3.68-3.78a3.12,3.12,0,0,0-3.43-3.43,5.19,5.19,0,0,0-1.1.1Z"/><path d="M518.29,237.61a3.93,3.93,0,0,1-4.13,4.18,3.83,3.83,0,0,1-4-4,3.92,3.92,0,0,1,4.19-4.16A3.81,3.81,0,0,1,518.29,237.61Zm-5.67.08c0,1.34.56,2.35,1.6,2.35s1.55-.94,1.55-2.37c0-1.15-.45-2.34-1.55-2.34S512.62,236.53,512.62,237.69Z"/><path d="M525.71,241.4a5.56,5.56,0,0,1-2.18.37,3.8,3.8,0,0,1-4.15-4c0-2.29,1.57-4.16,4.48-4.16a5.64,5.64,0,0,1,1.86.3l-.38,1.81a3.33,3.33,0,0,0-1.36-.24,2.19,2.19,0,0,0,0,4.39,3.43,3.43,0,0,0,1.39-.26Z"/><path d="M529.49,237.08h0a10.39,10.39,0,0,1,.56-.94l1.58-2.35h2.93l-2.8,3.17,3.2,4.66h-3l-1.91-3.22-.61.77v2.45h-2.43V230.24h2.43Z"/><path d="M537.38,238.47c.06,1,1.07,1.49,2.21,1.49a6.46,6.46,0,0,0,2.16-.34l.32,1.65a7.4,7.4,0,0,1-2.83.5c-2.66,0-4.18-1.54-4.18-4a3.92,3.92,0,0,1,4-4.18c2.53,0,3.49,2,3.49,3.91a5.86,5.86,0,0,1-.08,1Zm2.86-1.66a1.41,1.41,0,0,0-1.38-1.58,1.61,1.61,0,0,0-1.5,1.58Z"/><path d="M544,236.36c0-1.15,0-1.91-.06-2.58H546l.1,1.44h.06a2.28,2.28,0,0,1,2.11-1.63,2.47,2.47,0,0,1,.51,0v2.29a3.71,3.71,0,0,0-.66-.06,1.56,1.56,0,0,0-1.67,1.23,2.93,2.93,0,0,0,0,.54v4H544Z"/><path d="M496.52,260.6a5.56,5.56,0,0,1-2.18.37,3.8,3.8,0,0,1-4.15-4c0-2.29,1.57-4.16,4.48-4.16a5.64,5.64,0,0,1,1.86.3l-.38,1.81a3.33,3.33,0,0,0-1.36-.24,2.19,2.19,0,0,0,0,4.39,3.43,3.43,0,0,0,1.39-.26Z"/><path d="M505.42,256.81a3.93,3.93,0,0,1-4.13,4.18,3.83,3.83,0,0,1-4-4,3.92,3.92,0,0,1,4.19-4.16A3.81,3.81,0,0,1,505.42,256.81Zm-5.67.08c0,1.34.56,2.35,1.6,2.35s1.55-.94,1.55-2.37c0-1.15-.45-2.34-1.55-2.34S499.75,255.73,499.75,256.89Z"/><path d="M506.92,255.48c0-1,0-1.79-.06-2.5H509l.11,1.09h0a2.81,2.81,0,0,1,2.42-1.26c1.6,0,2.8,1.07,2.8,3.38v4.63h-2.43v-4.34c0-1-.35-1.7-1.23-1.7a1.34,1.34,0,0,0-1.25.91,1.76,1.76,0,0,0-.08.61v4.51h-2.43Z"/><path d="M518.92,250.87V253h1.75v1.79h-1.75v2.83c0,.94.24,1.38,1,1.38a3,3,0,0,0,.72-.06l0,1.84A5.12,5.12,0,0,1,519,261a2.6,2.6,0,0,1-1.84-.67,3.24,3.24,0,0,1-.67-2.32v-3.2h-1V253h1v-1.46Z"/><path d="M528.59,258.92a10.18,10.18,0,0,0,.13,1.89h-2.19l-.14-.78h0a2.82,2.82,0,0,1-2.24,1,2.4,2.4,0,0,1-2.53-2.4c0-2,1.83-3,4.59-3v-.1c0-.43-.22-1-1.42-1a4.4,4.4,0,0,0-2.16.59l-.45-1.57a6.43,6.43,0,0,1,3-.7c2.61,0,3.43,1.54,3.43,3.39Zm-2.35-1.81c-1.28,0-2.27.3-2.27,1.23a.87.87,0,0,0,1,.93,1.34,1.34,0,0,0,1.26-.9,1.74,1.74,0,0,0,0-.42Z"/><path d="M533,250.8a1.21,1.21,0,0,1-1.31,1.22A1.22,1.22,0,1,1,533,250.8Zm-2.51,10V253H533v7.83Z"/><path d="M534.9,255.48c0-1,0-1.79-.06-2.5H537l.11,1.09h0a2.81,2.81,0,0,1,2.42-1.26c1.6,0,2.8,1.07,2.8,3.38v4.63H539.9v-4.34c0-1-.35-1.7-1.23-1.7a1.34,1.34,0,0,0-1.25.91,1.76,1.76,0,0,0-.08.61v4.51H534.9Z"/><path d="M546.15,257.67c.06,1,1.07,1.49,2.21,1.49a6.46,6.46,0,0,0,2.16-.34l.32,1.65a7.4,7.4,0,0,1-2.83.5c-2.66,0-4.18-1.54-4.18-4a3.92,3.92,0,0,1,4-4.18c2.53,0,3.49,2,3.49,3.91a5.86,5.86,0,0,1-.08,1ZM549,256a1.41,1.41,0,0,0-1.38-1.58,1.61,1.61,0,0,0-1.5,1.58Z"/><path d="M552.73,255.56c0-1.15,0-1.91-.06-2.58h2.08l.1,1.44h.06a2.28,2.28,0,0,1,2.11-1.63,2.47,2.47,0,0,1,.51,0v2.29a3.71,3.71,0,0,0-.66-.06,1.56,1.56,0,0,0-1.67,1.23,2.93,2.93,0,0,0,0,.54v4h-2.43Z"/><path d="M664.5,231a21.46,21.46,0,0,1,3.28-.24,7,7,0,0,1,4.43,1.15A4.77,4.77,0,0,1,674,236a5.52,5.52,0,0,1-1.78,4.37,7.79,7.79,0,0,1-5,1.39,20.9,20.9,0,0,1-2.77-.16Zm2.43,8.79a4.59,4.59,0,0,0,.85,0c2.22,0,3.68-1.2,3.68-3.78a3.12,3.12,0,0,0-3.43-3.43,5.19,5.19,0,0,0-1.1.1Z"/><path d="M683.29,237.61a3.93,3.93,0,0,1-4.13,4.18,3.83,3.83,0,0,1-4-4,3.92,3.92,0,0,1,4.19-4.16A3.81,3.81,0,0,1,683.29,237.61Zm-5.67.08c0,1.34.56,2.35,1.6,2.35s1.55-.94,1.55-2.37c0-1.15-.45-2.34-1.55-2.34S677.62,236.53,677.62,237.69Z"/><path d="M690.71,241.4a5.56,5.56,0,0,1-2.18.37,3.8,3.8,0,0,1-4.15-4c0-2.29,1.57-4.16,4.48-4.16a5.64,5.64,0,0,1,1.86.3l-.38,1.81a3.33,3.33,0,0,0-1.36-.24,2.19,2.19,0,0,0,0,4.39,3.43,3.43,0,0,0,1.39-.26Z"/><path d="M694.49,237.08h0a10.39,10.39,0,0,1,.56-.94l1.58-2.35h2.93l-2.8,3.17,3.2,4.66h-3l-1.91-3.22-.61.77v2.45h-2.43V230.24h2.43Z"/><path d="M702.38,238.47c.06,1,1.07,1.49,2.21,1.49a6.46,6.46,0,0,0,2.16-.34l.32,1.65a7.4,7.4,0,0,1-2.83.5c-2.66,0-4.18-1.54-4.18-4a3.92,3.92,0,0,1,4-4.18c2.53,0,3.49,2,3.49,3.91a5.86,5.86,0,0,1-.08,1Zm2.86-1.66a1.41,1.41,0,0,0-1.38-1.58,1.61,1.61,0,0,0-1.5,1.58Z"/><path d="M709,236.36c0-1.15,0-1.91-.06-2.58H711l.1,1.44h.06a2.28,2.28,0,0,1,2.11-1.63,2.47,2.47,0,0,1,.51,0v2.29a3.71,3.71,0,0,0-.66-.06,1.56,1.56,0,0,0-1.67,1.23,2.93,2.93,0,0,0,0,.54v4H709Z"/><path d="M661.52,260.6a5.56,5.56,0,0,1-2.18.37,3.8,3.8,0,0,1-4.15-4c0-2.29,1.57-4.16,4.48-4.16a5.64,5.64,0,0,1,1.86.3l-.38,1.81a3.33,3.33,0,0,0-1.36-.24,2.19,2.19,0,0,0,0,4.39,3.43,3.43,0,0,0,1.39-.26Z"/><path d="M670.42,256.81a3.93,3.93,0,0,1-4.13,4.18,3.83,3.83,0,0,1-4-4,3.92,3.92,0,0,1,4.19-4.16A3.81,3.81,0,0,1,670.42,256.81Zm-5.67.08c0,1.34.56,2.35,1.6,2.35s1.55-.94,1.55-2.37c0-1.15-.45-2.34-1.55-2.34S664.75,255.73,664.75,256.89Z"/><path d="M671.92,255.48c0-1,0-1.79-.06-2.5H674l.11,1.09h0a2.81,2.81,0,0,1,2.42-1.26c1.6,0,2.8,1.07,2.8,3.38v4.63h-2.43v-4.34c0-1-.35-1.7-1.23-1.7a1.34,1.34,0,0,0-1.25.91,1.76,1.76,0,0,0-.08.61v4.51h-2.43Z"/><path d="M683.92,250.87V253h1.75v1.79h-1.75v2.83c0,.94.24,1.38,1,1.38a3,3,0,0,0,.72-.06l0,1.84A5.12,5.12,0,0,1,684,261a2.6,2.6,0,0,1-1.84-.67,3.24,3.24,0,0,1-.67-2.32v-3.2h-1V253h1v-1.46Z"/><path d="M693.59,258.92a10.18,10.18,0,0,0,.13,1.89h-2.19l-.14-.78h0a2.82,2.82,0,0,1-2.24,1,2.4,2.4,0,0,1-2.53-2.4c0-2,1.83-3,4.59-3v-.1c0-.43-.22-1-1.42-1a4.4,4.4,0,0,0-2.16.59l-.45-1.57a6.43,6.43,0,0,1,3-.7c2.61,0,3.43,1.54,3.43,3.39Zm-2.35-1.81c-1.28,0-2.27.3-2.27,1.23a.87.87,0,0,0,1,.93,1.34,1.34,0,0,0,1.26-.9,1.74,1.74,0,0,0,0-.42Z"/><path d="M698,250.8a1.21,1.21,0,0,1-1.31,1.22A1.22,1.22,0,1,1,698,250.8Zm-2.51,10V253H698v7.83Z"/><path d="M699.9,255.48c0-1,0-1.79-.06-2.5H702l.11,1.09h0a2.81,2.81,0,0,1,2.42-1.26c1.6,0,2.8,1.07,2.8,3.38v4.63H704.9v-4.34c0-1-.35-1.7-1.23-1.7a1.34,1.34,0,0,0-1.25.91,1.76,1.76,0,0,0-.08.61v4.51H699.9Z"/><path d="M711.15,257.67c.06,1,1.07,1.49,2.21,1.49a6.46,6.46,0,0,0,2.16-.34l.32,1.65a7.4,7.4,0,0,1-2.83.5c-2.66,0-4.18-1.54-4.18-4a3.92,3.92,0,0,1,4-4.18c2.53,0,3.49,2,3.49,3.91a5.86,5.86,0,0,1-.08,1ZM714,256a1.41,1.41,0,0,0-1.38-1.58,1.61,1.61,0,0,0-1.5,1.58Z"/><path d="M717.73,255.56c0-1.15,0-1.91-.06-2.58h2.08l.1,1.44h.06a2.28,2.28,0,0,1,2.11-1.63,2.47,2.47,0,0,1,.51,0v2.29a3.71,3.71,0,0,0-.66-.06,1.56,1.56,0,0,0-1.67,1.23,2.93,2.93,0,0,0,0,.54v4h-2.43Z"/><path d="M40.09,241.61l-2.56-10.79h2.61l.82,4.43c.24,1.3.46,2.69.64,3.78h0c.18-1.17.43-2.46.7-3.81l.91-4.4h2.59l.86,4.55c.24,1.26.42,2.42.58,3.62h0c.16-1.2.4-2.46.62-3.76l.88-4.4h2.48l-2.79,10.79H45.87L45,237c-.21-1.09-.38-2.1-.51-3.33h0c-.19,1.22-.37,2.24-.62,3.33l-1,4.64Z"/><path d="M59.53,237.61a3.93,3.93,0,0,1-4.13,4.18,3.83,3.83,0,0,1-4-4,3.92,3.92,0,0,1,4.19-4.16A3.81,3.81,0,0,1,59.53,237.61Zm-5.67.08c0,1.34.56,2.35,1.6,2.35S57,239.1,57,237.67c0-1.15-.45-2.34-1.55-2.34S53.86,236.53,53.86,237.69Z"/><path d="M61,230.24h2.43v11.36H61Z"/><path d="M65.72,241.61v-6h-1v-1.79h1v-.3a3.62,3.62,0,0,1,1-2.62,3.2,3.2,0,0,1,2.18-.79,5.33,5.33,0,0,1,1.28.16l-.1,1.87a2.62,2.62,0,0,0-.78-.11c-.8,0-1.14.62-1.14,1.39v.4H69.7v1.79H68.15v6Z"/><path d="M70.89,236.36c0-1.15,0-1.91-.06-2.58H72.9l.1,1.44h.06a2.28,2.28,0,0,1,2.11-1.63,2.47,2.47,0,0,1,.51,0v2.29a3.71,3.71,0,0,0-.66-.06,1.56,1.56,0,0,0-1.67,1.23,2.93,2.93,0,0,0,0,.54v4H70.89Z"/><path d="M83.31,239.72a10.18,10.18,0,0,0,.13,1.89H81.24l-.14-.78h0a2.82,2.82,0,0,1-2.24,1,2.4,2.4,0,0,1-2.53-2.4c0-2,1.83-3,4.59-3v-.1c0-.43-.22-1-1.42-1a4.4,4.4,0,0,0-2.16.59l-.45-1.57a6.43,6.43,0,0,1,3-.7c2.61,0,3.43,1.54,3.43,3.39ZM81,237.91c-1.28,0-2.27.3-2.27,1.23a.87.87,0,0,0,1,.93,1.34,1.34,0,0,0,1.26-.9,1.74,1.74,0,0,0,0-.42Z"/><path d="M85.24,236.28c0-1,0-1.79-.06-2.5h2.07l.1,1.06h0a2.71,2.71,0,0,1,2.37-1.25,2.21,2.21,0,0,1,2.14,1.34h0a3.41,3.41,0,0,1,1-1,3,3,0,0,1,1.49-.38c1.5,0,2.64,1.06,2.64,3.41v4.61H94.71v-4.26c0-1.14-.37-1.79-1.15-1.79a1.21,1.21,0,0,0-1.14.85,2.57,2.57,0,0,0-.08.62v4.58H90v-4.4c0-1-.35-1.65-1.14-1.65a1.25,1.25,0,0,0-1.14.86,1.65,1.65,0,0,0-.1.63v4.56H85.24Z"/><path d="M101.59,238.84l-.77,2.77H98.31l3.28-10.79h3.2l3.36,10.79h-2.64l-.83-2.77Zm2.74-1.82-.67-2.29c-.19-.64-.38-1.44-.54-2.08h0c-.16.64-.32,1.46-.5,2.08l-.64,2.29Z"/><path d="M109.4,230.24h2.43v11.36H109.4Z"/><path d="M113.8,236.41c0-1,0-1.89-.06-2.62h2.11l.11,1.09h0a3,3,0,0,1,2.61-1.26c1.71,0,3.25,1.49,3.25,4,0,2.85-1.81,4.19-3.55,4.19a2.43,2.43,0,0,1-2-.9h0v3.89H113.8Zm2.43,1.84a2.58,2.58,0,0,0,0,.51,1.47,1.47,0,0,0,1.42,1.15c1.06,0,1.68-.88,1.68-2.21s-.56-2.19-1.65-2.19a1.53,1.53,0,0,0-1.46,1.23,1.93,1.93,0,0,0,0,.43Z"/><path d="M123.37,230.24h2.43v4.48h0a2.62,2.62,0,0,1,1-.82,2.78,2.78,0,0,1,1.26-.3c1.55,0,2.74,1.07,2.74,3.44v4.56h-2.43V237.3c0-1-.35-1.73-1.26-1.73a1.29,1.29,0,0,0-1.22.86,1.42,1.42,0,0,0-.08.53v4.64h-2.43Z"/><path d="M139.26,239.72a10.18,10.18,0,0,0,.13,1.89h-2.19l-.14-.78h0a2.82,2.82,0,0,1-2.24,1,2.4,2.4,0,0,1-2.53-2.4c0-2,1.83-3,4.59-3v-.1c0-.43-.22-1-1.42-1a4.4,4.4,0,0,0-2.16.59l-.45-1.57a6.43,6.43,0,0,1,3-.7c2.61,0,3.43,1.54,3.43,3.39Zm-2.35-1.81c-1.28,0-2.27.3-2.27,1.23a.87.87,0,0,0,1,.93,1.34,1.34,0,0,0,1.26-.9,1.74,1.74,0,0,0,0-.42Z"/><path d="M233,155.21a3.19,3.19,0,0,0,1.76.53c1.21,0,2-.68,2-1.68s-.47-1.44-1.64-1.88S233,151,233,149.95a2.13,2.13,0,0,1,2.35-2.05,3.14,3.14,0,0,1,1.61.37l-.22.49a2.58,2.58,0,0,0-1.43-.38,1.53,1.53,0,0,0-1.75,1.47c0,.89.52,1.34,1.68,1.8,1.33.54,2,1.15,2,2.35a2.26,2.26,0,0,1-2.57,2.22,3.63,3.63,0,0,1-1.93-.54Z"/><path d="M239,153.16c0,1.83,1,2.57,2.19,2.57a3.36,3.36,0,0,0,1.6-.32l.14.44a3.79,3.79,0,0,1-1.81.37,2.64,2.64,0,0,1-2.69-2.89c0-1.92,1.1-3.12,2.59-3.12a2.35,2.35,0,0,1,2.24,2.6,1.45,1.45,0,0,1,0,.35Zm3.67-.46a1.76,1.76,0,0,0-1.71-2,2,2,0,0,0-1.92,2Z"/><path d="M244.69,152.07c0-.58,0-1.16,0-1.73h.53l0,1.16h0a1.77,1.77,0,0,1,1.63-1.29l.24,0v.54h-.28c-.79,0-1.36.68-1.51,1.61a2.68,2.68,0,0,0,0,.55v3.18h-.58Z"/><path d="M248.42,150.35l1.34,3.57c.23.56.41,1,.56,1.54h0c.16-.48.37-1,.59-1.54l1.37-3.57h.6l-2.34,5.76h-.5l-2.25-5.76Z"/><path d="M254.29,149.19a.46.46,0,0,1-.44-.49.49.49,0,0,1,.47-.5.47.47,0,0,1,.46.5.47.47,0,0,1-.47.49ZM254,156.1v-5.76h.58v5.76Z"/><path d="M260.5,155.85a3.92,3.92,0,0,1-1.69.37,2.71,2.71,0,0,1-2.76-2.94,2.89,2.89,0,0,1,3-3.07,3,3,0,0,1,1.51.36l-.2.47a2.58,2.58,0,0,0-1.36-.34,2.31,2.31,0,0,0-2.34,2.53,2.27,2.27,0,0,0,2.28,2.49,3.18,3.18,0,0,0,1.44-.34Z"/><path d="M262,153.16c0,1.83,1,2.57,2.19,2.57a3.36,3.36,0,0,0,1.6-.32l.14.44a3.79,3.79,0,0,1-1.81.37,2.64,2.64,0,0,1-2.69-2.89c0-1.92,1.1-3.12,2.59-3.12a2.35,2.35,0,0,1,2.24,2.6,1.45,1.45,0,0,1,0,.35Zm3.67-.46a1.76,1.76,0,0,0-1.71-2,2,2,0,0,0-1.92,2Z"/><path d="M272.19,148.89h0l-1.27.74-.14-.46,1.47-.88h.53v7.8h-.56Z"/><path d="M68,263.13a3.2,3.2,0,0,0,1.76.53c1.21,0,2-.68,2-1.68s-.47-1.44-1.64-1.88S68,259,68,257.86a2.13,2.13,0,0,1,2.35-2.05,3.15,3.15,0,0,1,1.61.37l-.22.49a2.58,2.58,0,0,0-1.43-.38,1.53,1.53,0,0,0-1.75,1.47c0,.89.52,1.34,1.68,1.8,1.33.54,2,1.15,2,2.35a2.26,2.26,0,0,1-2.57,2.22,3.63,3.63,0,0,1-1.93-.54Z"/><path d="M74,261.08c0,1.83,1,2.57,2.19,2.57a3.36,3.36,0,0,0,1.6-.32l.14.44a3.8,3.8,0,0,1-1.81.37,2.64,2.64,0,0,1-2.69-2.89c0-1.92,1.1-3.12,2.59-3.12a2.35,2.35,0,0,1,2.24,2.6,1.39,1.39,0,0,1,0,.35Zm3.67-.46a1.76,1.76,0,0,0-1.71-2,2,2,0,0,0-1.92,2Z"/><path d="M79.69,260c0-.58,0-1.16,0-1.73h.53l0,1.16h0a1.77,1.77,0,0,1,1.63-1.29l.24,0v.54h-.28c-.79,0-1.36.68-1.51,1.61a2.61,2.61,0,0,0,0,.55V264h-.57Z"/><path d="M83.42,258.26l1.34,3.57c.23.56.41,1,.56,1.54h0c.16-.48.37-1,.59-1.54l1.37-3.57h.6L85.57,264h-.5l-2.26-5.76Z"/><path d="M89.29,257.11a.46.46,0,0,1-.44-.49.49.49,0,0,1,.47-.5.47.47,0,0,1,.46.5.47.47,0,0,1-.47.49ZM89,264v-5.76h.57V264Z"/><path d="M95.5,263.77a3.92,3.92,0,0,1-1.69.37,2.71,2.71,0,0,1-2.76-2.94,2.89,2.89,0,0,1,3-3.07,2.94,2.94,0,0,1,1.51.36l-.2.47a2.58,2.58,0,0,0-1.36-.34,2.31,2.31,0,0,0-2.34,2.53,2.27,2.27,0,0,0,2.28,2.49,3.18,3.18,0,0,0,1.44-.34Z"/><path d="M97,261.08c0,1.83,1,2.57,2.19,2.57a3.36,3.36,0,0,0,1.6-.32l.14.44a3.8,3.8,0,0,1-1.81.37,2.64,2.64,0,0,1-2.69-2.89c0-1.92,1.1-3.12,2.59-3.12a2.35,2.35,0,0,1,2.24,2.6,1.39,1.39,0,0,1,0,.35Zm3.67-.46a1.76,1.76,0,0,0-1.71-2,2,2,0,0,0-1.92,2Z"/><path d="M104.91,264v-.35l.72-.74c2.17-2.12,3.12-3.23,3.12-4.57a1.56,1.56,0,0,0-1.69-1.76,2.58,2.58,0,0,0-1.66.67l-.23-.4a3,3,0,0,1,2-.78,2.05,2.05,0,0,1,2.17,2.15c0,1.54-1.12,2.77-3.07,4.7l-.55.58v0h3.84V264Z"/><path d="M233,263.13a3.19,3.19,0,0,0,1.76.53c1.21,0,2-.68,2-1.68s-.47-1.44-1.64-1.88S233,259,233,257.86a2.13,2.13,0,0,1,2.35-2.05,3.14,3.14,0,0,1,1.61.37l-.22.49a2.58,2.58,0,0,0-1.43-.38,1.53,1.53,0,0,0-1.75,1.47c0,.89.52,1.34,1.68,1.8,1.33.54,2,1.15,2,2.35a2.26,2.26,0,0,1-2.57,2.22,3.63,3.63,0,0,1-1.93-.54Z"/><path d="M239,261.08c0,1.83,1,2.57,2.19,2.57a3.36,3.36,0,0,0,1.6-.32l.14.44a3.79,3.79,0,0,1-1.81.37,2.64,2.64,0,0,1-2.69-2.89c0-1.92,1.1-3.12,2.59-3.12a2.35,2.35,0,0,1,2.24,2.6,1.45,1.45,0,0,1,0,.35Zm3.67-.46a1.76,1.76,0,0,0-1.71-2,2,2,0,0,0-1.92,2Z"/><path d="M244.69,260c0-.58,0-1.16,0-1.73h.53l0,1.16h0a1.77,1.77,0,0,1,1.63-1.29l.24,0v.54h-.28c-.79,0-1.36.68-1.51,1.61a2.68,2.68,0,0,0,0,.55V264h-.58Z"/><path d="M248.42,258.26l1.34,3.57c.23.56.41,1,.56,1.54h0c.16-.48.37-1,.59-1.54l1.37-3.57h.6L250.57,264h-.5l-2.25-5.76Z"/><path d="M254.29,257.11a.46.46,0,0,1-.44-.49.49.49,0,0,1,.47-.5.47.47,0,0,1,.46.5.47.47,0,0,1-.47.49ZM254,264v-5.76h.58V264Z"/><path d="M260.5,263.77a3.92,3.92,0,0,1-1.69.37,2.71,2.71,0,0,1-2.76-2.94,2.89,2.89,0,0,1,3-3.07,3,3,0,0,1,1.51.36l-.2.47a2.58,2.58,0,0,0-1.36-.34,2.31,2.31,0,0,0-2.34,2.53,2.27,2.27,0,0,0,2.28,2.49,3.18,3.18,0,0,0,1.44-.34Z"/><path d="M262,261.08c0,1.83,1,2.57,2.19,2.57a3.36,3.36,0,0,0,1.6-.32l.14.44a3.79,3.79,0,0,1-1.81.37,2.64,2.64,0,0,1-2.69-2.89c0-1.92,1.1-3.12,2.59-3.12a2.35,2.35,0,0,1,2.24,2.6,1.45,1.45,0,0,1,0,.35Zm3.67-.46a1.76,1.76,0,0,0-1.71-2,2,2,0,0,0-1.92,2Z"/><path d="M270.13,263.17a3.09,3.09,0,0,0,1.68.49,1.74,1.74,0,0,0,2-1.8c0-1.31-1.14-1.83-2.29-1.83H271v-.48h.52c.86,0,2-.49,2-1.57a1.33,1.33,0,0,0-1.51-1.39,2.63,2.63,0,0,0-1.51.54l-.23-.42a3.1,3.1,0,0,1,1.81-.61,1.8,1.8,0,0,1,2,1.81,2,2,0,0,1-1.45,1.85v0a2.08,2.08,0,0,1,1.76,2.06,2.36,2.36,0,0,1-2.64,2.31,3.3,3.3,0,0,1-1.83-.53Z"/><path d="M217.16,230.82V235h4v-4.15h2.43v10.79h-2.43v-4.51h-4v4.51h-2.43V230.82Z"/><path d="M227.48,238.47c.06,1,1.07,1.49,2.21,1.49a6.46,6.46,0,0,0,2.16-.34l.32,1.65a7.4,7.4,0,0,1-2.83.5c-2.66,0-4.18-1.54-4.18-4a3.92,3.92,0,0,1,4-4.18c2.53,0,3.49,2,3.49,3.91a5.86,5.86,0,0,1-.08,1Zm2.86-1.66a1.41,1.41,0,0,0-1.38-1.58,1.61,1.61,0,0,0-1.5,1.58Z"/><path d="M234.06,230.24h2.43v11.36h-2.43Z"/><path d="M238.46,230.24h2.43v11.36h-2.43Z"/><path d="M250.59,237.61a3.93,3.93,0,0,1-4.13,4.18,3.83,3.83,0,0,1-4-4,3.92,3.92,0,0,1,4.19-4.16A3.81,3.81,0,0,1,250.59,237.61Zm-5.67.08c0,1.34.56,2.35,1.6,2.35s1.55-.94,1.55-2.37c0-1.15-.45-2.34-1.55-2.34S244.92,236.53,244.92,237.69Z"/><path d="M253.91,241.61l-2.56-10.79H254l.82,4.43c.24,1.3.46,2.69.64,3.78h0c.18-1.17.43-2.46.7-3.81l.91-4.4h2.59l.86,4.55c.24,1.26.42,2.42.58,3.62h0c.16-1.2.4-2.46.62-3.76l.88-4.4h2.48l-2.79,10.79h-2.64l-.91-4.64c-.21-1.09-.38-2.1-.51-3.33h0c-.19,1.22-.37,2.24-.62,3.33l-1,4.64Z"/><path d="M273.35,237.61a3.93,3.93,0,0,1-4.13,4.18,3.83,3.83,0,0,1-4-4,3.92,3.92,0,0,1,4.19-4.16A3.81,3.81,0,0,1,273.35,237.61Zm-5.67.08c0,1.34.56,2.35,1.6,2.35s1.55-.94,1.55-2.37c0-1.15-.45-2.34-1.55-2.34S267.69,236.53,267.69,237.69Z"/><path d="M274.86,236.36c0-1.15,0-1.91-.06-2.58h2.08l.1,1.44H277a2.28,2.28,0,0,1,2.11-1.63,2.47,2.47,0,0,1,.51,0v2.29a3.71,3.71,0,0,0-.66-.06,1.56,1.56,0,0,0-1.67,1.23,2.93,2.93,0,0,0,0,.54v4h-2.43Z"/><path d="M280.89,230.24h2.43v11.36h-2.43Z"/><path d="M292.88,230.24v9c0,.88,0,1.81.06,2.34h-2.16l-.1-1.14h0a2.73,2.73,0,0,1-2.45,1.31c-1.86,0-3.35-1.58-3.35-4,0-2.64,1.63-4.18,3.5-4.18a2.41,2.41,0,0,1,2.07.88h0v-4.23Zm-2.43,6.85a2.17,2.17,0,0,0,0-.45,1.46,1.46,0,0,0-1.42-1.18c-1.12,0-1.68,1-1.68,2.22s.66,2.16,1.67,2.16a1.44,1.44,0,0,0,1.42-1.17,3.16,3.16,0,0,0,0-.56Z"/><polyline class="cls-17" points="415.43 175.59 425.27 185.44 415.43 195.28"/><line class="cls-17" x1="425.27" y1="185.44" x2="352.23" y2="185.44"/><polyline class="cls-17" points="852.27 138.06 860.27 146.06 852.27 154.06"/><line class="cls-17" x1="860.27" y1="146.06" x2="787.23" y2="146.06"/><path d="M795,117.7c-.07-1.21-.17-2.7-.17-3.59h0c-.3.88-.62,1.81-1.09,3l-1.7,4.39h-.4l-1.6-4.29c-.46-1.26-.8-2.23-1-3.12h0c0,.95-.08,2.35-.18,3.69l-.25,3.72H788l.59-8.08h.66l1.74,4.67c.38,1,.66,1.83.89,2.61h0c.2-.74.49-1.52.9-2.61l1.81-4.67h.68l.54,8.08h-.56Z"/><path d="M801.22,120.16a8.59,8.59,0,0,0,.08,1.37h-.53l-.08-.83h0a2.2,2.2,0,0,1-1.85,1,1.56,1.56,0,0,1-1.69-1.58c0-1.33,1.16-2.13,3.51-2.11v-.16c0-.56-.11-1.7-1.47-1.69a2.51,2.51,0,0,0-1.45.43l-.18-.42a3.18,3.18,0,0,1,1.69-.49c1.67,0,2,1.25,2,2.27Zm-.58-1.71c-1.26,0-2.91.16-2.91,1.54a1.1,1.1,0,0,0,1.15,1.2,1.72,1.72,0,0,0,1.7-1.15,1,1,0,0,0,.06-.35Z"/><path d="M803.08,117.15c0-.53,0-.92,0-1.38h.54l0,1h0a2.16,2.16,0,0,1,2-1.16c.55,0,2,.28,2,2.43v3.45H807v-3.41c0-1.06-.41-2-1.6-2a1.85,1.85,0,0,0-1.73,1.33,2,2,0,0,0-.07.5v3.57h-.58Z"/><path d="M813.95,120.12c0,.5,0,1,0,1.4h-.54l0-1h0a2.21,2.21,0,0,1-2,1.16c-.73,0-2-.37-2-2.54v-3.35H810V119c0,1.25.38,2.15,1.52,2.15a1.9,1.9,0,0,0,1.7-1.16,2.09,2.09,0,0,0,.11-.64v-3.59h.58Z"/><path d="M819.47,120.16a8.59,8.59,0,0,0,.08,1.37H819l-.08-.83h0a2.2,2.2,0,0,1-1.85,1,1.56,1.56,0,0,1-1.69-1.58c0-1.33,1.16-2.13,3.51-2.11v-.16c0-.56-.11-1.7-1.47-1.69a2.51,2.51,0,0,0-1.45.43l-.18-.42a3.18,3.18,0,0,1,1.69-.49c1.67,0,2,1.25,2,2.27Zm-.58-1.71c-1.26,0-2.91.16-2.91,1.54a1.1,1.1,0,0,0,1.15,1.2,1.72,1.72,0,0,0,1.7-1.15,1,1,0,0,0,.06-.35Z"/><path d="M821.33,113h.58v8.53h-.58Z"/><path d="M788.2,128a12.09,12.09,0,0,1,2.07-.18,4.38,4.38,0,0,1,3.26,1.1,3.85,3.85,0,0,1,1,2.81,4.42,4.42,0,0,1-1.06,3.06A4.62,4.62,0,0,1,790,136c-.62,0-1.21,0-1.8-.06Zm.58,7.48a10,10,0,0,0,1.31.06c2.59,0,3.87-1.45,3.87-3.79,0-2.05-1.12-3.45-3.72-3.45a7.39,7.39,0,0,0-1.46.13Z"/><path d="M796.12,133c0,1.83,1,2.57,2.19,2.57a3.36,3.36,0,0,0,1.6-.32l.14.44a3.79,3.79,0,0,1-1.81.37,2.64,2.64,0,0,1-2.69-2.89c0-1.92,1.1-3.12,2.59-3.12a2.35,2.35,0,0,1,2.24,2.6,1.45,1.45,0,0,1,0,.35Zm3.67-.46a1.76,1.76,0,0,0-1.71-2,2,2,0,0,0-1.92,2Z"/><path d="M801.84,132c0-.72,0-1.28,0-1.83h.55l0,1.09h0a2.3,2.3,0,0,1,2.13-1.22C806,130,807,131.26,807,133c0,2.05-1.22,3.11-2.62,3.11a2.18,2.18,0,0,1-2-1.07h0v3.31h-.58Zm.58,1.66a1.89,1.89,0,0,0,0,.46,2,2,0,0,0,1.9,1.46c1.32,0,2.07-1.07,2.07-2.6a2.19,2.19,0,0,0-2-2.46A2,2,0,0,0,802.5,132a2.34,2.34,0,0,0-.08.49Z"/><path d="M808.48,127.4h.58v8.53h-.58Z"/><path d="M813.18,136.06a2.7,2.7,0,0,1-2.64-3,2.78,2.78,0,0,1,2.72-3.06,2.68,2.68,0,0,1,2.67,3,2.79,2.79,0,0,1-2.75,3.06Zm0-.48a2.33,2.33,0,0,0,2.15-2.55,2.16,2.16,0,1,0-2.16,2.55Z"/><path d="M817.12,130.17l1.51,3.77c.16.41.31.88.42,1.24h0c.12-.35.26-.8.44-1.27l1.4-3.73h.61l-1.73,4.29a8.81,8.81,0,0,1-1.94,3.51,3.45,3.45,0,0,1-1,.6l-.18-.48a3.13,3.13,0,0,0,1-.64,4.59,4.59,0,0,0,1-1.45.75.75,0,0,0,.07-.25.83.83,0,0,0-.07-.25l-2.13-5.34Z"/><path d="M822.63,131.55c0-.53,0-.92,0-1.38h.54l0,1h0A2,2,0,0,1,825,130a1.76,1.76,0,0,1,1.65,1.25h0a2.26,2.26,0,0,1,.59-.78,2,2,0,0,1,1.37-.47c.56,0,1.88.31,1.88,2.49v3.39H830v-3.35c0-1.3-.5-2.06-1.5-2.06a1.69,1.69,0,0,0-1.51,1.14,2.06,2.06,0,0,0-.1.58v3.69h-.58v-3.61c0-1-.49-1.8-1.43-1.8a1.78,1.78,0,0,0-1.6,1.3,2.06,2.06,0,0,0-.08.56v3.55h-.58Z"/><path d="M832.54,133c0,1.83,1,2.57,2.19,2.57a3.36,3.36,0,0,0,1.6-.32l.14.44a3.79,3.79,0,0,1-1.81.37,2.64,2.64,0,0,1-2.69-2.89c0-1.92,1.1-3.12,2.59-3.12a2.35,2.35,0,0,1,2.24,2.6,1.45,1.45,0,0,1,0,.35Zm3.67-.46a1.76,1.76,0,0,0-1.71-2,2,2,0,0,0-1.92,2Z"/><path d="M838.28,131.55c0-.53,0-.92,0-1.38h.54l0,1h0a2.16,2.16,0,0,1,2-1.16c.55,0,2,.28,2,2.43v3.45h-.58v-3.41c0-1.06-.41-2-1.6-2a1.85,1.85,0,0,0-1.73,1.33,2,2,0,0,0-.07.5v3.57h-.58Z"/><path d="M845.5,128.9v1.27h1.64v.47H845.5v3.74c0,.73.23,1.19.84,1.19a2.14,2.14,0,0,0,.66-.08l.07.43a2.29,2.29,0,0,1-.8.13,1.22,1.22,0,0,1-1-.4,2.1,2.1,0,0,1-.36-1.38v-3.63h-1v-.47h1v-1.06Z"/><polyline class="cls-17" points="852.27 223.14 860.27 231.14 852.27 239.14"/><line class="cls-17" x1="860.27" y1="231.14" x2="787.23" y2="231.14"/><path d="M795,202.78c-.07-1.21-.17-2.7-.17-3.59h0c-.3.88-.62,1.81-1.09,3l-1.7,4.39h-.4l-1.6-4.29c-.46-1.26-.8-2.23-1-3.12h0c0,.95-.08,2.35-.18,3.69l-.25,3.72H788l.59-8.08h.66l1.74,4.67c.38,1,.66,1.83.89,2.61h0c.2-.74.49-1.52.9-2.61l1.81-4.67h.68l.54,8.08h-.56Z"/><path d="M801.22,205.24a8.59,8.59,0,0,0,.08,1.37h-.53l-.08-.83h0a2.2,2.2,0,0,1-1.85,1,1.56,1.56,0,0,1-1.69-1.58c0-1.33,1.16-2.13,3.51-2.11v-.16c0-.56-.11-1.7-1.47-1.69a2.51,2.51,0,0,0-1.45.43l-.18-.42a3.18,3.18,0,0,1,1.69-.49c1.67,0,2,1.25,2,2.27Zm-.58-1.71c-1.26,0-2.91.16-2.91,1.54a1.1,1.1,0,0,0,1.15,1.2,1.72,1.72,0,0,0,1.7-1.15,1,1,0,0,0,.06-.35Z"/><path d="M803.08,202.23c0-.53,0-.92,0-1.38h.54l0,1h0a2.16,2.16,0,0,1,2-1.16c.55,0,2,.28,2,2.43v3.45H807V203.2c0-1.06-.41-2-1.6-2a1.85,1.85,0,0,0-1.73,1.33,2,2,0,0,0-.07.5v3.57h-.58Z"/><path d="M813.95,205.21c0,.5,0,1,0,1.4h-.54l0-1h0a2.21,2.21,0,0,1-2,1.16c-.73,0-2-.37-2-2.54v-3.35H810v3.24c0,1.25.38,2.15,1.52,2.15a1.9,1.9,0,0,0,1.7-1.16,2.09,2.09,0,0,0,.11-.64v-3.59h.58Z"/><path d="M819.47,205.24a8.59,8.59,0,0,0,.08,1.37H819l-.08-.83h0a2.2,2.2,0,0,1-1.85,1,1.56,1.56,0,0,1-1.69-1.58c0-1.33,1.16-2.13,3.51-2.11v-.16c0-.56-.11-1.7-1.47-1.69a2.51,2.51,0,0,0-1.45.43l-.18-.42a3.18,3.18,0,0,1,1.69-.49c1.67,0,2,1.25,2,2.27Zm-.58-1.71c-1.26,0-2.91.16-2.91,1.54a1.1,1.1,0,0,0,1.15,1.2,1.72,1.72,0,0,0,1.7-1.15,1,1,0,0,0,.06-.35Z"/><path d="M821.33,198.08h.58v8.53h-.58Z"/><path d="M788.2,213a12.09,12.09,0,0,1,2.07-.18,4.38,4.38,0,0,1,3.26,1.1,3.85,3.85,0,0,1,1,2.81,4.42,4.42,0,0,1-1.06,3.06,4.62,4.62,0,0,1-3.49,1.24c-.62,0-1.21,0-1.8-.06Zm.58,7.48a10,10,0,0,0,1.31.06c2.59,0,3.87-1.45,3.87-3.79,0-2.05-1.12-3.45-3.72-3.45a7.39,7.39,0,0,0-1.46.13Z"/><path d="M796.12,218.07c0,1.83,1,2.57,2.19,2.57a3.36,3.36,0,0,0,1.6-.32l.14.44a3.79,3.79,0,0,1-1.81.37,2.64,2.64,0,0,1-2.69-2.89c0-1.92,1.1-3.12,2.59-3.12a2.35,2.35,0,0,1,2.24,2.6,1.45,1.45,0,0,1,0,.35Zm3.67-.46a1.76,1.76,0,0,0-1.71-2,2,2,0,0,0-1.92,2Z"/><path d="M801.84,217.09c0-.72,0-1.28,0-1.83h.55l0,1.09h0a2.3,2.3,0,0,1,2.13-1.22c1.47,0,2.47,1.22,2.47,2.91,0,2.05-1.22,3.11-2.62,3.11a2.18,2.18,0,0,1-2-1.07h0v3.31h-.58Zm.58,1.66a1.89,1.89,0,0,0,0,.46,2,2,0,0,0,1.9,1.46c1.32,0,2.07-1.07,2.07-2.6a2.19,2.19,0,0,0-2-2.46,2,2,0,0,0-1.91,1.52,2.34,2.34,0,0,0-.08.49Z"/><path d="M808.48,212.48h.58V221h-.58Z"/><path d="M813.18,221.14a2.7,2.7,0,0,1-2.64-3,2.78,2.78,0,0,1,2.72-3.06,2.68,2.68,0,0,1,2.67,3,2.79,2.79,0,0,1-2.75,3.06Zm0-.48a2.33,2.33,0,0,0,2.15-2.55,2.16,2.16,0,1,0-2.16,2.55Z"/><path d="M817.12,215.25l1.51,3.77c.16.41.31.88.42,1.24h0c.12-.35.26-.8.44-1.27l1.4-3.73h.61l-1.73,4.29a8.81,8.81,0,0,1-1.94,3.51,3.45,3.45,0,0,1-1,.6l-.18-.48a3.13,3.13,0,0,0,1-.64,4.59,4.59,0,0,0,1-1.45.75.75,0,0,0,.07-.25.83.83,0,0,0-.07-.25l-2.13-5.34Z"/><path d="M822.63,216.63c0-.53,0-.92,0-1.38h.54l0,1h0a2,2,0,0,1,1.87-1.14,1.76,1.76,0,0,1,1.65,1.25h0a2.26,2.26,0,0,1,.59-.78,2,2,0,0,1,1.37-.47c.56,0,1.88.31,1.88,2.49V221H830v-3.35c0-1.3-.5-2.06-1.5-2.06a1.69,1.69,0,0,0-1.51,1.14,2.06,2.06,0,0,0-.1.58V221h-.58V217.4c0-1-.49-1.8-1.43-1.8a1.78,1.78,0,0,0-1.6,1.3,2.06,2.06,0,0,0-.08.56V221h-.58Z"/><path d="M832.54,218.07c0,1.83,1,2.57,2.19,2.57a3.36,3.36,0,0,0,1.6-.32l.14.44a3.79,3.79,0,0,1-1.81.37,2.64,2.64,0,0,1-2.69-2.89c0-1.92,1.1-3.12,2.59-3.12a2.35,2.35,0,0,1,2.24,2.6,1.45,1.45,0,0,1,0,.35Zm3.67-.46a1.76,1.76,0,0,0-1.71-2,2,2,0,0,0-1.92,2Z"/><path d="M838.28,216.63c0-.53,0-.92,0-1.38h.54l0,1h0a2.16,2.16,0,0,1,2-1.16c.55,0,2,.28,2,2.43V221h-.58V217.6c0-1.06-.41-2-1.6-2a1.85,1.85,0,0,0-1.73,1.33,2,2,0,0,0-.07.5V221h-.58Z"/><path d="M845.5,214v1.27h1.64v.47H845.5v3.74c0,.73.23,1.19.84,1.19a2.14,2.14,0,0,0,.66-.08l.07.43a2.29,2.29,0,0,1-.8.13,1.22,1.22,0,0,1-1-.4,2.1,2.1,0,0,1-.36-1.38v-3.63h-1v-.47h1V214.2Z"/><polyline class="cls-17" points="852.27 273.16 860.27 281.16 852.27 289.16"/><line class="cls-17" x1="860.27" y1="281.16" x2="787.23" y2="281.16"/><path d="M789.17,254.27l-1,2.83h-.59l2.93-8.08h.55L794,257.1h-.59l-1-2.83Zm3-.48-1-2.7c-.19-.56-.3-1-.42-1.43h0c-.12.47-.25.89-.42,1.4l-1,2.72Z"/><path d="M799.54,255.7c0,.5,0,1,0,1.4H799l0-1h0a2.21,2.21,0,0,1-2,1.16c-.73,0-2-.37-2-2.54v-3.35h.58v3.24c0,1.25.38,2.15,1.52,2.15a1.9,1.9,0,0,0,1.7-1.16,2.09,2.09,0,0,0,.11-.64v-3.59h.58Z"/><path d="M802.26,250.07v1.27h1.64v.47h-1.64v3.74c0,.73.23,1.19.84,1.19a2.14,2.14,0,0,0,.66-.08l.07.43a2.29,2.29,0,0,1-.8.13,1.22,1.22,0,0,1-1-.4,2.1,2.1,0,0,1-.36-1.38v-3.63h-1v-.47h1v-1.06Z"/><path d="M807.27,257.23a2.7,2.7,0,0,1-2.64-3,2.78,2.78,0,0,1,2.72-3.06,2.68,2.68,0,0,1,2.67,3,2.79,2.79,0,0,1-2.75,3.06Zm0-.48a2.33,2.33,0,0,0,2.15-2.55,2.16,2.16,0,1,0-2.16,2.55Z"/><path d="M788.2,263.54a12.09,12.09,0,0,1,2.07-.18,4.38,4.38,0,0,1,3.26,1.1,3.85,3.85,0,0,1,1,2.81,4.42,4.42,0,0,1-1.06,3.06,4.62,4.62,0,0,1-3.49,1.24c-.62,0-1.21,0-1.8-.06Zm.58,7.48a10,10,0,0,0,1.31.06c2.59,0,3.87-1.45,3.87-3.79,0-2.05-1.12-3.45-3.72-3.45a7.39,7.39,0,0,0-1.46.13Z"/><path d="M796.12,268.57c0,1.83,1,2.57,2.19,2.57a3.36,3.36,0,0,0,1.6-.32l.14.44a3.79,3.79,0,0,1-1.81.37,2.64,2.64,0,0,1-2.69-2.89c0-1.92,1.1-3.12,2.59-3.12a2.35,2.35,0,0,1,2.24,2.6,1.45,1.45,0,0,1,0,.35Zm3.67-.46a1.76,1.76,0,0,0-1.71-2,2,2,0,0,0-1.92,2Z"/><path d="M801.84,267.58c0-.72,0-1.28,0-1.83h.55l0,1.09h0a2.3,2.3,0,0,1,2.13-1.22c1.47,0,2.47,1.22,2.47,2.91,0,2.05-1.22,3.11-2.62,3.11a2.18,2.18,0,0,1-2-1.07h0v3.31h-.58Zm.58,1.66a1.89,1.89,0,0,0,0,.46,2,2,0,0,0,1.9,1.46c1.32,0,2.07-1.07,2.07-2.6a2.19,2.19,0,0,0-2-2.46,2,2,0,0,0-1.91,1.52,2.34,2.34,0,0,0-.08.49Z"/><path d="M808.48,263h.58v8.53h-.58Z"/><path d="M813.18,271.64a2.7,2.7,0,0,1-2.64-3,2.78,2.78,0,0,1,2.72-3.06,2.68,2.68,0,0,1,2.67,3,2.79,2.79,0,0,1-2.75,3.06Zm0-.48a2.33,2.33,0,0,0,2.15-2.55,2.16,2.16,0,1,0-2.16,2.55Z"/><path d="M817.12,265.75l1.51,3.77c.16.41.31.88.42,1.24h0c.12-.35.26-.8.44-1.27l1.4-3.73h.61L819.8,270a8.81,8.81,0,0,1-1.94,3.51,3.45,3.45,0,0,1-1,.6l-.18-.48a3.13,3.13,0,0,0,1-.64,4.59,4.59,0,0,0,1-1.45.75.75,0,0,0,.07-.25.83.83,0,0,0-.07-.25l-2.13-5.34Z"/><path d="M822.63,267.13c0-.53,0-.92,0-1.38h.54l0,1h0a2,2,0,0,1,1.87-1.14,1.76,1.76,0,0,1,1.65,1.25h0a2.26,2.26,0,0,1,.59-.78,2,2,0,0,1,1.37-.47c.56,0,1.88.31,1.88,2.49v3.39H830v-3.35c0-1.3-.5-2.06-1.5-2.06a1.69,1.69,0,0,0-1.51,1.14,2.06,2.06,0,0,0-.1.58v3.69h-.58v-3.61c0-1-.49-1.8-1.43-1.8a1.78,1.78,0,0,0-1.6,1.3,2.06,2.06,0,0,0-.08.56v3.55h-.58Z"/><path d="M832.54,268.57c0,1.83,1,2.57,2.19,2.57a3.36,3.36,0,0,0,1.6-.32l.14.44a3.79,3.79,0,0,1-1.81.37,2.64,2.64,0,0,1-2.69-2.89c0-1.92,1.1-3.12,2.59-3.12a2.35,2.35,0,0,1,2.24,2.6,1.45,1.45,0,0,1,0,.35Zm3.67-.46a1.76,1.76,0,0,0-1.71-2,2,2,0,0,0-1.92,2Z"/><path d="M838.28,267.13c0-.53,0-.92,0-1.38h.54l0,1h0a2.16,2.16,0,0,1,2-1.16c.55,0,2,.28,2,2.43v3.45h-.58V268.1c0-1.06-.41-2-1.6-2a1.85,1.85,0,0,0-1.73,1.33,2,2,0,0,0-.07.5v3.57h-.58Z"/><path d="M845.5,264.48v1.27h1.64v.47H845.5V270c0,.73.23,1.19.84,1.19a2.14,2.14,0,0,0,.66-.08l.07.43a2.29,2.29,0,0,1-.8.13,1.22,1.22,0,0,1-1-.4,2.1,2.1,0,0,1-.36-1.38v-3.63h-1v-.47h1v-1.06Z"/><rect class="cls-17" x="6.25" y="70.44" width="330" height="230" rx="15.67" ry="15.67"/><rect class="cls-17" x="441.25" y="70.44" width="330" height="230" rx="15.67" ry="15.67"/></g></svg>